STARTFONT 2.1
COMMENT
COMMENT Converted from OpenType font "Roboto-Thin.ttf" by "otf2bdf 3.0".
COMMENT
FONT -FreeType-Roboto Thin-Medium-R-Normal--17-120-100-100-P-77-ISO10646-1
SIZE 12 100 100
FONTBOUNDINGBOX 31 21 -12 -4
STARTPROPERTIES 19
FOUNDRY "FreeType"
FAMILY_NAME "Roboto Thin"
WEIGHT_NAME "Medium"
SLANT "R"
SETWIDTH_NAME "Normal"
ADD_STYLE_NAME ""
PIXEL_SIZE 17
POINT_SIZE 120
RESOLUTION_X 100
RESOLUTION_Y 100
SPACING "P"
AVERAGE_WIDTH 77
CHARSET_REGISTRY "ISO10646"
CHARSET_ENCODING "1"
FONT_ASCENT 15
FONT_DESCENT 4
COPYRIGHT "Copyright 2011 The Roboto Project Authors (https://github.com/googlefonts/roboto-classic)"
_OTF_FONTFILE "Roboto-Thin.ttf"
_OTF_PSNAME "Roboto-Thin"
ENDPROPERTIES
CHARS 922
STARTCHAR 0000
ENCODING 0
SWIDTH 0 0
DWIDTH 0 0
BBX 0 0 0 0
BITMAP
ENDCHAR
STARTCHAR 0002
ENCODING 2
SWIDTH 0 0
DWIDTH 0 0
BBX 0 0 0 0
BITMAP
ENDCHAR
STARTCHAR 000D
ENCODING 13
SWIDTH 180 0
DWIDTH 3 0
BBX 0 0 0 0
BITMAP
ENDCHAR
STARTCHAR 0020
ENCODING 32
SWIDTH 180 0
DWIDTH 3 0
BBX 0 0 0 0
BITMAP
ENDCHAR
STARTCHAR 0021
ENCODING 33
SWIDTH 180 0
DWIDTH 3 0
BBX 1 12 1 0
BITMAP
80
80
80
80
80
80
80
80
80
00
00
80
ENDCHAR
STARTCHAR 0022
ENCODING 34
SWIDTH 240 0
DWIDTH 4 0
BBX 2 4 1 9
BITMAP
80
C0
C0
80
ENDCHAR
STARTCHAR 0023
ENCODING 35
SWIDTH 540 0
DWIDTH 9 0
BBX 9 12 0 0
BITMAP
0800
1100
1100
1200
3F80
1200
2200
2200
FF80
2400
2400
2000
ENDCHAR
STARTCHAR 0024
ENCODING 36
SWIDTH 540 0
DWIDTH 9 0
BBX 7 13 1 0
BITMAP
3C
C2
80
80
80
60
18
06
02
82
82
44
38
ENDCHAR
STARTCHAR 0025
ENCODING 37
SWIDTH 720 0
DWIDTH 12 0
BBX 11 12 1 0
BITMAP
7000
9000
9100
9200
9400
6400
0800
0BC0
1240
2220
2240
03C0
ENDCHAR
STARTCHAR 0026
ENCODING 38
SWIDTH 600 0
DWIDTH 10 0
BBX 8 12 1 0
BITMAP
38
44
44
48
50
20
50
88
85
83
82
7D
ENDCHAR
STARTCHAR 0027
ENCODING 39
SWIDTH 120 0
DWIDTH 2 0
BBX 1 4 1 9
BITMAP
80
80
80
80
ENDCHAR
STARTCHAR 0028
ENCODING 40
SWIDTH 240 0
DWIDTH 4 0
BBX 4 17 1 -4
BITMAP
20
40
40
80
80
80
80
80
80
80
80
80
80
40
40
20
10
ENDCHAR
STARTCHAR 0029
ENCODING 41
SWIDTH 300 0
DWIDTH 5 0
BBX 4 17 0 -4
BITMAP
80
40
20
20
20
20
10
10
10
10
10
20
20
20
40
40
80
ENDCHAR
STARTCHAR 002A
ENCODING 42
SWIDTH 360 0
DWIDTH 6 0
BBX 7 7 0 5
BITMAP
10
10
92
7C
30
48
44
ENDCHAR
STARTCHAR 002B
ENCODING 43
SWIDTH 540 0
DWIDTH 9 0
BBX 8 9 1 1
BITMAP
10
10
10
10
FF
10
10
10
10
ENDCHAR
STARTCHAR 002C
ENCODING 44
SWIDTH 180 0
DWIDTH 3 0
BBX 1 3 1 -2
BITMAP
80
80
80
ENDCHAR
STARTCHAR 002D
ENCODING 45
SWIDTH 240 0
DWIDTH 4 0
BBX 4 1 0 5
BITMAP
F0
ENDCHAR
STARTCHAR 002E
ENCODING 46
SWIDTH 180 0
DWIDTH 3 0
BBX 1 1 1 0
BITMAP
80
ENDCHAR
STARTCHAR 002F
ENCODING 47
SWIDTH 360 0
DWIDTH 6 0
BBX 6 12 0 -1
BITMAP
04
08
08
10
10
10
20
20
20
40
40
80
ENDCHAR
STARTCHAR 0030
ENCODING 48
SWIDTH 540 0
DWIDTH 9 0
BBX 7 12 1 0
BITMAP
38
C4
82
82
82
82
82
82
82
82
84
7C
ENDCHAR
STARTCHAR 0031
ENCODING 49
SWIDTH 540 0
DWIDTH 9 0
BBX 3 11 2 0
BITMAP
20
E0
20
20
20
20
20
20
20
20
20
ENDCHAR
STARTCHAR 0032
ENCODING 50
SWIDTH 540 0
DWIDTH 9 0
BBX 7 12 1 0
BITMAP
38
C4
82
02
04
04
08
10
20
20
40
FC
ENDCHAR
STARTCHAR 0033
ENCODING 51
SWIDTH 540 0
DWIDTH 9 0
BBX 7 12 1 0
BITMAP
3C
C2
82
02
02
04
1C
02
02
02
82
7C
ENDCHAR
STARTCHAR 0034
ENCODING 52
SWIDTH 540 0
DWIDTH 9 0
BBX 8 12 1 0
BITMAP
04
0C
14
14
24
44
44
84
FF
04
04
04
ENDCHAR
STARTCHAR 0035
ENCODING 53
SWIDTH 540 0
DWIDTH 9 0
BBX 7 12 1 0
BITMAP
7E
40
40
40
80
7C
02
02
02
02
82
7C
ENDCHAR
STARTCHAR 0036
ENCODING 54
SWIDTH 540 0
DWIDTH 9 0
BBX 7 12 1 0
BITMAP
18
60
80
80
B8
C4
82
82
82
82
82
7C
ENDCHAR
STARTCHAR 0037
ENCODING 55
SWIDTH 540 0
DWIDTH 9 0
BBX 7 11 1 0
BITMAP
FE
02
04
04
08
08
10
10
10
20
20
ENDCHAR
STARTCHAR 0038
ENCODING 56
SWIDTH 540 0
DWIDTH 9 0
BBX 7 12 1 0
BITMAP
3C
C2
82
82
82
44
7C
82
82
82
82
7C
ENDCHAR
STARTCHAR 0039
ENCODING 57
SWIDTH 540 0
DWIDTH 9 0
BBX 7 12 1 0
BITMAP
38
C4
82
82
82
82
86
4A
32
04
04
78
ENDCHAR
STARTCHAR 003A
ENCODING 58
SWIDTH 120 0
DWIDTH 2 0
BBX 1 9 1 0
BITMAP
80
00
00
00
00
00
00
00
80
ENDCHAR
STARTCHAR 003B
ENCODING 59
SWIDTH 120 0
DWIDTH 2 0
BBX 1 11 1 -2
BITMAP
80
00
00
00
00
00
00
00
80
80
80
ENDCHAR
STARTCHAR 003C
ENCODING 60
SWIDTH 480 0
DWIDTH 8 0
BBX 5 5 1 3
BITMAP
08
30
C0
40
38
ENDCHAR
STARTCHAR 003D
ENCODING 61
SWIDTH 540 0
DWIDTH 9 0
BBX 5 3 2 4
BITMAP
F8
00
F8
ENDCHAR
STARTCHAR 003E
ENCODING 62
SWIDTH 480 0
DWIDTH 8 0
BBX 7 6 1 3
BITMAP
60
18
06
0C
30
C0
ENDCHAR
STARTCHAR 003F
ENCODING 63
SWIDTH 420 0
DWIDTH 7 0
BBX 5 12 1 0
BITMAP
70
88
08
08
08
08
10
20
20
00
00
20
ENDCHAR
STARTCHAR 0040
ENCODING 64
SWIDTH 900 0
DWIDTH 15 0
BBX 13 15 1 -4
BITMAP
1FE0
2010
4008
8388
8C08
8888
9088
9088
9088
9088
8950
8620
4000
2000
1F00
ENDCHAR
STARTCHAR 0041
ENCODING 65
SWIDTH 540 0
DWIDTH 9 0
BBX 9 11 0 1
BITMAP
0C00
1400
1200
1200
2200
2100
4100
5F00
4080
8080
8000
ENDCHAR
STARTCHAR 0042
ENCODING 66
SWIDTH 600 0
DWIDTH 10 0
BBX 7 12 2 0
BITMAP
F8
84
82
82
84
88
F4
82
82
82
82
7C
ENDCHAR
STARTCHAR 0043
ENCODING 67
SWIDTH 600 0
DWIDTH 10 0
BBX 9 12 1 0
BITMAP
3E00
4100
8100
8080
8000
8000
8000
8000
8080
8100
4100
3E00
ENDCHAR
STARTCHAR 0044
ENCODING 68
SWIDTH 600 0
DWIDTH 10 0
BBX 8 12 2 0
BITMAP
F8
84
82
81
81
81
81
81
81
82
84
78
ENDCHAR
STARTCHAR 0045
ENCODING 69
SWIDTH 540 0
DWIDTH 9 0
BBX 7 12 2 0
BITMAP
FE
80
80
80
80
80
F8
80
80
80
80
7C
ENDCHAR
STARTCHAR 0046
ENCODING 70
SWIDTH 540 0
DWIDTH 9 0
BBX 7 11 2 0
BITMAP
FE
80
80
80
80
80
F8
80
80
80
80
ENDCHAR
STARTCHAR 0047
ENCODING 71
SWIDTH 660 0
DWIDTH 11 0
BBX 9 12 1 0
BITMAP
1E00
6100
8080
8000
8000
8000
8000
8380
8080
8080
4080
3F00
ENDCHAR
STARTCHAR 0048
ENCODING 72
SWIDTH 660 0
DWIDTH 11 0
BBX 8 10 2 1
BITMAP
81
81
81
81
81
FF
81
81
81
81
ENDCHAR
STARTCHAR 0049
ENCODING 73
SWIDTH 240 0
DWIDTH 4 0
BBX 1 10 2 1
BITMAP
80
80
80
80
80
80
80
80
80
80
ENDCHAR
STARTCHAR 004A
ENCODING 74
SWIDTH 540 0
DWIDTH 9 0
BBX 7 12 1 0
BITMAP
02
02
02
02
02
02
02
02
02
04
84
78
ENDCHAR
STARTCHAR 004B
ENCODING 75
SWIDTH 600 0
DWIDTH 10 0
BBX 8 11 2 1
BITMAP
86
88
90
A0
C0
A0
90
88
84
82
01
ENDCHAR
STARTCHAR 004C
ENCODING 76
SWIDTH 480 0
DWIDTH 8 0
BBX 5 11 2 1
BITMAP
80
80
80
80
80
80
80
80
80
80
78
ENDCHAR
STARTCHAR 004D
ENCODING 77
SWIDTH 840 0
DWIDTH 14 0
BBX 11 12 2 0
BITMAP
0020
8060
80A0
C0A0
C0A0
A120
A120
A220
9220
9420
8C20
0420
ENDCHAR
STARTCHAR 004E
ENCODING 78
SWIDTH 660 0
DWIDTH 11 0
BBX 8 11 2 1
BITMAP
81
C1
C1
A1
91
91
89
85
83
83
01
ENDCHAR
STARTCHAR 004F
ENCODING 79
SWIDTH 660 0
DWIDTH 11 0
BBX 9 12 1 0
BITMAP
3E00
4100
8100
8080
8080
8080
8080
8080
8080
8080
4100
3E00
ENDCHAR
STARTCHAR 0050
ENCODING 80
SWIDTH 600 0
DWIDTH 10 0
BBX 7 11 2 0
BITMAP
F8
86
82
82
82
82
8C
F0
80
80
80
ENDCHAR
STARTCHAR 0051
ENCODING 81
SWIDTH 660 0
DWIDTH 11 0
BBX 9 14 1 -2
BITMAP
3E00
4100
8100
8080
8080
8080
8080
8080
8080
8080
4100
2200
1E00
0100
ENDCHAR
STARTCHAR 0052
ENCODING 82
SWIDTH 600 0
DWIDTH 10 0
BBX 8 12 2 0
BITMAP
F8
86
82
82
82
82
FC
88
84
84
82
01
ENDCHAR
STARTCHAR 0053
ENCODING 83
SWIDTH 540 0
DWIDTH 9 0
BBX 8 12 1 0
BITMAP
3C
C2
81
80
80
60
1C
03
01
01
81
7E
ENDCHAR
STARTCHAR 0054
ENCODING 84
SWIDTH 540 0
DWIDTH 9 0
BBX 10 11 0 0
BITMAP
FFC0
0800
0800
0800
0800
0800
0800
0800
0800
0800
0800
ENDCHAR
STARTCHAR 0055
ENCODING 85
SWIDTH 660 0
DWIDTH 11 0
BBX 9 12 1 0
BITMAP
8080
8080
8080
8080
8080
8080
8080
8080
8080
8100
4100
3E00
ENDCHAR
STARTCHAR 0056
ENCODING 86
SWIDTH 540 0
DWIDTH 9 0
BBX 10 11 0 0
BITMAP
8040
8080
4080
4100
4100
2100
2200
1200
1200
1400
0C00
ENDCHAR
STARTCHAR 0057
ENCODING 87
SWIDTH 900 0
DWIDTH 15 0
BBX 14 12 0 0
BITMAP
0100
8304
4284
4284
4488
4488
2448
2448
2850
2830
1830
0010
ENDCHAR
STARTCHAR 0058
ENCODING 88
SWIDTH 540 0
DWIDTH 9 0
BBX 9 11 0 1
BITMAP
4180
2100
2200
1400
0C00
0C00
1400
2200
2100
4100
8080
ENDCHAR
STARTCHAR 0059
ENCODING 89
SWIDTH 540 0
DWIDTH 9 0
BBX 9 11 0 0
BITMAP
8000
4080
4100
2100
2200
1400
0C00
0800
0800
0800
0800
ENDCHAR
STARTCHAR 005A
ENCODING 90
SWIDTH 540 0
DWIDTH 9 0
BBX 8 12 1 0
BITMAP
FF
02
02
04
08
10
10
20
40
40
80
FE
ENDCHAR
STARTCHAR 005B
ENCODING 91
SWIDTH 180 0
DWIDTH 3 0
BBX 3 17 1 -3
BITMAP
E0
80
80
80
80
80
80
80
80
80
80
80
80
80
80
80
E0
ENDCHAR
STARTCHAR 005C
ENCODING 92
SWIDTH 360 0
DWIDTH 6 0
BBX 6 12 0 0
BITMAP
80
40
40
20
20
20
10
10
08
08
08
04
ENDCHAR
STARTCHAR 005D
ENCODING 93
SWIDTH 180 0
DWIDTH 3 0
BBX 2 17 0 -3
BITMAP
C0
40
40
40
40
40
40
40
40
40
40
40
40
40
40
40
C0
ENDCHAR
STARTCHAR 005E
ENCODING 94
SWIDTH 360 0
DWIDTH 6 0
BBX 5 6 1 6
BITMAP
20
60
50
90
90
08
ENDCHAR
STARTCHAR 005F
ENCODING 95
SWIDTH 360 0
DWIDTH 6 0
BBX 5 1 1 -1
BITMAP
F8
ENDCHAR
STARTCHAR 0060
ENCODING 96
SWIDTH 240 0
DWIDTH 4 0
BBX 2 3 1 10
BITMAP
80
80
40
ENDCHAR
STARTCHAR 0061
ENCODING 97
SWIDTH 480 0
DWIDTH 8 0
BBX 6 9 1 0
BITMAP
78
84
04
04
7C
84
84
84
F8
ENDCHAR
STARTCHAR 0062
ENCODING 98
SWIDTH 540 0
DWIDTH 9 0
BBX 7 13 1 0
BITMAP
80
80
80
80
B8
C4
82
82
82
82
82
82
FC
ENDCHAR
STARTCHAR 0063
ENCODING 99
SWIDTH 480 0
DWIDTH 8 0
BBX 7 9 1 0
BITMAP
38
C4
82
80
80
80
82
84
7C
ENDCHAR
STARTCHAR 0064
ENCODING 100
SWIDTH 540 0
DWIDTH 9 0
BBX 7 13 1 0
BITMAP
02
02
02
02
3A
C6
82
82
82
82
82
82
7E
ENDCHAR
STARTCHAR 0065
ENCODING 101
SWIDTH 480 0
DWIDTH 8 0
BBX 7 9 1 0
BITMAP
38
C4
82
82
FC
80
80
80
7C
ENDCHAR
STARTCHAR 0066
ENCODING 102
SWIDTH 300 0
DWIDTH 5 0
BBX 4 13 1 0
BITMAP
30
40
40
40
F0
40
40
40
40
40
40
40
40
ENDCHAR
STARTCHAR 0067
ENCODING 103
SWIDTH 540 0
DWIDTH 9 0
BBX 7 13 1 -4
BITMAP
3A
C6
82
82
82
82
82
82
4E
32
04
44
38
ENDCHAR
STARTCHAR 0068
ENCODING 104
SWIDTH 540 0
DWIDTH 9 0
BBX 7 13 1 0
BITMAP
80
80
80
80
BC
C4
82
82
82
82
82
82
82
ENDCHAR
STARTCHAR 0069
ENCODING 105
SWIDTH 180 0
DWIDTH 3 0
BBX 1 12 1 0
BITMAP
80
00
00
80
80
80
80
80
80
80
80
80
ENDCHAR
STARTCHAR 006A
ENCODING 106
SWIDTH 180 0
DWIDTH 3 0
BBX 3 16 -1 -4
BITMAP
20
00
00
00
20
20
20
20
20
20
20
20
20
20
20
C0
ENDCHAR
STARTCHAR 006B
ENCODING 107
SWIDTH 420 0
DWIDTH 7 0
BBX 6 13 1 0
BITMAP
80
80
80
80
80
8C
90
A0
E0
90
88
88
84
ENDCHAR
STARTCHAR 006C
ENCODING 108
SWIDTH 180 0
DWIDTH 3 0
BBX 1 13 1 0
BITMAP
80
80
80
80
80
80
80
80
80
80
80
80
80
ENDCHAR
STARTCHAR 006D
ENCODING 109
SWIDTH 840 0
DWIDTH 14 0
BBX 13 9 1 0
BITMAP
BCF0
C710
8208
8208
8208
8208
8208
8208
8208
ENDCHAR
STARTCHAR 006E
ENCODING 110
SWIDTH 540 0
DWIDTH 9 0
BBX 7 9 1 0
BITMAP
BC
C4
82
82
82
82
82
82
82
ENDCHAR
STARTCHAR 006F
ENCODING 111
SWIDTH 540 0
DWIDTH 9 0
BBX 7 9 1 0
BITMAP
38
C6
82
82
82
82
82
82
7C
ENDCHAR
STARTCHAR 0070
ENCODING 112
SWIDTH 540 0
DWIDTH 9 0
BBX 7 12 1 -3
BITMAP
B8
C4
82
82
82
82
82
82
E4
98
80
80
ENDCHAR
STARTCHAR 0071
ENCODING 113
SWIDTH 540 0
DWIDTH 9 0
BBX 7 12 1 -3
BITMAP
3A
C6
82
82
82
82
82
82
4E
32
02
02
ENDCHAR
STARTCHAR 0072
ENCODING 114
SWIDTH 300 0
DWIDTH 5 0
BBX 3 9 1 0
BITMAP
A0
C0
80
80
80
80
80
80
80
ENDCHAR
STARTCHAR 0073
ENCODING 115
SWIDTH 480 0
DWIDTH 8 0
BBX 6 9 1 0
BITMAP
78
84
80
80
70
0C
04
84
78
ENDCHAR
STARTCHAR 0074
ENCODING 116
SWIDTH 300 0
DWIDTH 5 0
BBX 4 10 0 1
BITMAP
40
F0
40
40
40
40
40
40
40
30
ENDCHAR
STARTCHAR 0075
ENCODING 117
SWIDTH 540 0
DWIDTH 9 0
BBX 7 9 1 0
BITMAP
82
82
82
82
82
82
82
82
7E
ENDCHAR
STARTCHAR 0076
ENCODING 118
SWIDTH 420 0
DWIDTH 7 0
BBX 8 8 0 0
BITMAP
81
82
42
44
24
24
28
18
ENDCHAR
STARTCHAR 0077
ENCODING 119
SWIDTH 720 0
DWIDTH 12 0
BBX 11 9 1 0
BITMAP
0420
8440
8C40
9240
9240
5280
6280
6180
2000
ENDCHAR
STARTCHAR 0078
ENCODING 120
SWIDTH 420 0
DWIDTH 7 0
BBX 7 8 0 1
BITMAP
46
24
18
10
18
24
44
82
ENDCHAR
STARTCHAR 0079
ENCODING 121
SWIDTH 420 0
DWIDTH 7 0
BBX 8 13 0 -4
BITMAP
81
82
42
44
24
24
28
18
08
10
10
20
40
ENDCHAR
STARTCHAR 007A
ENCODING 122
SWIDTH 420 0
DWIDTH 7 0
BBX 6 9 1 0
BITMAP
FC
08
08
10
20
20
40
80
FC
ENDCHAR
STARTCHAR 007B
ENCODING 123
SWIDTH 300 0
DWIDTH 5 0
BBX 4 16 1 -4
BITMAP
10
20
40
40
40
40
40
40
80
40
40
40
40
40
40
20
ENDCHAR
STARTCHAR 007C
ENCODING 124
SWIDTH 180 0
DWIDTH 3 0
BBX 1 14 1 -2
BITMAP
80
80
80
80
80
80
80
80
80
80
80
80
80
80
ENDCHAR
STARTCHAR 007D
ENCODING 125
SWIDTH 300 0
DWIDTH 5 0
BBX 5 16 0 -4
BITMAP
80
40
20
20
20
20
20
20
18
30
20
20
20
20
40
40
ENDCHAR
STARTCHAR 007E
ENCODING 126
SWIDTH 660 0
DWIDTH 11 0
BBX 9 2 1 4
BITMAP
F000
8F80
ENDCHAR
STARTCHAR 00A0
ENCODING 160
SWIDTH 180 0
DWIDTH 3 0
BBX 0 0 0 0
BITMAP
ENDCHAR
STARTCHAR 00A1
ENCODING 161
SWIDTH 180 0
DWIDTH 3 0
BBX 1 12 1 -3
BITMAP
80
00
00
80
80
80
80
80
80
80
80
80
ENDCHAR
STARTCHAR 00A2
ENCODING 162
SWIDTH 540 0
DWIDTH 9 0
BBX 7 13 1 -2
BITMAP
10
10
28
C6
82
80
80
80
80
82
44
38
10
ENDCHAR
STARTCHAR 00A3
ENCODING 163
SWIDTH 540 0
DWIDTH 9 0
BBX 7 12 1 0
BITMAP
1C
62
40
40
40
40
F8
40
40
40
40
7E
ENDCHAR
STARTCHAR 00A4
ENCODING 164
SWIDTH 720 0
DWIDTH 12 0
BBX 10 10 1 0
BITMAP
9E40
6180
8080
8040
8040
8040
8040
8080
4080
BF40
ENDCHAR
STARTCHAR 00A5
ENCODING 165
SWIDTH 480 0
DWIDTH 8 0
BBX 8 11 0 0
BITMAP
81
42
42
24
24
18
7F
10
10
3E
10
ENDCHAR
STARTCHAR 00A6
ENCODING 166
SWIDTH 180 0
DWIDTH 3 0
BBX 1 14 1 -2
BITMAP
80
80
80
80
80
80
00
00
80
80
80
80
80
80
ENDCHAR
STARTCHAR 00A7
ENCODING 167
SWIDTH 540 0
DWIDTH 9 0
BBX 8 16 1 -4
BITMAP
3C
C2
81
81
40
30
CE
81
81
41
3E
02
02
81
82
7C
ENDCHAR
STARTCHAR 00A8
ENCODING 168
SWIDTH 420 0
DWIDTH 7 0
BBX 5 1 1 11
BITMAP
88
ENDCHAR
STARTCHAR 00A9
ENCODING 169
SWIDTH 780 0
DWIDTH 13 0
BBX 12 12 1 0
BITMAP
1F00
20C0
4040
9F20
9020
9010
9010
9020
9120
4E20
4040
3F80
ENDCHAR
STARTCHAR 00AA
ENCODING 170
SWIDTH 420 0
DWIDTH 7 0
BBX 5 6 1 6
BITMAP
70
88
08
F8
88
F8
ENDCHAR
STARTCHAR 00AB
ENCODING 171
SWIDTH 420 0
DWIDTH 7 0
BBX 5 6 1 1
BITMAP
68
50
80
90
50
28
ENDCHAR
STARTCHAR 00AC
ENCODING 172
SWIDTH 480 0
DWIDTH 8 0
BBX 5 2 2 3
BITMAP
F0
08
ENDCHAR
STARTCHAR 00AD
ENCODING 173
SWIDTH 240 0
DWIDTH 4 0
BBX 4 1 0 5
BITMAP
F0
ENDCHAR
STARTCHAR 00AE
ENCODING 174
SWIDTH 780 0
DWIDTH 13 0
BBX 11 12 1 0
BITMAP
1F00
20C0
4040
9720
9120
9120
9620
9120
8020
8020
4040
3F80
ENDCHAR
STARTCHAR 00AF
ENCODING 175
SWIDTH 360 0
DWIDTH 6 0
BBX 5 1 1 11
BITMAP
F8
ENDCHAR
STARTCHAR 00B0
ENCODING 176
SWIDTH 360 0
DWIDTH 6 0
BBX 4 4 1 8
BITMAP
60
90
90
60
ENDCHAR
STARTCHAR 00B1
ENCODING 177
SWIDTH 480 0
DWIDTH 8 0
BBX 7 10 1 0
BITMAP
10
10
10
FE
10
10
10
10
00
7C
ENDCHAR
STARTCHAR 00B2
ENCODING 178
SWIDTH 300 0
DWIDTH 5 0
BBX 4 7 1 5
BITMAP
E0
10
10
20
40
80
F0
ENDCHAR
STARTCHAR 00B3
ENCODING 179
SWIDTH 300 0
DWIDTH 5 0
BBX 4 7 1 5
BITMAP
60
90
10
60
10
90
60
ENDCHAR
STARTCHAR 00B4
ENCODING 180
SWIDTH 240 0
DWIDTH 4 0
BBX 2 2 1 11
BITMAP
C0
80
ENDCHAR
STARTCHAR 00B5
ENCODING 181
SWIDTH 540 0
DWIDTH 9 0
BBX 7 12 1 -3
BITMAP
82
82
82
82
82
82
82
82
CE
B0
80
80
ENDCHAR
STARTCHAR 00B6
ENCODING 182
SWIDTH 420 0
DWIDTH 7 0
BBX 5 11 1 0
BITMAP
38
78
F8
F8
F8
F8
78
38
08
08
08
ENDCHAR
STARTCHAR 00B7
ENCODING 183
SWIDTH 180 0
DWIDTH 3 0
BBX 0 0 1 5
BITMAP
ENDCHAR
STARTCHAR 00B8
ENCODING 184
SWIDTH 180 0
DWIDTH 3 0
BBX 2 3 1 -4
BITMAP
80
40
40
ENDCHAR
STARTCHAR 00B9
ENCODING 185
SWIDTH 300 0
DWIDTH 5 0
BBX 2 7 2 5
BITMAP
C0
40
40
40
40
40
40
ENDCHAR
STARTCHAR 00BA
ENCODING 186
SWIDTH 420 0
DWIDTH 7 0
BBX 5 6 1 6
BITMAP
70
88
88
88
88
F8
ENDCHAR
STARTCHAR 00BB
ENCODING 187
SWIDTH 420 0
DWIDTH 7 0
BBX 5 7 1 1
BITMAP
80
50
48
20
48
90
A0
ENDCHAR
STARTCHAR 00BC
ENCODING 188
SWIDTH 660 0
DWIDTH 11 0
BBX 8 11 2 0
BITMAP
40
C2
44
44
48
48
50
23
25
41
07
ENDCHAR
STARTCHAR 00BD
ENCODING 189
SWIDTH 720 0
DWIDTH 12 0
BBX 9 12 2 0
BITMAP
8000
8000
8400
8800
8800
9000
1780
2080
4100
4100
8200
0700
ENDCHAR
STARTCHAR 00BE
ENCODING 190
SWIDTH 720 0
DWIDTH 12 0
BBX 10 11 1 0
BITMAP
7000
9000
1080
3100
0A00
9200
6440
04C0
0940
1040
11C0
ENDCHAR
STARTCHAR 00BF
ENCODING 191
SWIDTH 420 0
DWIDTH 7 0
BBX 6 12 1 -3
BITMAP
20
00
00
00
20
40
80
80
80
84
88
78
ENDCHAR
STARTCHAR 00C0
ENCODING 192
SWIDTH 540 0
DWIDTH 9 0
BBX 9 15 0 0
BITMAP
1000
0800
0000
0000
0C00
1400
1200
1200
2200
2100
4100
5F00
4080
8080
8000
ENDCHAR
STARTCHAR 00C1
ENCODING 193
SWIDTH 540 0
DWIDTH 9 0
BBX 9 15 0 0
BITMAP
0400
0400
0000
0000
0C00
1400
1200
1200
2200
2100
4100
5F00
4080
8080
8000
ENDCHAR
STARTCHAR 00C2
ENCODING 194
SWIDTH 540 0
DWIDTH 9 0
BBX 9 15 0 0
BITMAP
0C00
1200
0000
0000
0C00
1400
1200
1200
2200
2100
4100
5F00
4080
8080
8000
ENDCHAR
STARTCHAR 00C3
ENCODING 195
SWIDTH 540 0
DWIDTH 9 0
BBX 9 15 0 0
BITMAP
1900
2600
0000
0000
0C00
1400
1200
1200
2200
2100
4100
5F00
4080
8080
8000
ENDCHAR
STARTCHAR 00C4
ENCODING 196
SWIDTH 540 0
DWIDTH 9 0
BBX 9 15 0 0
BITMAP
0200
0000
0000
0000
0C00
1400
1200
1200
2200
2100
4100
5F00
4080
8080
8000
ENDCHAR
STARTCHAR 00C5
ENCODING 197
SWIDTH 540 0
DWIDTH 9 0
BBX 9 15 0 0
BITMAP
1C00
1400
0800
0000
0C00
1400
1200
1200
2200
2100
4100
5F00
4080
8080
8000
ENDCHAR
STARTCHAR 00C6
ENCODING 198
SWIDTH 840 0
DWIDTH 14 0
BBX 14 12 0 0
BITMAP
01FC
0300
0300
0500
0900
0900
1170
1080
1F80
6080
4080
80F8
ENDCHAR
STARTCHAR 00C7
ENCODING 199
SWIDTH 600 0
DWIDTH 10 0
BBX 9 16 1 -4
BITMAP
3E00
4100
8100
8080
8000
8000
8000
8000
8080
8100
4100
2200
1C00
0400
0400
0800
ENDCHAR
STARTCHAR 00C8
ENCODING 200
SWIDTH 540 0
DWIDTH 9 0
BBX 7 15 2 0
BITMAP
40
20
00
FE
80
80
80
80
80
F8
80
80
80
80
7C
ENDCHAR
STARTCHAR 00C9
ENCODING 201
SWIDTH 540 0
DWIDTH 9 0
BBX 7 15 2 0
BITMAP
10
10
00
FE
80
80
80
80
80
F8
80
80
80
80
7C
ENDCHAR
STARTCHAR 00CA
ENCODING 202
SWIDTH 540 0
DWIDTH 9 0
BBX 7 15 2 0
BITMAP
30
48
00
FE
80
80
80
80
80
F8
80
80
80
80
7C
ENDCHAR
STARTCHAR 00CB
ENCODING 203
SWIDTH 540 0
DWIDTH 9 0
BBX 7 15 2 0
BITMAP
40
00
00
FE
80
80
80
80
80
F8
80
80
80
80
7C
ENDCHAR
STARTCHAR 00CC
ENCODING 204
SWIDTH 240 0
DWIDTH 4 0
BBX 2 14 0 0
BITMAP
80
40
00
00
40
40
40
40
40
40
40
40
40
40
ENDCHAR
STARTCHAR 00CD
ENCODING 205
SWIDTH 240 0
DWIDTH 4 0
BBX 1 14 2 0
BITMAP
80
80
00
00
80
80
80
80
80
80
80
80
80
80
ENDCHAR
STARTCHAR 00CE
ENCODING 206
SWIDTH 240 0
DWIDTH 4 0
BBX 4 14 0 0
BITMAP
20
D0
00
00
40
40
40
40
40
40
40
40
40
40
ENDCHAR
STARTCHAR 00CF
ENCODING 207
SWIDTH 240 0
DWIDTH 4 0
BBX 2 14 0 0
BITMAP
80
00
00
00
40
40
40
40
40
40
40
40
40
40
ENDCHAR
STARTCHAR 00D0
ENCODING 208
SWIDTH 660 0
DWIDTH 11 0
BBX 9 12 1 0
BITMAP
7C00
8300
8100
8080
8080
8080
F080
8080
8080
8100
8100
3E00
ENDCHAR
STARTCHAR 00D1
ENCODING 209
SWIDTH 660 0
DWIDTH 11 0
BBX 8 15 2 0
BITMAP
32
4C
00
00
81
C1
C1
A1
91
91
89
85
83
83
01
ENDCHAR
STARTCHAR 00D2
ENCODING 210
SWIDTH 660 0
DWIDTH 11 0
BBX 9 15 1 0
BITMAP
1000
0800
0000
3E00
4100
8100
8080
8080
8080
8080
8080
8080
8080
4100
3E00
ENDCHAR
STARTCHAR 00D3
ENCODING 211
SWIDTH 660 0
DWIDTH 11 0
BBX 9 15 1 0
BITMAP
0400
0800
0000
3E00
4100
8100
8080
8080
8080
8080
8080
8080
8080
4100
3E00
ENDCHAR
STARTCHAR 00D4
ENCODING 212
SWIDTH 660 0
DWIDTH 11 0
BBX 9 15 1 0
BITMAP
1800
0400
0000
3E00
4100
8100
8080
8080
8080
8080
8080
8080
8080
4100
3E00
ENDCHAR
STARTCHAR 00D5
ENCODING 213
SWIDTH 660 0
DWIDTH 11 0
BBX 9 15 1 0
BITMAP
3000
0C00
0000
3E00
4100
8100
8080
8080
8080
8080
8080
8080
8080
4100
3E00
ENDCHAR
STARTCHAR 00D6
ENCODING 214
SWIDTH 660 0
DWIDTH 11 0
BBX 9 15 1 0
BITMAP
2200
0000
0000
3E00
4100
8100
8080
8080
8080
8080
8080
8080
8080
4100
3E00
ENDCHAR
STARTCHAR 00D7
ENCODING 215
SWIDTH 480 0
DWIDTH 8 0
BBX 6 7 1 0
BITMAP
80
44
28
10
28
44
84
ENDCHAR
STARTCHAR 00D8
ENCODING 216
SWIDTH 660 0
DWIDTH 11 0
BBX 9 13 1 -1
BITMAP
3E80
4100
8300
8280
8480
8880
8880
9080
9080
A080
4100
6200
1C00
ENDCHAR
STARTCHAR 00D9
ENCODING 217
SWIDTH 660 0
DWIDTH 11 0
BBX 9 15 1 0
BITMAP
1000
0800
0000
8080
8080
8080
8080
8080
8080
8080
8080
8080
8100
4100
3E00
ENDCHAR
STARTCHAR 00DA
ENCODING 218
SWIDTH 660 0
DWIDTH 11 0
BBX 9 15 1 0
BITMAP
0400
0000
0000
8080
8080
8080
8080
8080
8080
8080
8080
8080
8100
4100
3E00
ENDCHAR
STARTCHAR 00DB
ENCODING 219
SWIDTH 660 0
DWIDTH 11 0
BBX 9 15 1 0
BITMAP
0800
1400
0000
8080
8080
8080
8080
8080
8080
8080
8080
8080
8100
4100
3E00
ENDCHAR
STARTCHAR 00DC
ENCODING 220
SWIDTH 660 0
DWIDTH 11 0
BBX 9 15 1 0
BITMAP
0200
0000
0000
8080
8080
8080
8080
8080
8080
8080
8080
8080
8100
4100
3E00
ENDCHAR
STARTCHAR 00DD
ENCODING 221
SWIDTH 540 0
DWIDTH 9 0
BBX 9 14 0 0
BITMAP
0400
0400
0000
8000
4080
4100
2100
2200
1400
0C00
0800
0800
0800
0800
ENDCHAR
STARTCHAR 00DE
ENCODING 222
SWIDTH 540 0
DWIDTH 9 0
BBX 7 10 2 1
BITMAP
80
80
FC
84
82
82
84
84
F8
80
ENDCHAR
STARTCHAR 00DF
ENCODING 223
SWIDTH 540 0
DWIDTH 9 0
BBX 8 12 1 1
BITMAP
F8
84
88
88
88
88
88
84
82
81
82
BE
ENDCHAR
STARTCHAR 00E0
ENCODING 224
SWIDTH 480 0
DWIDTH 8 0
BBX 6 12 1 0
BITMAP
20
10
00
78
84
04
04
7C
84
84
84
F8
ENDCHAR
STARTCHAR 00E1
ENCODING 225
SWIDTH 480 0
DWIDTH 8 0
BBX 6 12 1 0
BITMAP
08
10
00
78
84
04
04
7C
84
84
84
F8
ENDCHAR
STARTCHAR 00E2
ENCODING 226
SWIDTH 480 0
DWIDTH 8 0
BBX 6 12 1 0
BITMAP
38
04
00
78
84
04
04
7C
84
84
84
F8
ENDCHAR
STARTCHAR 00E3
ENCODING 227
SWIDTH 480 0
DWIDTH 8 0
BBX 6 12 1 0
BITMAP
70
08
00
78
84
04
04
7C
84
84
84
F8
ENDCHAR
STARTCHAR 00E4
ENCODING 228
SWIDTH 480 0
DWIDTH 8 0
BBX 6 12 1 0
BITMAP
44
00
00
78
84
04
04
7C
84
84
84
F8
ENDCHAR
STARTCHAR 00E5
ENCODING 229
SWIDTH 480 0
DWIDTH 8 0
BBX 6 13 1 0
BITMAP
10
28
28
10
78
84
04
04
7C
84
84
84
F8
ENDCHAR
STARTCHAR 00E6
ENCODING 230
SWIDTH 840 0
DWIDTH 14 0
BBX 12 9 1 0
BITMAP
78E0
8710
0410
0400
7DF0
8400
8400
8600
F9F0
ENDCHAR
STARTCHAR 00E7
ENCODING 231
SWIDTH 480 0
DWIDTH 8 0
BBX 7 13 1 -4
BITMAP
38
C4
82
80
80
80
82
84
44
38
08
08
10
ENDCHAR
STARTCHAR 00E8
ENCODING 232
SWIDTH 480 0
DWIDTH 8 0
BBX 7 12 1 0
BITMAP
20
10
00
38
C4
82
82
FC
80
80
80
7C
ENDCHAR
STARTCHAR 00E9
ENCODING 233
SWIDTH 480 0
DWIDTH 8 0
BBX 7 12 1 0
BITMAP
08
10
00
38
C4
82
82
FC
80
80
80
7C
ENDCHAR
STARTCHAR 00EA
ENCODING 234
SWIDTH 480 0
DWIDTH 8 0
BBX 7 12 1 0
BITMAP
38
04
00
38
C4
82
82
FC
80
80
80
7C
ENDCHAR
STARTCHAR 00EB
ENCODING 235
SWIDTH 480 0
DWIDTH 8 0
BBX 7 12 1 0
BITMAP
44
00
00
38
C4
82
82
FC
80
80
80
7C
ENDCHAR
STARTCHAR 00EC
ENCODING 236
SWIDTH 180 0
DWIDTH 3 0
BBX 2 12 0 0
BITMAP
80
40
00
40
40
40
40
40
40
40
40
40
ENDCHAR
STARTCHAR 00ED
ENCODING 237
SWIDTH 180 0
DWIDTH 3 0
BBX 2 12 1 0
BITMAP
40
00
00
80
80
80
80
80
80
80
80
80
ENDCHAR
STARTCHAR 00EE
ENCODING 238
SWIDTH 180 0
DWIDTH 3 0
BBX 3 12 0 0
BITMAP
40
A0
00
40
40
40
40
40
40
40
40
40
ENDCHAR
STARTCHAR 00EF
ENCODING 239
SWIDTH 180 0
DWIDTH 3 0
BBX 5 12 -1 0
BITMAP
88
00
00
20
20
20
20
20
20
20
20
20
ENDCHAR
STARTCHAR 00F0
ENCODING 240
SWIDTH 540 0
DWIDTH 9 0
BBX 7 13 1 0
BITMAP
20
1A
0C
14
02
3A
46
82
82
82
82
42
3C
ENDCHAR
STARTCHAR 00F1
ENCODING 241
SWIDTH 540 0
DWIDTH 9 0
BBX 7 12 1 0
BITMAP
70
08
00
BC
C4
82
82
82
82
82
82
82
ENDCHAR
STARTCHAR 00F2
ENCODING 242
SWIDTH 540 0
DWIDTH 9 0
BBX 7 12 1 0
BITMAP
20
10
00
38
C6
82
82
82
82
82
82
7C
ENDCHAR
STARTCHAR 00F3
ENCODING 243
SWIDTH 540 0
DWIDTH 9 0
BBX 7 12 1 0
BITMAP
08
10
00
38
C6
82
82
82
82
82
82
7C
ENDCHAR
STARTCHAR 00F4
ENCODING 244
SWIDTH 540 0
DWIDTH 9 0
BBX 7 12 1 0
BITMAP
38
04
00
38
C6
82
82
82
82
82
82
7C
ENDCHAR
STARTCHAR 00F5
ENCODING 245
SWIDTH 540 0
DWIDTH 9 0
BBX 7 12 1 0
BITMAP
70
08
00
38
C6
82
82
82
82
82
82
7C
ENDCHAR
STARTCHAR 00F6
ENCODING 246
SWIDTH 540 0
DWIDTH 9 0
BBX 7 12 1 0
BITMAP
44
00
00
38
C6
82
82
82
82
82
82
7C
ENDCHAR
STARTCHAR 00F7
ENCODING 247
SWIDTH 540 0
DWIDTH 9 0
BBX 6 7 2 2
BITMAP
20
00
00
FC
00
00
20
ENDCHAR
STARTCHAR 00F8
ENCODING 248
SWIDTH 540 0
DWIDTH 9 0
BBX 7 10 1 0
BITMAP
3C
CA
8A
92
92
A2
A2
C2
44
78
ENDCHAR
STARTCHAR 00F9
ENCODING 249
SWIDTH 540 0
DWIDTH 9 0
BBX 7 13 1 0
BITMAP
20
20
10
00
82
82
82
82
82
82
82
82
7E
ENDCHAR
STARTCHAR 00FA
ENCODING 250
SWIDTH 540 0
DWIDTH 9 0
BBX 7 12 1 1
BITMAP
08
00
00
82
82
82
82
82
82
82
82
7E
ENDCHAR
STARTCHAR 00FB
ENCODING 251
SWIDTH 540 0
DWIDTH 9 0
BBX 7 12 1 0
BITMAP
38
04
00
82
82
82
82
82
82
82
82
7E
ENDCHAR
STARTCHAR 00FC
ENCODING 252
SWIDTH 540 0
DWIDTH 9 0
BBX 7 12 1 0
BITMAP
44
00
00
82
82
82
82
82
82
82
82
7E
ENDCHAR
STARTCHAR 00FD
ENCODING 253
SWIDTH 420 0
DWIDTH 7 0
BBX 8 17 0 -4
BITMAP
04
08
08
00
81
82
42
44
24
24
28
18
08
10
10
20
40
ENDCHAR
STARTCHAR 00FE
ENCODING 254
SWIDTH 540 0
DWIDTH 9 0
BBX 7 16 1 -3
BITMAP
80
80
80
80
B8
C4
82
82
82
82
82
82
E4
98
80
80
ENDCHAR
STARTCHAR 00FF
ENCODING 255
SWIDTH 420 0
DWIDTH 7 0
BBX 8 16 0 -4
BITMAP
20
00
00
81
82
42
44
24
24
28
18
08
10
10
20
40
ENDCHAR
STARTCHAR 0100
ENCODING 256
SWIDTH 540 0
DWIDTH 9 0
BBX 9 14 0 0
BITMAP
0C00
0000
0000
0C00
1400
1200
1200
2200
2100
4100
5F00
4080
8080
8000
ENDCHAR
STARTCHAR 0101
ENCODING 257
SWIDTH 480 0
DWIDTH 8 0
BBX 6 12 1 0
BITMAP
7C
00
00
78
84
04
04
7C
84
84
84
F8
ENDCHAR
STARTCHAR 0102
ENCODING 258
SWIDTH 540 0
DWIDTH 9 0
BBX 9 14 0 1
BITMAP
1200
0C00
0000
0C00
1400
1200
1200
2200
2100
4100
5F00
4080
8080
8000
ENDCHAR
STARTCHAR 0103
ENCODING 259
SWIDTH 480 0
DWIDTH 8 0
BBX 6 12 1 0
BITMAP
04
38
00
78
84
04
04
7C
84
84
84
F8
ENDCHAR
STARTCHAR 0104
ENCODING 260
SWIDTH 540 0
DWIDTH 9 0
BBX 9 14 0 -2
BITMAP
0C00
1400
1200
1200
2200
2100
4100
5F00
4080
8080
8000
0080
0100
0180
ENDCHAR
STARTCHAR 0105
ENCODING 261
SWIDTH 480 0
DWIDTH 8 0
BBX 6 12 1 -3
BITMAP
78
84
04
04
7C
84
84
84
88
74
08
0C
ENDCHAR
STARTCHAR 0106
ENCODING 262
SWIDTH 600 0
DWIDTH 10 0
BBX 9 15 1 0
BITMAP
0400
0800
0000
3E00
4100
8100
8080
8000
8000
8000
8000
8080
8100
4100
3E00
ENDCHAR
STARTCHAR 0107
ENCODING 263
SWIDTH 480 0
DWIDTH 8 0
BBX 7 12 1 0
BITMAP
18
10
00
38
C4
82
80
80
80
82
84
7C
ENDCHAR
STARTCHAR 0108
ENCODING 264
SWIDTH 600 0
DWIDTH 10 0
BBX 9 15 1 0
BITMAP
1800
0400
0000
3E00
4100
8100
8080
8000
8000
8000
8000
8080
8100
4100
3E00
ENDCHAR
STARTCHAR 0109
ENCODING 265
SWIDTH 480 0
DWIDTH 8 0
BBX 7 12 1 0
BITMAP
30
08
00
38
C4
82
80
80
80
82
84
7C
ENDCHAR
STARTCHAR 010A
ENCODING 266
SWIDTH 600 0
DWIDTH 10 0
BBX 9 15 1 0
BITMAP
0800
0000
0000
3E00
4100
8100
8080
8000
8000
8000
8000
8080
8100
4100
3E00
ENDCHAR
STARTCHAR 010B
ENCODING 267
SWIDTH 480 0
DWIDTH 8 0
BBX 7 12 1 0
BITMAP
10
00
00
38
C4
82
80
80
80
82
84
7C
ENDCHAR
STARTCHAR 010C
ENCODING 268
SWIDTH 600 0
DWIDTH 10 0
BBX 9 15 1 0
BITMAP
2400
1800
0000
3E00
4100
8100
8080
8000
8000
8000
8000
8080
8100
4100
3E00
ENDCHAR
STARTCHAR 010D
ENCODING 269
SWIDTH 480 0
DWIDTH 8 0
BBX 7 12 1 0
BITMAP
28
10
00
38
C4
82
80
80
80
82
84
7C
ENDCHAR
STARTCHAR 010E
ENCODING 270
SWIDTH 600 0
DWIDTH 10 0
BBX 8 15 2 0
BITMAP
48
50
20
F8
84
82
81
81
81
81
81
81
82
84
78
ENDCHAR
STARTCHAR 010F
ENCODING 271
SWIDTH 600 0
DWIDTH 10 0
BBX 9 13 1 0
BITMAP
0280
0280
0200
0200
3A00
C600
8200
8200
8200
8200
8200
8200
7E00
ENDCHAR
STARTCHAR 0110
ENCODING 272
SWIDTH 660 0
DWIDTH 11 0
BBX 9 12 1 0
BITMAP
7C00
8300
8100
8080
8080
8080
F080
8080
8080
8100
8100
3E00
ENDCHAR
STARTCHAR 0111
ENCODING 273
SWIDTH 540 0
DWIDTH 9 0
BBX 8 13 1 0
BITMAP
02
02
1F
02
3A
C6
82
82
82
82
82
82
7E
ENDCHAR
STARTCHAR 0112
ENCODING 274
SWIDTH 540 0
DWIDTH 9 0
BBX 7 14 2 0
BITMAP
30
00
FE
80
80
80
80
80
F8
80
80
80
80
7C
ENDCHAR
STARTCHAR 0113
ENCODING 275
SWIDTH 480 0
DWIDTH 8 0
BBX 7 12 1 0
BITMAP
7C
00
00
38
C4
82
82
FC
80
80
80
7C
ENDCHAR
STARTCHAR 0114
ENCODING 276
SWIDTH 540 0
DWIDTH 9 0
BBX 7 14 2 1
BITMAP
48
30
FE
80
80
80
80
80
F8
80
80
80
80
7C
ENDCHAR
STARTCHAR 0115
ENCODING 277
SWIDTH 480 0
DWIDTH 8 0
BBX 7 12 1 0
BITMAP
44
38
00
38
C4
82
82
FC
80
80
80
7C
ENDCHAR
STARTCHAR 0116
ENCODING 278
SWIDTH 540 0
DWIDTH 9 0
BBX 7 12 2 2
BITMAP
FE
80
80
80
80
80
F8
80
80
80
80
7C
ENDCHAR
STARTCHAR 0117
ENCODING 279
SWIDTH 480 0
DWIDTH 8 0
BBX 7 12 1 0
BITMAP
10
00
00
38
C4
82
82
FC
80
80
80
7C
ENDCHAR
STARTCHAR 0118
ENCODING 280
SWIDTH 540 0
DWIDTH 9 0
BBX 7 15 2 -3
BITMAP
FE
80
80
80
80
80
F8
80
80
80
80
00
7C
08
0C
ENDCHAR
STARTCHAR 0119
ENCODING 281
SWIDTH 480 0
DWIDTH 8 0
BBX 7 12 1 -3
BITMAP
38
C4
82
82
FC
80
80
80
44
38
10
0C
ENDCHAR
STARTCHAR 011A
ENCODING 282
SWIDTH 540 0
DWIDTH 9 0
BBX 7 15 2 0
BITMAP
48
30
00
FE
80
80
80
80
80
F8
80
80
80
80
7C
ENDCHAR
STARTCHAR 011B
ENCODING 283
SWIDTH 480 0
DWIDTH 8 0
BBX 7 12 1 0
BITMAP
28
10
00
38
C4
82
82
FC
80
80
80
7C
ENDCHAR
STARTCHAR 011C
ENCODING 284
SWIDTH 660 0
DWIDTH 11 0
BBX 9 15 1 0
BITMAP
0800
1400
0000
1E00
6100
8080
8000
8000
8000
8000
8380
8080
8080
4080
3F00
ENDCHAR
STARTCHAR 011D
ENCODING 285
SWIDTH 540 0
DWIDTH 9 0
BBX 7 16 1 -4
BITMAP
38
04
00
3A
C6
82
82
82
82
82
82
4E
32
04
44
38
ENDCHAR
STARTCHAR 011E
ENCODING 286
SWIDTH 660 0
DWIDTH 11 0
BBX 9 15 1 0
BITMAP
2200
1400
0800
1E00
6100
8080
8000
8000
8000
8000
8380
8080
8080
4080
3F00
ENDCHAR
STARTCHAR 011F
ENCODING 287
SWIDTH 540 0
DWIDTH 9 0
BBX 7 16 1 -4
BITMAP
44
38
00
3A
C6
82
82
82
82
82
82
4E
32
04
44
38
ENDCHAR
STARTCHAR 0120
ENCODING 288
SWIDTH 660 0
DWIDTH 11 0
BBX 9 15 1 0
BITMAP
0800
0000
0000
1E00
6100
8080
8000
8000
8000
8000
8380
8080
8080
4080
3F00
ENDCHAR
STARTCHAR 0121
ENCODING 289
SWIDTH 540 0
DWIDTH 9 0
BBX 7 16 1 -4
BITMAP
10
00
00
3A
C6
82
82
82
82
82
82
4E
32
04
44
38
ENDCHAR
STARTCHAR 0122
ENCODING 290
SWIDTH 660 0
DWIDTH 11 0
BBX 9 13 1 -3
BITMAP
1E00
6100
8080
8000
8000
8000
8000
8380
8080
8080
4080
3100
0E00
ENDCHAR
STARTCHAR 0123
ENCODING 291
SWIDTH 540 0
DWIDTH 9 0
BBX 7 16 1 -3
BITMAP
10
10
00
3A
C6
82
82
82
82
82
82
4E
32
04
44
38
ENDCHAR
STARTCHAR 0124
ENCODING 292
SWIDTH 660 0
DWIDTH 11 0
BBX 8 14 2 0
BITMAP
10
28
00
00
81
81
81
81
81
FF
81
81
81
81
ENDCHAR
STARTCHAR 0125
ENCODING 293
SWIDTH 540 0
DWIDTH 9 0
BBX 7 15 1 0
BITMAP
20
50
80
80
80
80
BC
C4
82
82
82
82
82
82
82
ENDCHAR
STARTCHAR 0126
ENCODING 294
SWIDTH 660 0
DWIDTH 11 0
BBX 11 12 0 0
BITMAP
4040
4040
4040
FFE0
4040
4040
5F40
4040
4040
4040
4040
4040
ENDCHAR
STARTCHAR 0127
ENCODING 295
SWIDTH 540 0
DWIDTH 9 0
BBX 8 11 0 1
BITMAP
40
F8
40
4E
31
41
41
41
41
41
41
ENDCHAR
STARTCHAR 0128
ENCODING 296
SWIDTH 240 0
DWIDTH 4 0
BBX 5 14 0 0
BITMAP
C8
30
00
00
40
40
40
40
40
40
40
40
40
40
ENDCHAR
STARTCHAR 0129
ENCODING 297
SWIDTH 180 0
DWIDTH 3 0
BBX 5 12 -1 0
BITMAP
60
98
00
20
20
20
20
20
20
20
20
20
ENDCHAR
STARTCHAR 012A
ENCODING 298
SWIDTH 240 0
DWIDTH 4 0
BBX 3 13 1 0
BITMAP
E0
00
00
80
80
80
80
80
80
80
80
80
80
ENDCHAR
STARTCHAR 012B
ENCODING 299
SWIDTH 180 0
DWIDTH 3 0
BBX 5 12 -1 0
BITMAP
F8
00
00
20
20
20
20
20
20
20
20
20
ENDCHAR
STARTCHAR 012C
ENCODING 300
SWIDTH 240 0
DWIDTH 4 0
BBX 4 13 0 1
BITMAP
90
60
00
40
40
40
40
40
40
40
40
40
40
ENDCHAR
STARTCHAR 012D
ENCODING 301
SWIDTH 180 0
DWIDTH 3 0
BBX 5 12 -1 0
BITMAP
88
50
20
20
20
20
20
20
20
20
20
20
ENDCHAR
STARTCHAR 012E
ENCODING 302
SWIDTH 240 0
DWIDTH 4 0
BBX 3 14 0 -2
BITMAP
40
40
40
40
40
40
40
40
40
40
00
40
80
E0
ENDCHAR
STARTCHAR 012F
ENCODING 303
SWIDTH 180 0
DWIDTH 3 0
BBX 2 15 0 -3
BITMAP
40
00
00
40
40
40
40
40
40
40
40
40
80
80
80
ENDCHAR
STARTCHAR 0130
ENCODING 304
SWIDTH 240 0
DWIDTH 4 0
BBX 1 10 2 3
BITMAP
80
80
80
80
80
80
80
80
80
80
ENDCHAR
STARTCHAR 0131
ENCODING 305
SWIDTH 180 0
DWIDTH 3 0
BBX 1 9 1 0
BITMAP
80
80
80
80
80
80
80
80
80
ENDCHAR
STARTCHAR 0132
ENCODING 306
SWIDTH 780 0
DWIDTH 13 0
BBX 10 12 2 0
BITMAP
0040
8040
8040
8040
8040
8040
8040
8040
8040
9040
9080
0F80
ENDCHAR
STARTCHAR 0133
ENCODING 307
SWIDTH 420 0
DWIDTH 7 0
BBX 5 16 1 -4
BITMAP
88
00
00
80
90
90
90
90
90
90
90
90
10
10
10
20
ENDCHAR
STARTCHAR 0134
ENCODING 308
SWIDTH 540 0
DWIDTH 9 0
BBX 8 15 1 0
BITMAP
02
05
00
02
02
02
02
02
02
02
02
02
04
84
78
ENDCHAR
STARTCHAR 0135
ENCODING 309
SWIDTH 180 0
DWIDTH 3 0
BBX 4 16 -1 -4
BITMAP
20
50
00
00
20
20
20
20
20
20
20
20
20
20
20
C0
ENDCHAR
STARTCHAR 0136
ENCODING 310
SWIDTH 600 0
DWIDTH 10 0
BBX 8 13 2 -2
BITMAP
86
88
90
A0
C0
A0
90
88
84
82
01
00
20
ENDCHAR
STARTCHAR 0137
ENCODING 311
SWIDTH 420 0
DWIDTH 7 0
BBX 6 13 1 -2
BITMAP
80
80
80
80
80
8C
90
A0
E0
90
88
88
84
ENDCHAR
STARTCHAR 0138
ENCODING 312
SWIDTH 480 0
DWIDTH 8 0
BBX 7 9 1 0
BITMAP
82
84
88
90
E0
90
88
84
82
ENDCHAR
STARTCHAR 0139
ENCODING 313
SWIDTH 480 0
DWIDTH 8 0
BBX 5 15 2 0
BITMAP
40
80
00
00
80
80
80
80
80
80
80
80
80
80
78
ENDCHAR
STARTCHAR 013A
ENCODING 314
SWIDTH 180 0
DWIDTH 3 0
BBX 2 15 1 1
BITMAP
40
80
80
80
80
80
80
80
80
80
80
80
80
80
80
ENDCHAR
STARTCHAR 013B
ENCODING 315
SWIDTH 480 0
DWIDTH 8 0
BBX 5 12 2 -2
BITMAP
80
80
80
80
80
80
80
80
80
80
00
78
ENDCHAR
STARTCHAR 013C
ENCODING 316
SWIDTH 180 0
DWIDTH 3 0
BBX 1 16 1 -3
BITMAP
80
80
80
80
80
80
80
80
80
80
80
80
80
00
00
80
ENDCHAR
STARTCHAR 013D
ENCODING 317
SWIDTH 480 0
DWIDTH 8 0
BBX 5 11 2 1
BITMAP
A0
A0
80
80
80
80
80
80
80
80
78
ENDCHAR
STARTCHAR 013E
ENCODING 318
SWIDTH 240 0
DWIDTH 4 0
BBX 3 13 1 0
BITMAP
80
A0
A0
80
80
80
80
80
80
80
80
80
80
ENDCHAR
STARTCHAR 013F
ENCODING 319
SWIDTH 480 0
DWIDTH 8 0
BBX 5 11 2 1
BITMAP
80
80
80
80
90
80
80
80
80
80
78
ENDCHAR
STARTCHAR 0140
ENCODING 320
SWIDTH 300 0
DWIDTH 5 0
BBX 3 13 1 0
BITMAP
80
80
80
80
80
80
A0
80
80
80
80
80
80
ENDCHAR
STARTCHAR 0141
ENCODING 321
SWIDTH 480 0
DWIDTH 8 0
BBX 7 11 0 1
BITMAP
40
40
40
40
30
C0
40
40
40
40
1E
ENDCHAR
STARTCHAR 0142
ENCODING 322
SWIDTH 240 0
DWIDTH 4 0
BBX 2 11 1 1
BITMAP
80
80
80
80
80
C0
80
80
80
80
80
ENDCHAR
STARTCHAR 0143
ENCODING 323
SWIDTH 660 0
DWIDTH 11 0
BBX 8 15 2 0
BITMAP
08
00
00
00
81
C1
C1
A1
91
91
89
85
83
83
01
ENDCHAR
STARTCHAR 0144
ENCODING 324
SWIDTH 540 0
DWIDTH 9 0
BBX 7 12 1 0
BITMAP
08
00
00
BC
C4
82
82
82
82
82
82
82
ENDCHAR
STARTCHAR 0145
ENCODING 325
SWIDTH 660 0
DWIDTH 11 0
BBX 8 14 2 -2
BITMAP
81
C1
C1
A1
91
91
89
85
83
83
01
00
00
10
ENDCHAR
STARTCHAR 0146
ENCODING 326
SWIDTH 540 0
DWIDTH 9 0
BBX 7 12 1 -3
BITMAP
BC
C4
82
82
82
82
82
82
82
00
10
10
ENDCHAR
STARTCHAR 0147
ENCODING 327
SWIDTH 660 0
DWIDTH 11 0
BBX 8 15 2 0
BITMAP
24
18
00
00
81
C1
C1
A1
91
91
89
85
83
83
01
ENDCHAR
STARTCHAR 0148
ENCODING 328
SWIDTH 540 0
DWIDTH 9 0
BBX 7 12 1 0
BITMAP
28
10
00
BC
C4
82
82
82
82
82
82
82
ENDCHAR
STARTCHAR 0149
ENCODING 329
SWIDTH 540 0
DWIDTH 9 0
BBX 8 13 0 0
BITMAP
80
80
00
00
5E
62
41
41
41
41
41
41
41
ENDCHAR
STARTCHAR 014A
ENCODING 330
SWIDTH 660 0
DWIDTH 11 0
BBX 8 15 2 -3
BITMAP
81
C1
C1
A1
91
91
89
85
83
83
01
01
01
01
06
ENDCHAR
STARTCHAR 014B
ENCODING 331
SWIDTH 540 0
DWIDTH 9 0
BBX 7 13 1 -4
BITMAP
BC
C4
82
82
82
82
82
82
82
02
02
04
08
ENDCHAR
STARTCHAR 014C
ENCODING 332
SWIDTH 660 0
DWIDTH 11 0
BBX 9 15 1 0
BITMAP
3E00
0000
0000
3E00
4100
8100
8080
8080
8080
8080
8080
8080
8080
4100
3E00
ENDCHAR
STARTCHAR 014D
ENCODING 333
SWIDTH 540 0
DWIDTH 9 0
BBX 7 12 1 0
BITMAP
7C
00
00
38
C6
82
82
82
82
82
82
7C
ENDCHAR
STARTCHAR 014E
ENCODING 334
SWIDTH 660 0
DWIDTH 11 0
BBX 9 15 1 0
BITMAP
2200
1400
0800
3E00
4100
8100
8080
8080
8080
8080
8080
8080
8080
4100
3E00
ENDCHAR
STARTCHAR 014F
ENCODING 335
SWIDTH 540 0
DWIDTH 9 0
BBX 7 12 1 0
BITMAP
44
38
00
38
C6
82
82
82
82
82
82
7C
ENDCHAR
STARTCHAR 0150
ENCODING 336
SWIDTH 660 0
DWIDTH 11 0
BBX 9 15 1 0
BITMAP
0A00
1400
0000
3E00
4100
8100
8080
8080
8080
8080
8080
8080
8080
4100
3E00
ENDCHAR
STARTCHAR 0151
ENCODING 337
SWIDTH 540 0
DWIDTH 9 0
BBX 7 12 1 0
BITMAP
14
28
00
38
C6
82
82
82
82
82
82
7C
ENDCHAR
STARTCHAR 0152
ENCODING 338
SWIDTH 900 0
DWIDTH 15 0
BBX 14 12 1 0
BITMAP
3FFC
C200
8200
8200
8200
8200
82F0
8200
8200
8200
8200
7EF8
ENDCHAR
STARTCHAR 0153
ENCODING 339
SWIDTH 900 0
DWIDTH 15 0
BBX 14 9 1 0
BITMAP
3878
C784
8104
8100
81FC
8100
8100
8300
7CF8
ENDCHAR
STARTCHAR 0154
ENCODING 340
SWIDTH 600 0
DWIDTH 10 0
BBX 8 15 2 0
BITMAP
10
10
00
F8
86
82
82
82
82
FC
88
84
84
82
01
ENDCHAR
STARTCHAR 0155
ENCODING 341
SWIDTH 300 0
DWIDTH 5 0
BBX 4 12 1 0
BITMAP
30
20
00
A0
C0
80
80
80
80
80
80
80
ENDCHAR
STARTCHAR 0156
ENCODING 342
SWIDTH 600 0
DWIDTH 10 0
BBX 8 12 2 -3
BITMAP
F8
86
82
82
82
82
FC
88
84
84
82
01
ENDCHAR
STARTCHAR 0157
ENCODING 343
SWIDTH 300 0
DWIDTH 5 0
BBX 3 12 1 -3
BITMAP
A0
C0
80
80
80
80
80
80
80
00
80
80
ENDCHAR
STARTCHAR 0158
ENCODING 344
SWIDTH 600 0
DWIDTH 10 0
BBX 8 15 2 0
BITMAP
48
30
00
F8
86
82
82
82
82
FC
88
84
84
82
01
ENDCHAR
STARTCHAR 0159
ENCODING 345
SWIDTH 300 0
DWIDTH 5 0
BBX 4 12 1 0
BITMAP
90
60
00
A0
C0
80
80
80
80
80
80
80
ENDCHAR
STARTCHAR 015A
ENCODING 346
SWIDTH 540 0
DWIDTH 9 0
BBX 8 15 1 0
BITMAP
08
08
00
3C
C2
81
80
80
60
1C
03
01
01
81
7E
ENDCHAR
STARTCHAR 015B
ENCODING 347
SWIDTH 480 0
DWIDTH 8 0
BBX 6 12 1 0
BITMAP
10
00
00
78
84
80
80
70
0C
04
84
78
ENDCHAR
STARTCHAR 015C
ENCODING 348
SWIDTH 540 0
DWIDTH 9 0
BBX 8 15 1 0
BITMAP
18
24
00
3C
C2
81
80
80
60
1C
03
01
01
81
7E
ENDCHAR
STARTCHAR 015D
ENCODING 349
SWIDTH 480 0
DWIDTH 8 0
BBX 6 12 1 0
BITMAP
30
48
00
78
84
80
80
70
0C
04
84
78
ENDCHAR
STARTCHAR 015E
ENCODING 350
SWIDTH 540 0
DWIDTH 9 0
BBX 8 16 1 -4
BITMAP
3C
C2
81
80
80
60
1C
03
01
01
81
62
1C
0C
04
18
ENDCHAR
STARTCHAR 015F
ENCODING 351
SWIDTH 480 0
DWIDTH 8 0
BBX 6 13 1 -4
BITMAP
78
84
80
80
70
0C
04
84
48
30
18
08
30
ENDCHAR
STARTCHAR 0160
ENCODING 352
SWIDTH 540 0
DWIDTH 9 0
BBX 8 15 1 0
BITMAP
24
18
00
3C
C2
81
80
80
60
1C
03
01
01
81
7E
ENDCHAR
STARTCHAR 0161
ENCODING 353
SWIDTH 480 0
DWIDTH 8 0
BBX 6 12 1 0
BITMAP
48
30
00
78
84
80
80
70
0C
04
84
78
ENDCHAR
STARTCHAR 0162
ENCODING 354
SWIDTH 540 0
DWIDTH 9 0
BBX 10 16 0 -4
BITMAP
FFC0
0800
0800
0800
0800
0800
0800
0800
0800
0800
0800
0000
0000
0400
0400
0800
ENDCHAR
STARTCHAR 0163
ENCODING 355
SWIDTH 300 0
DWIDTH 5 0
BBX 5 13 0 -3
BITMAP
40
F0
40
40
40
40
40
40
40
20
10
08
08
ENDCHAR
STARTCHAR 0164
ENCODING 356
SWIDTH 540 0
DWIDTH 9 0
BBX 10 14 0 0
BITMAP
1200
0C00
0000
FFC0
0800
0800
0800
0800
0800
0800
0800
0800
0800
0800
ENDCHAR
STARTCHAR 0165
ENCODING 357
SWIDTH 300 0
DWIDTH 5 0
BBX 5 13 0 0
BITMAP
08
08
00
40
F0
40
40
40
40
40
40
40
30
ENDCHAR
STARTCHAR 0166
ENCODING 358
SWIDTH 540 0
DWIDTH 9 0
BBX 10 11 0 0
BITMAP
FFC0
0800
0800
0800
0800
1C00
0800
0800
0800
0800
0800
ENDCHAR
STARTCHAR 0167
ENCODING 359
SWIDTH 300 0
DWIDTH 5 0
BBX 5 10 0 1
BITMAP
40
F0
40
40
F8
40
40
40
40
30
ENDCHAR
STARTCHAR 0168
ENCODING 360
SWIDTH 660 0
DWIDTH 11 0
BBX 9 15 1 0
BITMAP
1000
2E00
0000
8080
8080
8080
8080
8080
8080
8080
8080
8080
8100
4100
3E00
ENDCHAR
STARTCHAR 0169
ENCODING 361
SWIDTH 540 0
DWIDTH 9 0
BBX 7 12 1 0
BITMAP
70
08
00
82
82
82
82
82
82
82
82
7E
ENDCHAR
STARTCHAR 016A
ENCODING 362
SWIDTH 660 0
DWIDTH 11 0
BBX 9 14 1 0
BITMAP
1C00
0000
8080
8080
8080
8080
8080
8080
8080
8080
8080
8100
4100
3E00
ENDCHAR
STARTCHAR 016B
ENCODING 363
SWIDTH 540 0
DWIDTH 9 0
BBX 7 12 1 0
BITMAP
7C
00
00
82
82
82
82
82
82
82
82
7E
ENDCHAR
STARTCHAR 016C
ENCODING 364
SWIDTH 660 0
DWIDTH 11 0
BBX 9 15 1 0
BITMAP
2200
2200
1C00
8080
8080
8080
8080
8080
8080
8080
8080
8080
8100
4100
3E00
ENDCHAR
STARTCHAR 016D
ENCODING 365
SWIDTH 540 0
DWIDTH 9 0
BBX 7 12 1 0
BITMAP
04
38
00
82
82
82
82
82
82
82
82
7E
ENDCHAR
STARTCHAR 016E
ENCODING 366
SWIDTH 660 0
DWIDTH 11 0
BBX 9 15 1 0
BITMAP
1C00
1400
0800
8080
8080
8080
8080
8080
8080
8080
8080
8080
8100
4100
3E00
ENDCHAR
STARTCHAR 016F
ENCODING 367
SWIDTH 540 0
DWIDTH 9 0
BBX 7 13 1 0
BITMAP
10
28
28
10
82
82
82
82
82
82
82
82
7E
ENDCHAR
STARTCHAR 0170
ENCODING 368
SWIDTH 660 0
DWIDTH 11 0
BBX 9 15 1 0
BITMAP
0B00
1200
0000
8080
8080
8080
8080
8080
8080
8080
8080
8080
8100
4100
3E00
ENDCHAR
STARTCHAR 0171
ENCODING 369
SWIDTH 540 0
DWIDTH 9 0
BBX 7 13 1 0
BITMAP
0A
14
00
00
82
82
82
82
82
82
82
82
7E
ENDCHAR
STARTCHAR 0172
ENCODING 370
SWIDTH 660 0
DWIDTH 11 0
BBX 9 15 1 -3
BITMAP
8080
8080
8080
8080
8080
8080
8080
8080
8080
8100
4100
2200
1C00
0800
0600
ENDCHAR
STARTCHAR 0173
ENCODING 371
SWIDTH 540 0
DWIDTH 9 0
BBX 7 12 1 -3
BITMAP
82
82
82
82
82
82
82
82
46
3C
08
0C
ENDCHAR
STARTCHAR 0174
ENCODING 372
SWIDTH 900 0
DWIDTH 15 0
BBX 14 15 0 0
BITMAP
0100
0280
0000
0100
8304
4284
4284
4488
4488
2448
2448
2850
2830
1830
0010
ENDCHAR
STARTCHAR 0175
ENCODING 373
SWIDTH 720 0
DWIDTH 12 0
BBX 11 12 1 0
BITMAP
0C00
1200
0000
0420
8440
8C40
9240
9240
5280
6280
6180
2000
ENDCHAR
STARTCHAR 0176
ENCODING 374
SWIDTH 540 0
DWIDTH 9 0
BBX 9 14 0 0
BITMAP
0800
1400
0200
8000
4080
4100
2100
2200
1400
0C00
0800
0800
0800
0800
ENDCHAR
STARTCHAR 0177
ENCODING 375
SWIDTH 420 0
DWIDTH 7 0
BBX 8 16 0 -4
BITMAP
18
24
00
81
82
42
44
24
24
28
18
08
10
10
20
40
ENDCHAR
STARTCHAR 0178
ENCODING 376
SWIDTH 540 0
DWIDTH 9 0
BBX 9 11 0 3
BITMAP
8000
4080
4100
2100
2200
1400
0C00
0800
0800
0800
0800
ENDCHAR
STARTCHAR 0179
ENCODING 377
SWIDTH 540 0
DWIDTH 9 0
BBX 8 15 1 0
BITMAP
08
08
00
FF
02
02
04
08
10
10
20
40
40
80
FE
ENDCHAR
STARTCHAR 017A
ENCODING 378
SWIDTH 420 0
DWIDTH 7 0
BBX 6 13 1 0
BITMAP
08
10
00
00
FC
08
08
10
20
20
40
80
FC
ENDCHAR
STARTCHAR 017B
ENCODING 379
SWIDTH 540 0
DWIDTH 9 0
BBX 8 12 1 2
BITMAP
FF
02
02
04
08
10
10
20
40
40
80
FE
ENDCHAR
STARTCHAR 017C
ENCODING 380
SWIDTH 420 0
DWIDTH 7 0
BBX 6 12 1 0
BITMAP
10
00
00
FC
08
08
10
20
20
40
80
FC
ENDCHAR
STARTCHAR 017D
ENCODING 381
SWIDTH 540 0
DWIDTH 9 0
BBX 8 15 1 0
BITMAP
24
18
00
FF
02
02
04
08
10
10
20
40
40
80
FE
ENDCHAR
STARTCHAR 017E
ENCODING 382
SWIDTH 420 0
DWIDTH 7 0
BBX 6 12 1 0
BITMAP
48
30
00
FC
08
08
10
20
20
40
80
FC
ENDCHAR
STARTCHAR 017F
ENCODING 383
SWIDTH 180 0
DWIDTH 3 0
BBX 4 13 1 0
BITMAP
30
C0
80
80
80
80
80
80
80
80
80
80
80
ENDCHAR
STARTCHAR 018F
ENCODING 399
SWIDTH 660 0
DWIDTH 11 0
BBX 10 12 1 0
BITMAP
3E00
4180
0080
0040
0040
0040
FFC0
8040
8040
8080
4080
3F00
ENDCHAR
STARTCHAR 0192
ENCODING 402
SWIDTH 300 0
DWIDTH 5 0
BBX 5 17 0 -4
BITMAP
18
20
20
20
78
20
20
20
20
20
20
20
20
20
40
40
80
ENDCHAR
STARTCHAR 01A0
ENCODING 416
SWIDTH 660 0
DWIDTH 11 0
BBX 11 13 1 0
BITMAP
0020
1E20
6140
8080
8080
8080
8080
8080
8080
8080
8080
4100
3E00
ENDCHAR
STARTCHAR 01A1
ENCODING 417
SWIDTH 540 0
DWIDTH 9 0
BBX 8 9 1 1
BITMAP
39
C6
82
82
82
82
82
82
7C
ENDCHAR
STARTCHAR 01AF
ENCODING 431
SWIDTH 660 0
DWIDTH 11 0
BBX 11 12 1 1
BITMAP
80A0
80C0
8080
8080
8080
8080
8080
8080
8080
8100
4100
3E00
ENDCHAR
STARTCHAR 01B0
ENCODING 432
SWIDTH 540 0
DWIDTH 9 0
BBX 9 10 1 0
BITMAP
0080
8300
8300
8200
8200
8200
8200
8200
8200
7E00
ENDCHAR
STARTCHAR 01F0
ENCODING 496
SWIDTH 180 0
DWIDTH 3 0
BBX 4 16 -1 -4
BITMAP
40
50
20
00
20
20
20
20
20
20
20
20
20
20
20
C0
ENDCHAR
STARTCHAR 01FA
ENCODING 506
SWIDTH 540 0
DWIDTH 9 0
BBX 9 16 0 0
BITMAP
0200
0400
0C00
1400
0C00
0C00
1400
1200
1200
2200
2100
4100
5F00
4080
8080
8000
ENDCHAR
STARTCHAR 01FB
ENCODING 507
SWIDTH 480 0
DWIDTH 8 0
BBX 6 13 1 0
BITMAP
08
00
38
28
78
84
04
04
7C
84
84
84
F8
ENDCHAR
STARTCHAR 01FC
ENCODING 508
SWIDTH 840 0
DWIDTH 14 0
BBX 14 15 0 0
BITMAP
0080
0000
0000
01FC
0300
0300
0500
0900
0900
1170
1080
1F80
6080
4080
80F8
ENDCHAR
STARTCHAR 01FD
ENCODING 509
SWIDTH 840 0
DWIDTH 14 0
BBX 12 12 1 0
BITMAP
0200
0000
0000
78E0
8710
0410
0400
7DF0
8400
8400
8600
F9F0
ENDCHAR
STARTCHAR 01FE
ENCODING 510
SWIDTH 660 0
DWIDTH 11 0
BBX 9 16 1 0
BITMAP
0400
0000
0000
3E80
4100
8300
8280
8480
8880
8880
9080
9080
A080
4100
6200
1C00
ENDCHAR
STARTCHAR 01FF
ENCODING 511
SWIDTH 540 0
DWIDTH 9 0
BBX 7 13 1 -1
BITMAP
10
00
00
3C
CA
8A
92
92
A2
A2
C2
44
78
ENDCHAR
STARTCHAR 0218
ENCODING 536
SWIDTH 540 0
DWIDTH 9 0
BBX 8 13 1 -3
BITMAP
3C
C2
81
80
80
60
1C
03
01
01
81
62
1C
ENDCHAR
STARTCHAR 0219
ENCODING 537
SWIDTH 480 0
DWIDTH 8 0
BBX 6 10 1 -3
BITMAP
78
84
80
80
70
0C
04
84
48
30
ENDCHAR
STARTCHAR 021A
ENCODING 538
SWIDTH 540 0
DWIDTH 9 0
BBX 10 11 0 -3
BITMAP
FFC0
0800
0800
0800
0800
0800
0800
0800
0800
0800
0800
ENDCHAR
STARTCHAR 021B
ENCODING 539
SWIDTH 300 0
DWIDTH 5 0
BBX 4 12 0 -2
BITMAP
40
F0
40
40
40
40
40
40
40
20
10
10
ENDCHAR
STARTCHAR 0237
ENCODING 567
SWIDTH 180 0
DWIDTH 3 0
BBX 3 12 -1 -3
BITMAP
20
20
20
20
20
20
20
20
20
20
20
C0
ENDCHAR
STARTCHAR 0259
ENCODING 601
SWIDTH 480 0
DWIDTH 8 0
BBX 7 9 1 0
BITMAP
78
04
04
02
02
FA
84
84
78
ENDCHAR
STARTCHAR 02BC
ENCODING 700
SWIDTH 120 0
DWIDTH 2 0
BBX 1 3 1 9
BITMAP
80
80
80
ENDCHAR
STARTCHAR 02C6
ENCODING 710
SWIDTH 360 0
DWIDTH 6 0
BBX 4 2 1 10
BITMAP
60
90
ENDCHAR
STARTCHAR 02C7
ENCODING 711
SWIDTH 360 0
DWIDTH 6 0
BBX 4 2 1 10
BITMAP
90
60
ENDCHAR
STARTCHAR 02C9
ENCODING 713
SWIDTH 360 0
DWIDTH 6 0
BBX 5 1 1 11
BITMAP
F8
ENDCHAR
STARTCHAR 02D8
ENCODING 728
SWIDTH 360 0
DWIDTH 6 0
BBX 5 2 1 10
BITMAP
88
70
ENDCHAR
STARTCHAR 02D9
ENCODING 729
SWIDTH 180 0
DWIDTH 3 0
BBX 1 1 1 11
BITMAP
80
ENDCHAR
STARTCHAR 02DA
ENCODING 730
SWIDTH 240 0
DWIDTH 4 0
BBX 3 3 1 10
BITMAP
40
A0
E0
ENDCHAR
STARTCHAR 02DB
ENCODING 731
SWIDTH 180 0
DWIDTH 3 0
BBX 1 3 1 -3
BITMAP
80
80
80
ENDCHAR
STARTCHAR 02DC
ENCODING 732
SWIDTH 360 0
DWIDTH 6 0
BBX 5 2 1 10
BITMAP
C8
30
ENDCHAR
STARTCHAR 02DD
ENCODING 733
SWIDTH 360 0
DWIDTH 6 0
BBX 4 2 2 10
BITMAP
50
A0
ENDCHAR
STARTCHAR 02F3
ENCODING 755
SWIDTH 300 0
DWIDTH 5 0
BBX 2 2 2 -3
BITMAP
C0
80
ENDCHAR
STARTCHAR 0300
ENCODING 768
SWIDTH 0 0
DWIDTH 0 0
BBX 2 2 -6 11
BITMAP
80
40
ENDCHAR
STARTCHAR 0301
ENCODING 769
SWIDTH 0 0
DWIDTH 0 0
BBX 2 2 -5 11
BITMAP
40
80
ENDCHAR
STARTCHAR 0303
ENCODING 771
SWIDTH 0 0
DWIDTH 0 0
BBX 5 2 -7 10
BITMAP
60
98
ENDCHAR
STARTCHAR 0309
ENCODING 777
SWIDTH 0 0
DWIDTH 0 0
BBX 2 3 -5 10
BITMAP
40
40
80
ENDCHAR
STARTCHAR 030F
ENCODING 783
SWIDTH 0 0
DWIDTH 0 0
BBX 4 2 -7 10
BITMAP
A0
50
ENDCHAR
STARTCHAR 0323
ENCODING 803
SWIDTH 0 0
DWIDTH 0 0
BBX 1 1 -5 -2
BITMAP
80
ENDCHAR
STARTCHAR 0384
ENCODING 900
SWIDTH 240 0
DWIDTH 4 0
BBX 1 2 2 11
BITMAP
80
80
ENDCHAR
STARTCHAR 0385
ENCODING 901
SWIDTH 420 0
DWIDTH 7 0
BBX 3 2 3 11
BITMAP
80
20
ENDCHAR
STARTCHAR 0386
ENCODING 902
SWIDTH 540 0
DWIDTH 9 0
BBX 9 13 0 0
BITMAP
2000
0000
0C00
1400
1200
1200
2200
2100
4100
5F00
4080
8080
8000
ENDCHAR
STARTCHAR 0387
ENCODING 903
SWIDTH 180 0
DWIDTH 3 0
BBX 0 0 1 5
BITMAP
ENDCHAR
STARTCHAR 0388
ENCODING 904
SWIDTH 600 0
DWIDTH 10 0
BBX 10 13 0 0
BITMAP
8000
3FC0
2000
2000
2000
2000
2000
2F00
2000
2000
2000
2000
2F80
ENDCHAR
STARTCHAR 0389
ENCODING 905
SWIDTH 720 0
DWIDTH 12 0
BBX 11 13 0 0
BITMAP
8000
2020
2020
2020
2020
2020
2020
2FE0
2020
2020
2020
2020
2020
ENDCHAR
STARTCHAR 038A
ENCODING 906
SWIDTH 300 0
DWIDTH 5 0
BBX 3 12 0 0
BITMAP
80
00
20
20
20
20
20
20
20
20
20
20
ENDCHAR
STARTCHAR 038C
ENCODING 908
SWIDTH 660 0
DWIDTH 11 0
BBX 9 13 1 0
BITMAP
8000
1E00
6100
8080
8080
8080
8080
8080
8080
8080
8080
4100
3E00
ENDCHAR
STARTCHAR 038E
ENCODING 910
SWIDTH 600 0
DWIDTH 10 0
BBX 10 12 0 0
BITMAP
8000
4000
4040
2080
1100
1100
0A00
0A00
0400
0400
0400
0400
ENDCHAR
STARTCHAR 038F
ENCODING 911
SWIDTH 600 0
DWIDTH 10 0
BBX 9 13 1 0
BITMAP
8000
3C00
4300
8100
8080
8080
8080
8080
8080
8100
4100
4200
7700
ENDCHAR
STARTCHAR 0390
ENCODING 912
SWIDTH 240 0
DWIDTH 4 0
BBX 5 13 -1 0
BITMAP
20
A8
00
00
20
20
20
20
20
20
20
20
10
ENDCHAR
STARTCHAR 0391
ENCODING 913
SWIDTH 540 0
DWIDTH 9 0
BBX 9 11 0 1
BITMAP
0C00
1400
1200
1200
2200
2100
4100
5F00
4080
8080
8000
ENDCHAR
STARTCHAR 0392
ENCODING 914
SWIDTH 600 0
DWIDTH 10 0
BBX 7 12 2 0
BITMAP
F8
84
82
82
84
88
F4
82
82
82
82
7C
ENDCHAR
STARTCHAR 0393
ENCODING 915
SWIDTH 540 0
DWIDTH 9 0
BBX 7 11 2 0
BITMAP
FE
80
80
80
80
80
80
80
80
80
80
ENDCHAR
STARTCHAR 0394
ENCODING 916
SWIDTH 660 0
DWIDTH 11 0
BBX 10 12 1 0
BITMAP
0800
1400
1400
1400
2200
2200
4100
4100
8080
8080
8080
7FC0
ENDCHAR
STARTCHAR 0395
ENCODING 917
SWIDTH 540 0
DWIDTH 9 0
BBX 7 12 2 0
BITMAP
FE
80
80
80
80
80
F8
80
80
80
80
7C
ENDCHAR
STARTCHAR 0396
ENCODING 918
SWIDTH 540 0
DWIDTH 9 0
BBX 8 12 1 0
BITMAP
FF
02
02
04
08
10
10
20
40
40
80
FE
ENDCHAR
STARTCHAR 0397
ENCODING 919
SWIDTH 660 0
DWIDTH 11 0
BBX 8 10 2 1
BITMAP
81
81
81
81
81
FF
81
81
81
81
ENDCHAR
STARTCHAR 0398
ENCODING 920
SWIDTH 660 0
DWIDTH 11 0
BBX 9 12 1 0
BITMAP
3E00
4100
8100
8080
8080
8080
9C80
8080
8080
8080
4100
3E00
ENDCHAR
STARTCHAR 0399
ENCODING 921
SWIDTH 240 0
DWIDTH 4 0
BBX 1 10 2 1
BITMAP
80
80
80
80
80
80
80
80
80
80
ENDCHAR
STARTCHAR 039A
ENCODING 922
SWIDTH 600 0
DWIDTH 10 0
BBX 8 11 2 1
BITMAP
86
88
90
A0
C0
A0
90
88
84
82
01
ENDCHAR
STARTCHAR 039B
ENCODING 923
SWIDTH 600 0
DWIDTH 10 0
BBX 9 12 1 0
BITMAP
0800
1800
1800
2400
2400
2200
4200
4200
8100
8100
8100
0080
ENDCHAR
STARTCHAR 039C
ENCODING 924
SWIDTH 840 0
DWIDTH 14 0
BBX 11 12 2 0
BITMAP
0020
8060
80A0
C0A0
C0A0
A120
A120
A220
9220
9420
8C20
0420
ENDCHAR
STARTCHAR 039D
ENCODING 925
SWIDTH 660 0
DWIDTH 11 0
BBX 8 11 2 1
BITMAP
81
C1
C1
A1
91
91
89
85
83
83
01
ENDCHAR
STARTCHAR 039E
ENCODING 926
SWIDTH 540 0
DWIDTH 9 0
BBX 7 12 1 0
BITMAP
FE
00
00
00
00
00
38
00
00
00
00
7C
ENDCHAR
STARTCHAR 039F
ENCODING 927
SWIDTH 660 0
DWIDTH 11 0
BBX 9 12 1 0
BITMAP
3E00
4100
8100
8080
8080
8080
8080
8080
8080
8080
4100
3E00
ENDCHAR
STARTCHAR 03A0
ENCODING 928
SWIDTH 660 0
DWIDTH 11 0
BBX 8 11 2 0
BITMAP
FF
81
81
81
81
81
81
81
81
81
81
ENDCHAR
STARTCHAR 03A1
ENCODING 929
SWIDTH 600 0
DWIDTH 10 0
BBX 7 11 2 0
BITMAP
F8
86
82
82
82
82
8C
F0
80
80
80
ENDCHAR
STARTCHAR 03A3
ENCODING 931
SWIDTH 540 0
DWIDTH 9 0
BBX 8 12 0 0
BITMAP
FF
40
20
10
08
08
08
10
20
20
40
BF
ENDCHAR
STARTCHAR 03A4
ENCODING 932
SWIDTH 540 0
DWIDTH 9 0
BBX 10 11 0 0
BITMAP
FFC0
0800
0800
0800
0800
0800
0800
0800
0800
0800
0800
ENDCHAR
STARTCHAR 03A5
ENCODING 933
SWIDTH 540 0
DWIDTH 9 0
BBX 9 11 0 0
BITMAP
8000
4080
4100
2100
2200
1400
0C00
0800
0800
0800
0800
ENDCHAR
STARTCHAR 03A6
ENCODING 934
SWIDTH 660 0
DWIDTH 11 0
BBX 10 10 1 1
BITMAP
0800
3F00
C880
8840
8840
8840
8840
8880
6900
1E00
ENDCHAR
STARTCHAR 03A7
ENCODING 935
SWIDTH 540 0
DWIDTH 9 0
BBX 9 11 0 1
BITMAP
4180
2100
2200
1400
0C00
0C00
1400
2200
2100
4100
8080
ENDCHAR
STARTCHAR 03A8
ENCODING 936
SWIDTH 660 0
DWIDTH 11 0
BBX 9 11 1 0
BITMAP
8000
8880
8880
8880
8880
8880
8880
4900
3E00
0800
0800
ENDCHAR
STARTCHAR 03A9
ENCODING 937
SWIDTH 600 0
DWIDTH 10 0
BBX 9 12 1 0
BITMAP
3C00
4200
8100
8100
8080
8080
8080
8100
8100
8100
4200
7700
ENDCHAR
STARTCHAR 03AA
ENCODING 938
SWIDTH 240 0
DWIDTH 4 0
BBX 2 14 0 0
BITMAP
80
00
00
00
40
40
40
40
40
40
40
40
40
40
ENDCHAR
STARTCHAR 03AB
ENCODING 939
SWIDTH 540 0
DWIDTH 9 0
BBX 9 11 0 3
BITMAP
8000
4080
4100
2100
2200
1400
0C00
0800
0800
0800
0800
ENDCHAR
STARTCHAR 03AC
ENCODING 940
SWIDTH 540 0
DWIDTH 9 0
BBX 7 12 1 0
BITMAP
08
00
00
3A
C6
82
82
82
82
82
82
7E
ENDCHAR
STARTCHAR 03AD
ENCODING 941
SWIDTH 540 0
DWIDTH 9 0
BBX 7 11 1 1
BITMAP
10
00
7C
82
80
80
78
C0
80
82
7C
ENDCHAR
STARTCHAR 03AE
ENCODING 942
SWIDTH 540 0
DWIDTH 9 0
BBX 7 12 1 0
BITMAP
BC
C4
82
82
82
82
82
82
82
02
02
02
ENDCHAR
STARTCHAR 03AF
ENCODING 943
SWIDTH 240 0
DWIDTH 4 0
BBX 2 9 1 3
BITMAP
80
80
80
80
80
80
80
80
40
ENDCHAR
STARTCHAR 03B0
ENCODING 944
SWIDTH 480 0
DWIDTH 8 0
BBX 7 13 1 0
BITMAP
10
40
00
00
84
84
84
82
82
82
84
84
78
ENDCHAR
STARTCHAR 03B1
ENCODING 945
SWIDTH 540 0
DWIDTH 9 0
BBX 7 9 1 0
BITMAP
3A
C6
82
82
82
82
82
82
7E
ENDCHAR
STARTCHAR 03B2
ENCODING 946
SWIDTH 540 0
DWIDTH 9 0
BBX 7 14 2 -3
BITMAP
78
84
84
84
84
98
84
82
82
82
84
C4
B8
80
ENDCHAR
STARTCHAR 03B3
ENCODING 947
SWIDTH 420 0
DWIDTH 7 0
BBX 7 11 0 -3
BITMAP
80
82
42
44
24
24
28
18
00
10
10
ENDCHAR
STARTCHAR 03B4
ENCODING 948
SWIDTH 540 0
DWIDTH 9 0
BBX 7 13 1 0
BITMAP
38
C0
80
40
30
6C
82
82
82
82
82
82
7C
ENDCHAR
STARTCHAR 03B5
ENCODING 949
SWIDTH 540 0
DWIDTH 9 0
BBX 7 9 1 0
BITMAP
7C
82
80
80
78
C0
80
82
7C
ENDCHAR
STARTCHAR 03B6
ENCODING 950
SWIDTH 420 0
DWIDTH 7 0
BBX 7 15 0 -3
BITMAP
FE
04
04
08
10
20
20
40
40
40
40
38
06
02
02
ENDCHAR
STARTCHAR 03B7
ENCODING 951
SWIDTH 540 0
DWIDTH 9 0
BBX 7 12 1 -3
BITMAP
BC
C4
82
82
82
82
82
82
82
02
02
02
ENDCHAR
STARTCHAR 03B8
ENCODING 952
SWIDTH 540 0
DWIDTH 9 0
BBX 7 12 1 0
BITMAP
3C
42
82
82
82
82
FE
82
82
82
42
3C
ENDCHAR
STARTCHAR 03B9
ENCODING 953
SWIDTH 240 0
DWIDTH 4 0
BBX 2 9 1 0
BITMAP
80
80
80
80
80
80
80
80
40
ENDCHAR
STARTCHAR 03BA
ENCODING 954
SWIDTH 480 0
DWIDTH 8 0
BBX 7 9 1 0
BITMAP
82
84
88
90
E0
90
88
84
82
ENDCHAR
STARTCHAR 03BB
ENCODING 955
SWIDTH 540 0
DWIDTH 9 0
BBX 7 12 1 0
BITMAP
40
20
20
10
30
30
48
48
88
84
84
02
ENDCHAR
STARTCHAR 03BC
ENCODING 956
SWIDTH 540 0
DWIDTH 9 0
BBX 7 12 1 -3
BITMAP
82
82
82
82
82
82
82
82
CE
B0
80
80
ENDCHAR
STARTCHAR 03BD
ENCODING 957
SWIDTH 420 0
DWIDTH 7 0
BBX 8 8 0 0
BITMAP
81
82
42
44
24
24
28
18
ENDCHAR
STARTCHAR 03BE
ENCODING 958
SWIDTH 480 0
DWIDTH 8 0
BBX 7 15 1 -3
BITMAP
3E
40
80
80
60
38
C0
80
80
80
80
70
0C
04
04
ENDCHAR
STARTCHAR 03BF
ENCODING 959
SWIDTH 540 0
DWIDTH 9 0
BBX 7 9 1 0
BITMAP
38
C6
82
82
82
82
82
82
7C
ENDCHAR
STARTCHAR 03C0
ENCODING 960
SWIDTH 540 0
DWIDTH 9 0
BBX 9 9 0 0
BITMAP
FF80
2200
2200
2200
2200
2200
2200
2100
2180
ENDCHAR
STARTCHAR 03C1
ENCODING 961
SWIDTH 540 0
DWIDTH 9 0
BBX 7 12 1 -3
BITMAP
38
44
82
82
82
82
82
82
E4
98
80
80
ENDCHAR
STARTCHAR 03C2
ENCODING 962
SWIDTH 480 0
DWIDTH 8 0
BBX 7 12 1 -3
BITMAP
38
C4
82
80
80
80
80
40
20
1C
04
08
ENDCHAR
STARTCHAR 03C3
ENCODING 963
SWIDTH 540 0
DWIDTH 9 0
BBX 8 9 1 0
BITMAP
3F
C4
82
82
82
82
82
82
7C
ENDCHAR
STARTCHAR 03C4
ENCODING 964
SWIDTH 480 0
DWIDTH 8 0
BBX 7 9 1 0
BITMAP
FE
20
20
20
20
20
20
20
18
ENDCHAR
STARTCHAR 03C5
ENCODING 965
SWIDTH 480 0
DWIDTH 8 0
BBX 7 9 1 0
BITMAP
84
84
84
82
82
82
84
84
78
ENDCHAR
STARTCHAR 03C6
ENCODING 966
SWIDTH 660 0
DWIDTH 11 0
BBX 9 13 1 -4
BITMAP
0600
C900
8880
8880
8880
8880
8880
8900
6A00
1C00
0800
0800
0800
ENDCHAR
STARTCHAR 03C7
ENCODING 967
SWIDTH 480 0
DWIDTH 8 0
BBX 8 12 0 -3
BITMAP
C1
22
22
14
14
18
08
18
24
24
42
43
ENDCHAR
STARTCHAR 03C8
ENCODING 968
SWIDTH 660 0
DWIDTH 11 0
BBX 9 12 1 -3
BITMAP
8800
8880
8880
8880
8880
8880
8880
4900
2A00
1C00
0800
0800
ENDCHAR
STARTCHAR 03C9
ENCODING 969
SWIDTH 780 0
DWIDTH 13 0
BBX 12 9 1 0
BITMAP
4020
8020
8020
8020
8410
8410
8420
8620
79C0
ENDCHAR
STARTCHAR 03CA
ENCODING 970
SWIDTH 240 0
DWIDTH 4 0
BBX 5 12 -1 0
BITMAP
88
00
00
20
20
20
20
20
20
20
20
10
ENDCHAR
STARTCHAR 03CB
ENCODING 971
SWIDTH 480 0
DWIDTH 8 0
BBX 7 12 1 0
BITMAP
40
00
00
84
84
84
82
82
82
84
84
78
ENDCHAR
STARTCHAR 03CC
ENCODING 972
SWIDTH 540 0
DWIDTH 9 0
BBX 7 11 1 1
BITMAP
10
00
38
C6
82
82
82
82
82
82
7C
ENDCHAR
STARTCHAR 03CD
ENCODING 973
SWIDTH 480 0
DWIDTH 8 0
BBX 7 12 1 0
BITMAP
10
10
00
84
84
84
82
82
82
84
84
78
ENDCHAR
STARTCHAR 03CE
ENCODING 974
SWIDTH 780 0
DWIDTH 13 0
BBX 12 12 1 0
BITMAP
0200
0000
0000
4020
8020
8020
8020
8410
8410
8420
8620
79C0
ENDCHAR
STARTCHAR 03D1
ENCODING 977
SWIDTH 540 0
DWIDTH 9 0
BBX 7 12 1 0
BITMAP
3C
24
42
22
22
12
8E
82
82
82
84
7C
ENDCHAR
STARTCHAR 03D2
ENCODING 978
SWIDTH 540 0
DWIDTH 9 0
BBX 8 12 1 0
BITMAP
83
84
44
48
28
30
10
10
10
10
10
10
ENDCHAR
STARTCHAR 03D6
ENCODING 982
SWIDTH 780 0
DWIDTH 13 0
BBX 13 9 0 0
BITMAP
FFF8
4010
4010
8210
8210
8210
4210
4610
3DE0
ENDCHAR
STARTCHAR 0400
ENCODING 1024
SWIDTH 540 0
DWIDTH 9 0
BBX 7 15 2 0
BITMAP
40
20
00
FE
80
80
80
80
80
F8
80
80
80
80
7C
ENDCHAR
STARTCHAR 0401
ENCODING 1025
SWIDTH 540 0
DWIDTH 9 0
BBX 7 15 2 0
BITMAP
40
00
00
FE
80
80
80
80
80
F8
80
80
80
80
7C
ENDCHAR
STARTCHAR 0402
ENCODING 1026
SWIDTH 720 0
DWIDTH 12 0
BBX 11 12 1 0
BITMAP
FF80
1000
1000
1000
1000
1F80
1040
1040
1020
1040
1040
1080
ENDCHAR
STARTCHAR 0403
ENCODING 1027
SWIDTH 540 0
DWIDTH 9 0
BBX 7 14 2 0
BITMAP
10
10
00
FE
80
80
80
80
80
80
80
80
80
80
ENDCHAR
STARTCHAR 0404
ENCODING 1028
SWIDTH 600 0
DWIDTH 10 0
BBX 9 12 1 0
BITMAP
3E00
4100
8100
8080
8000
8000
F800
8000
8080
8100
4100
3E00
ENDCHAR
STARTCHAR 0405
ENCODING 1029
SWIDTH 540 0
DWIDTH 9 0
BBX 8 12 1 0
BITMAP
3C
C2
81
80
80
60
1C
03
01
01
81
7E
ENDCHAR
STARTCHAR 0406
ENCODING 1030
SWIDTH 240 0
DWIDTH 4 0
BBX 1 10 2 1
BITMAP
80
80
80
80
80
80
80
80
80
80
ENDCHAR
STARTCHAR 0407
ENCODING 1031
SWIDTH 240 0
DWIDTH 4 0
BBX 2 14 0 0
BITMAP
80
00
00
00
40
40
40
40
40
40
40
40
40
40
ENDCHAR
STARTCHAR 0408
ENCODING 1032
SWIDTH 540 0
DWIDTH 9 0
BBX 7 12 1 0
BITMAP
02
02
02
02
02
02
02
02
02
04
84
78
ENDCHAR
STARTCHAR 0409
ENCODING 1033
SWIDTH 1020 0
DWIDTH 17 0
BBX 15 12 1 0
BITMAP
1F00
2100
2100
2100
2100
20F0
210C
4102
4102
4102
4102
817C
ENDCHAR
STARTCHAR 040A
ENCODING 1034
SWIDTH 1020 0
DWIDTH 17 0
BBX 15 11 2 1
BITMAP
8100
8100
8100
8100
80F0
FF0C
8102
8102
8102
8104
0178
ENDCHAR
STARTCHAR 040B
ENCODING 1035
SWIDTH 780 0
DWIDTH 13 0
BBX 12 12 0 0
BITMAP
FF80
0800
0800
0800
0800
0B80
0C60
0810
0810
0810
0810
0810
ENDCHAR
STARTCHAR 040C
ENCODING 1036
SWIDTH 600 0
DWIDTH 10 0
BBX 8 14 2 0
BITMAP
10
00
00
86
88
90
A0
C0
A0
90
88
84
82
01
ENDCHAR
STARTCHAR 040D
ENCODING 1037
SWIDTH 660 0
DWIDTH 11 0
BBX 8 15 2 0
BITMAP
20
10
00
01
83
83
85
89
89
91
A1
C1
C1
81
80
ENDCHAR
STARTCHAR 040E
ENCODING 1038
SWIDTH 600 0
DWIDTH 10 0
BBX 10 15 0 0
BITMAP
0100
1200
0C00
8040
4080
4080
2100
2100
1200
1200
0C00
0400
0800
0800
1000
ENDCHAR
STARTCHAR 040F
ENCODING 1039
SWIDTH 660 0
DWIDTH 11 0
BBX 8 13 2 -2
BITMAP
81
81
81
81
81
81
81
81
81
81
81
7E
10
ENDCHAR
STARTCHAR 0410
ENCODING 1040
SWIDTH 540 0
DWIDTH 9 0
BBX 9 11 0 1
BITMAP
0C00
1400
1200
1200
2200
2100
4100
5F00
4080
8080
8000
ENDCHAR
STARTCHAR 0411
ENCODING 1041
SWIDTH 600 0
DWIDTH 10 0
BBX 7 12 2 0
BITMAP
FE
80
80
80
80
80
FC
82
82
82
84
F8
ENDCHAR
STARTCHAR 0412
ENCODING 1042
SWIDTH 600 0
DWIDTH 10 0
BBX 7 12 2 0
BITMAP
F8
84
82
82
84
88
F4
82
82
82
82
7C
ENDCHAR
STARTCHAR 0413
ENCODING 1043
SWIDTH 540 0
DWIDTH 9 0
BBX 7 11 2 0
BITMAP
FE
80
80
80
80
80
80
80
80
80
80
ENDCHAR
STARTCHAR 0414
ENCODING 1044
SWIDTH 660 0
DWIDTH 11 0
BBX 10 14 1 -3
BITMAP
1F80
2080
2080
2080
2080
2080
2080
2080
4080
4080
4080
8000
7F80
8040
ENDCHAR
STARTCHAR 0415
ENCODING 1045
SWIDTH 540 0
DWIDTH 9 0
BBX 7 12 2 0
BITMAP
FE
80
80
80
80
80
F8
80
80
80
80
7C
ENDCHAR
STARTCHAR 0416
ENCODING 1046
SWIDTH 840 0
DWIDTH 14 0
BBX 14 11 0 1
BITMAP
4208
2210
1220
1240
0A40
0EC0
1240
1220
2210
4208
8004
ENDCHAR
STARTCHAR 0417
ENCODING 1047
SWIDTH 540 0
DWIDTH 9 0
BBX 8 12 1 0
BITMAP
3C
C2
81
01
01
02
1E
01
01
01
81
7E
ENDCHAR
STARTCHAR 0418
ENCODING 1048
SWIDTH 660 0
DWIDTH 11 0
BBX 8 12 2 0
BITMAP
01
83
83
85
89
89
91
A1
C1
C1
81
80
ENDCHAR
STARTCHAR 0419
ENCODING 1049
SWIDTH 660 0
DWIDTH 11 0
BBX 8 14 2 1
BITMAP
24
18
01
83
83
85
89
89
91
A1
C1
C1
81
80
ENDCHAR
STARTCHAR 041A
ENCODING 1050
SWIDTH 600 0
DWIDTH 10 0
BBX 8 11 2 1
BITMAP
86
84
88
90
A0
E0
90
88
84
82
01
ENDCHAR
STARTCHAR 041B
ENCODING 1051
SWIDTH 660 0
DWIDTH 11 0
BBX 9 12 1 0
BITMAP
3F80
2080
2080
2080
2080
2080
4080
4080
4080
4080
4080
8000
ENDCHAR
STARTCHAR 041C
ENCODING 1052
SWIDTH 840 0
DWIDTH 14 0
BBX 11 12 2 0
BITMAP
0020
8060
80A0
C0A0
C0A0
A120
A120
A220
9220
9420
8C20
0420
ENDCHAR
STARTCHAR 041D
ENCODING 1053
SWIDTH 660 0
DWIDTH 11 0
BBX 8 10 2 1
BITMAP
81
81
81
81
81
FF
81
81
81
81
ENDCHAR
STARTCHAR 041E
ENCODING 1054
SWIDTH 660 0
DWIDTH 11 0
BBX 9 12 1 0
BITMAP
3E00
4100
8100
8080
8080
8080
8080
8080
8080
8080
4100
3E00
ENDCHAR
STARTCHAR 041F
ENCODING 1055
SWIDTH 660 0
DWIDTH 11 0
BBX 8 11 2 0
BITMAP
FF
81
81
81
81
81
81
81
81
81
81
ENDCHAR
STARTCHAR 0420
ENCODING 1056
SWIDTH 600 0
DWIDTH 10 0
BBX 7 11 2 0
BITMAP
F8
86
82
82
82
82
8C
F0
80
80
80
ENDCHAR
STARTCHAR 0421
ENCODING 1057
SWIDTH 600 0
DWIDTH 10 0
BBX 9 12 1 0
BITMAP
3E00
4100
8100
8080
8000
8000
8000
8000
8080
8100
4100
3E00
ENDCHAR
STARTCHAR 0422
ENCODING 1058
SWIDTH 540 0
DWIDTH 9 0
BBX 10 11 0 0
BITMAP
FFC0
0800
0800
0800
0800
0800
0800
0800
0800
0800
0800
ENDCHAR
STARTCHAR 0423
ENCODING 1059
SWIDTH 600 0
DWIDTH 10 0
BBX 10 12 0 0
BITMAP
8040
4080
4080
2100
2100
1200
1200
0C00
0400
0800
0800
1000
ENDCHAR
STARTCHAR 0424
ENCODING 1060
SWIDTH 660 0
DWIDTH 11 0
BBX 10 10 1 1
BITMAP
1E00
6980
8840
8840
8840
8840
8840
8840
4880
3F00
ENDCHAR
STARTCHAR 0425
ENCODING 1061
SWIDTH 540 0
DWIDTH 9 0
BBX 9 11 0 1
BITMAP
4180
2100
2200
1400
0C00
0C00
1400
2200
2100
4100
8080
ENDCHAR
STARTCHAR 0426
ENCODING 1062
SWIDTH 660 0
DWIDTH 11 0
BBX 10 14 1 -3
BITMAP
8000
8080
8080
8080
8080
8080
8080
8080
8080
8080
8080
8080
7F00
0040
ENDCHAR
STARTCHAR 0427
ENCODING 1063
SWIDTH 600 0
DWIDTH 10 0
BBX 7 10 2 1
BITMAP
82
82
82
82
82
7E
02
02
02
02
ENDCHAR
STARTCHAR 0428
ENCODING 1064
SWIDTH 900 0
DWIDTH 15 0
BBX 12 12 2 0
BITMAP
0410
8410
8410
8410
8410
8410
8410
8410
8410
8410
8410
FFF0
ENDCHAR
STARTCHAR 0429
ENCODING 1065
SWIDTH 900 0
DWIDTH 15 0
BBX 13 15 2 -3
BITMAP
0410
8410
8410
8410
8410
8410
8410
8410
8410
8410
8410
8410
7BE8
0008
0008
ENDCHAR
STARTCHAR 042A
ENCODING 1066
SWIDTH 780 0
DWIDTH 13 0
BBX 12 12 0 0
BITMAP
F800
0800
0800
0800
0800
0800
0FE0
0820
0810
0810
0820
0FC0
ENDCHAR
STARTCHAR 042B
ENCODING 1067
SWIDTH 780 0
DWIDTH 13 0
BBX 10 12 2 0
BITMAP
0040
8040
8040
8040
8040
8040
FC40
8240
8240
8240
8440
F840
ENDCHAR
STARTCHAR 042C
ENCODING 1068
SWIDTH 540 0
DWIDTH 9 0
BBX 7 11 2 1
BITMAP
80
80
80
80
80
FC
82
82
82
84
F8
ENDCHAR
STARTCHAR 042D
ENCODING 1069
SWIDTH 600 0
DWIDTH 10 0
BBX 9 12 1 0
BITMAP
3C00
C300
8100
8100
0080
0080
0E80
0080
8100
8100
8100
7E00
ENDCHAR
STARTCHAR 042E
ENCODING 1070
SWIDTH 900 0
DWIDTH 15 0
BBX 12 12 2 0
BITMAP
07C0
8820
9020
9010
A010
A010
E010
A010
9010
9020
8820
07C0
ENDCHAR
STARTCHAR 042F
ENCODING 1071
SWIDTH 540 0
DWIDTH 9 0
BBX 8 12 1 0
BITMAP
3F
C1
81
81
81
81
61
3F
41
41
81
81
ENDCHAR
STARTCHAR 0430
ENCODING 1072
SWIDTH 480 0
DWIDTH 8 0
BBX 6 9 1 0
BITMAP
78
84
04
04
7C
84
84
84
F8
ENDCHAR
STARTCHAR 0431
ENCODING 1073
SWIDTH 540 0
DWIDTH 9 0
BBX 7 13 1 0
BITMAP
02
04
38
40
80
FC
82
82
82
82
82
82
7C
ENDCHAR
STARTCHAR 0432
ENCODING 1074
SWIDTH 540 0
DWIDTH 9 0
BBX 7 9 1 0
BITMAP
F8
86
82
82
FC
86
82
82
BC
ENDCHAR
STARTCHAR 0433
ENCODING 1075
SWIDTH 420 0
DWIDTH 7 0
BBX 6 9 1 0
BITMAP
FC
80
80
80
80
80
80
80
80
ENDCHAR
STARTCHAR 0434
ENCODING 1076
SWIDTH 540 0
DWIDTH 9 0
BBX 8 12 0 -3
BITMAP
1F
21
21
21
21
21
21
41
41
BF
81
80
ENDCHAR
STARTCHAR 0435
ENCODING 1077
SWIDTH 480 0
DWIDTH 8 0
BBX 7 9 1 0
BITMAP
38
C4
82
82
FC
80
80
80
7C
ENDCHAR
STARTCHAR 0436
ENCODING 1078
SWIDTH 720 0
DWIDTH 12 0
BBX 12 9 0 0
BITMAP
4210
4220
2240
1280
0F00
1280
2240
4220
8210
ENDCHAR
STARTCHAR 0437
ENCODING 1079
SWIDTH 480 0
DWIDTH 8 0
BBX 6 9 1 0
BITMAP
78
84
04
04
38
04
04
84
7C
ENDCHAR
STARTCHAR 0438
ENCODING 1080
SWIDTH 540 0
DWIDTH 9 0
BBX 7 9 1 0
BITMAP
82
86
8A
8A
92
A2
A2
C2
82
ENDCHAR
STARTCHAR 0439
ENCODING 1081
SWIDTH 540 0
DWIDTH 9 0
BBX 7 12 1 0
BITMAP
44
28
10
82
86
8A
8A
92
A2
A2
C2
82
ENDCHAR
STARTCHAR 043A
ENCODING 1082
SWIDTH 480 0
DWIDTH 8 0
BBX 7 9 1 0
BITMAP
80
84
88
90
E0
90
88
84
82
ENDCHAR
STARTCHAR 043B
ENCODING 1083
SWIDTH 540 0
DWIDTH 9 0
BBX 7 9 1 0
BITMAP
3E
42
42
42
42
42
42
82
82
ENDCHAR
STARTCHAR 043C
ENCODING 1084
SWIDTH 720 0
DWIDTH 12 0
BBX 10 9 1 0
BITMAP
8040
C0C0
C140
A140
A240
9240
9440
8C40
8840
ENDCHAR
STARTCHAR 043D
ENCODING 1085
SWIDTH 540 0
DWIDTH 9 0
BBX 7 9 1 0
BITMAP
82
82
82
82
FE
82
82
82
82
ENDCHAR
STARTCHAR 043E
ENCODING 1086
SWIDTH 540 0
DWIDTH 9 0
BBX 7 9 1 0
BITMAP
38
C6
82
82
82
82
82
82
7C
ENDCHAR
STARTCHAR 043F
ENCODING 1087
SWIDTH 540 0
DWIDTH 9 0
BBX 7 9 1 0
BITMAP
FE
82
82
82
82
82
82
82
82
ENDCHAR
STARTCHAR 0440
ENCODING 1088
SWIDTH 540 0
DWIDTH 9 0
BBX 7 12 1 -3
BITMAP
B8
C4
82
82
82
82
82
82
E4
98
80
80
ENDCHAR
STARTCHAR 0441
ENCODING 1089
SWIDTH 480 0
DWIDTH 8 0
BBX 7 9 1 0
BITMAP
38
C4
82
80
80
80
82
84
7C
ENDCHAR
STARTCHAR 0442
ENCODING 1090
SWIDTH 420 0
DWIDTH 7 0
BBX 8 8 0 0
BITMAP
FF
10
10
10
10
10
10
10
ENDCHAR
STARTCHAR 0443
ENCODING 1091
SWIDTH 420 0
DWIDTH 7 0
BBX 8 13 0 -4
BITMAP
81
82
42
44
24
24
28
18
08
10
10
20
40
ENDCHAR
STARTCHAR 0444
ENCODING 1092
SWIDTH 720 0
DWIDTH 12 0
BBX 10 14 1 -2
BITMAP
0800
0800
0800
3F80
C880
8840
8840
8840
8840
8840
8840
4C80
3B00
0800
ENDCHAR
STARTCHAR 0445
ENCODING 1093
SWIDTH 420 0
DWIDTH 7 0
BBX 7 8 0 1
BITMAP
46
24
18
10
18
24
44
82
ENDCHAR
STARTCHAR 0446
ENCODING 1094
SWIDTH 540 0
DWIDTH 9 0
BBX 7 11 1 -3
BITMAP
82
82
82
82
82
82
82
82
82
7C
02
ENDCHAR
STARTCHAR 0447
ENCODING 1095
SWIDTH 480 0
DWIDTH 8 0
BBX 6 7 1 1
BITMAP
84
84
84
84
7C
04
04
ENDCHAR
STARTCHAR 0448
ENCODING 1096
SWIDTH 720 0
DWIDTH 12 0
BBX 11 9 1 0
BITMAP
8420
8420
8420
8420
8420
8420
8420
8420
FFE0
ENDCHAR
STARTCHAR 0449
ENCODING 1097
SWIDTH 720 0
DWIDTH 12 0
BBX 12 12 1 -3
BITMAP
8420
8420
8420
8420
8420
8420
8420
8420
8420
7BD0
0010
0010
ENDCHAR
STARTCHAR 044A
ENCODING 1098
SWIDTH 600 0
DWIDTH 10 0
BBX 10 9 0 0
BITMAP
F000
1000
1000
1000
1F80
1040
1040
1080
1F80
ENDCHAR
STARTCHAR 044B
ENCODING 1099
SWIDTH 720 0
DWIDTH 12 0
BBX 10 9 1 0
BITMAP
8040
8040
8040
8040
BC40
8240
8240
8240
FC40
ENDCHAR
STARTCHAR 044C
ENCODING 1100
SWIDTH 480 0
DWIDTH 8 0
BBX 7 9 1 0
BITMAP
80
80
80
80
BC
82
82
82
FC
ENDCHAR
STARTCHAR 044D
ENCODING 1101
SWIDTH 480 0
DWIDTH 8 0
BBX 7 9 1 0
BITMAP
78
84
02
02
3E
02
02
84
78
ENDCHAR
STARTCHAR 044E
ENCODING 1102
SWIDTH 780 0
DWIDTH 13 0
BBX 12 9 1 0
BITMAP
83C0
8C20
8820
9020
F010
9020
8820
8820
87C0
ENDCHAR
STARTCHAR 044F
ENCODING 1103
SWIDTH 480 0
DWIDTH 8 0
BBX 7 9 1 0
BITMAP
3E
C2
82
82
42
3A
42
42
82
ENDCHAR
STARTCHAR 0450
ENCODING 1104
SWIDTH 480 0
DWIDTH 8 0
BBX 7 12 1 0
BITMAP
20
10
00
38
C4
82
82
FC
80
80
80
7C
ENDCHAR
STARTCHAR 0451
ENCODING 1105
SWIDTH 480 0
DWIDTH 8 0
BBX 7 12 1 0
BITMAP
44
00
00
38
C4
82
82
FC
80
80
80
7C
ENDCHAR
STARTCHAR 0452
ENCODING 1106
SWIDTH 540 0
DWIDTH 9 0
BBX 8 17 0 -4
BITMAP
40
40
F8
40
5E
62
41
41
41
41
41
41
41
01
01
02
04
ENDCHAR
STARTCHAR 0453
ENCODING 1107
SWIDTH 420 0
DWIDTH 7 0
BBX 6 12 1 0
BITMAP
10
20
00
FC
80
80
80
80
80
80
80
80
ENDCHAR
STARTCHAR 0454
ENCODING 1108
SWIDTH 480 0
DWIDTH 8 0
BBX 7 9 1 0
BITMAP
38
C4
82
80
F8
80
82
84
7C
ENDCHAR
STARTCHAR 0455
ENCODING 1109
SWIDTH 480 0
DWIDTH 8 0
BBX 6 9 1 0
BITMAP
78
84
80
80
70
0C
04
84
78
ENDCHAR
STARTCHAR 0456
ENCODING 1110
SWIDTH 180 0
DWIDTH 3 0
BBX 1 12 1 0
BITMAP
80
00
00
80
80
80
80
80
80
80
80
80
ENDCHAR
STARTCHAR 0457
ENCODING 1111
SWIDTH 180 0
DWIDTH 3 0
BBX 5 12 -1 0
BITMAP
88
00
00
20
20
20
20
20
20
20
20
20
ENDCHAR
STARTCHAR 0458
ENCODING 1112
SWIDTH 180 0
DWIDTH 3 0
BBX 3 16 -1 -4
BITMAP
20
00
00
00
20
20
20
20
20
20
20
20
20
20
20
C0
ENDCHAR
STARTCHAR 0459
ENCODING 1113
SWIDTH 840 0
DWIDTH 14 0
BBX 13 9 1 0
BITMAP
3E00
4200
4200
4200
43F0
4208
4208
8210
83F0
ENDCHAR
STARTCHAR 045A
ENCODING 1114
SWIDTH 840 0
DWIDTH 14 0
BBX 13 9 1 0
BITMAP
8200
8200
8200
8200
BBF0
8208
8208
8210
83F0
ENDCHAR
STARTCHAR 045B
ENCODING 1115
SWIDTH 540 0
DWIDTH 9 0
BBX 8 13 0 0
BITMAP
40
40
F8
40
5E
62
41
41
41
41
41
41
41
ENDCHAR
STARTCHAR 045C
ENCODING 1116
SWIDTH 480 0
DWIDTH 8 0
BBX 7 12 1 0
BITMAP
08
10
00
80
84
88
90
E0
90
88
84
82
ENDCHAR
STARTCHAR 045D
ENCODING 1117
SWIDTH 540 0
DWIDTH 9 0
BBX 7 12 1 0
BITMAP
20
10
00
82
86
8A
8A
92
A2
A2
C2
82
ENDCHAR
STARTCHAR 045E
ENCODING 1118
SWIDTH 420 0
DWIDTH 7 0
BBX 8 16 0 -4
BITMAP
20
1C
00
81
82
42
44
24
24
28
18
08
10
10
20
40
ENDCHAR
STARTCHAR 045F
ENCODING 1119
SWIDTH 540 0
DWIDTH 9 0
BBX 7 12 1 -3
BITMAP
82
82
82
82
82
82
82
82
82
7C
10
10
ENDCHAR
STARTCHAR 0460
ENCODING 1120
SWIDTH 840 0
DWIDTH 14 0
BBX 12 12 1 0
BITMAP
8200
8210
8210
8210
8210
8210
8210
8210
8210
8210
8610
7DE0
ENDCHAR
STARTCHAR 0461
ENCODING 1121
SWIDTH 840 0
DWIDTH 14 0
BBX 12 9 1 0
BITMAP
8010
8410
8410
8410
8410
8410
8410
8620
79E0
ENDCHAR
STARTCHAR 0462
ENCODING 1122
SWIDTH 540 0
DWIDTH 9 0
BBX 9 11 0 1
BITMAP
4000
F800
4000
4000
4000
5F00
4080
4080
4080
4100
5E00
ENDCHAR
STARTCHAR 0463
ENCODING 1123
SWIDTH 480 0
DWIDTH 8 0
BBX 7 13 1 0
BITMAP
80
80
80
80
E0
80
80
80
BC
82
82
82
FC
ENDCHAR
STARTCHAR 0464
ENCODING 1124
SWIDTH 840 0
DWIDTH 14 0
BBX 11 12 2 0
BITMAP
07C0
8820
9020
9000
A000
A000
FE00
A000
9000
9020
8820
07C0
ENDCHAR
STARTCHAR 0465
ENCODING 1125
SWIDTH 720 0
DWIDTH 12 0
BBX 10 9 1 0
BITMAP
8780
8840
9000
9000
FF00
9000
9000
8840
8780
ENDCHAR
STARTCHAR 0466
ENCODING 1126
SWIDTH 540 0
DWIDTH 9 0
BBX 9 11 0 1
BITMAP
0C00
1400
1200
1200
2200
2100
3F00
4100
4880
8880
8000
ENDCHAR
STARTCHAR 0467
ENCODING 1127
SWIDTH 480 0
DWIDTH 8 0
BBX 8 9 0 0
BITMAP
08
18
18
24
24
3E
4A
89
08
ENDCHAR
STARTCHAR 0468
ENCODING 1128
SWIDTH 840 0
DWIDTH 14 0
BBX 12 12 2 0
BITMAP
8100
8300
8300
8480
8480
8840
8840
FFC0
9020
9220
9220
8010
ENDCHAR
STARTCHAR 0469
ENCODING 1129
SWIDTH 720 0
DWIDTH 12 0
BBX 10 8 2 1
BITMAP
8600
8A00
8900
9100
FF00
9080
A480
2040
ENDCHAR
STARTCHAR 046A
ENCODING 1130
SWIDTH 720 0
DWIDTH 12 0
BBX 11 12 1 0
BITMAP
7FC0
2080
2100
1100
0A00
0400
7FC0
8440
8420
8420
8420
8420
ENDCHAR
STARTCHAR 046B
ENCODING 1131
SWIDTH 660 0
DWIDTH 11 0
BBX 9 9 1 0
BITMAP
7F00
2200
2200
1400
3E00
C980
8880
8880
8800
ENDCHAR
STARTCHAR 046C
ENCODING 1132
SWIDTH 1020 0
DWIDTH 17 0
BBX 14 12 2 0
BITMAP
07F8
8410
8420
8220
8140
8080
FF78
9884
9084
9084
9084
0004
ENDCHAR
STARTCHAR 046D
ENCODING 1133
SWIDTH 840 0
DWIDTH 14 0
BBX 12 9 1 0
BITMAP
87E0
8420
8240
8280
FFE0
8910
9110
9110
8000
ENDCHAR
STARTCHAR 046E
ENCODING 1134
SWIDTH 480 0
DWIDTH 8 0
BBX 7 18 1 -3
BITMAP
28
10
00
F8
06
02
02
02
04
1C
02
02
02
02
0C
F0
80
40
ENDCHAR
STARTCHAR 046F
ENCODING 1135
SWIDTH 480 0
DWIDTH 8 0
BBX 6 15 1 -2
BITMAP
50
20
00
F0
0C
04
04
78
0C
04
04
18
E0
80
80
ENDCHAR
STARTCHAR 0470
ENCODING 1136
SWIDTH 660 0
DWIDTH 11 0
BBX 9 11 1 0
BITMAP
8000
8880
8880
8880
8880
8880
8880
4900
3E00
0800
0800
ENDCHAR
STARTCHAR 0471
ENCODING 1137
SWIDTH 660 0
DWIDTH 11 0
BBX 9 12 1 -3
BITMAP
8800
8880
8880
8880
8880
8880
8880
4900
2A00
1C00
0800
0800
ENDCHAR
STARTCHAR 0472
ENCODING 1138
SWIDTH 660 0
DWIDTH 11 0
BBX 9 12 1 0
BITMAP
3E00
4100
8100
8080
8080
8080
FF80
8080
8080
8080
4100
3E00
ENDCHAR
STARTCHAR 0473
ENCODING 1139
SWIDTH 540 0
DWIDTH 9 0
BBX 7 9 1 0
BITMAP
38
C6
82
82
FE
82
82
82
7C
ENDCHAR
STARTCHAR 0474
ENCODING 1140
SWIDTH 600 0
DWIDTH 10 0
BBX 9 12 0 0
BITMAP
8080
8100
4100
4200
4200
4200
2400
2400
2400
1800
1800
0800
ENDCHAR
STARTCHAR 0475
ENCODING 1141
SWIDTH 480 0
DWIDTH 8 0
BBX 7 9 0 0
BITMAP
82
84
44
44
48
28
28
30
10
ENDCHAR
STARTCHAR 0476
ENCODING 1142
SWIDTH 600 0
DWIDTH 10 0
BBX 9 14 0 0
BITMAP
2800
1400
8080
8100
4100
4200
4200
4200
2400
2400
2400
1800
1800
0800
ENDCHAR
STARTCHAR 0477
ENCODING 1143
SWIDTH 480 0
DWIDTH 8 0
BBX 7 12 0 0
BITMAP
90
50
28
82
84
44
44
48
28
28
30
10
ENDCHAR
STARTCHAR 0478
ENCODING 1144
SWIDTH 1140 0
DWIDTH 19 0
BBX 18 16 1 -4
BITMAP
3E0000
410000
810000
808040
80A080
809080
809080
808900
808900
808A00
410600
220200
1C0400
000400
000800
001000
ENDCHAR
STARTCHAR 0479
ENCODING 1145
SWIDTH 1020 0
DWIDTH 17 0
BBX 16 13 1 -4
BITMAP
3801
C642
8242
8242
8224
8224
8218
8218
4408
3810
0010
0020
0040
ENDCHAR
STARTCHAR 047A
ENCODING 1146
SWIDTH 660 0
DWIDTH 11 0
BBX 9 14 1 -1
BITMAP
0800
3E00
4100
8100
8080
8080
8080
8080
8080
8080
8080
4100
2A00
1C00
ENDCHAR
STARTCHAR 047B
ENCODING 1147
SWIDTH 540 0
DWIDTH 9 0
BBX 7 11 1 -1
BITMAP
10
38
D6
82
82
82
82
82
82
54
38
ENDCHAR
STARTCHAR 047C
ENCODING 1148
SWIDTH 840 0
DWIDTH 14 0
BBX 12 15 1 0
BITMAP
0700
0080
0000
3260
4010
8010
8010
8210
8210
8210
8210
8210
8210
8610
7DE0
ENDCHAR
STARTCHAR 047D
ENCODING 1149
SWIDTH 780 0
DWIDTH 13 0
BBX 11 12 1 0
BITMAP
0F00
00C0
0400
2440
C020
8020
8020
8020
8420
8420
8420
7BC0
ENDCHAR
STARTCHAR 047E
ENCODING 1150
SWIDTH 840 0
DWIDTH 14 0
BBX 12 14 1 0
BITMAP
0700
0000
8200
8210
8210
8210
8210
8210
8210
8210
8210
8210
8610
7DE0
ENDCHAR
STARTCHAR 047F
ENCODING 1151
SWIDTH 840 0
DWIDTH 14 0
BBX 12 12 1 0
BITMAP
1F80
0000
0000
8010
8410
8410
8410
8410
8410
8410
8620
79E0
ENDCHAR
STARTCHAR 0480
ENCODING 1152
SWIDTH 600 0
DWIDTH 10 0
BBX 9 15 1 -3
BITMAP
1E00
6100
8100
8080
8000
8000
8000
8000
8000
8000
4000
2000
0800
0800
0800
ENDCHAR
STARTCHAR 0481
ENCODING 1153
SWIDTH 480 0
DWIDTH 8 0
BBX 7 11 1 -3
BITMAP
38
C4
82
80
80
80
80
80
40
20
10
ENDCHAR
STARTCHAR 0482
ENCODING 1154
SWIDTH 540 0
DWIDTH 9 0
BBX 8 11 1 0
BITMAP
01
02
14
0C
0A
09
D0
30
28
44
40
ENDCHAR
STARTCHAR 0483
ENCODING 1155
SWIDTH 0 0
DWIDTH 0 0
BBX 5 2 -7 10
BITMAP
F8
80
ENDCHAR
STARTCHAR 0484
ENCODING 1156
SWIDTH 0 0
DWIDTH 0 0
BBX 4 2 -6 11
BITMAP
20
D0
ENDCHAR
STARTCHAR 0485
ENCODING 1157
SWIDTH 0 0
DWIDTH 0 0
BBX 1 2 -5 11
BITMAP
80
80
ENDCHAR
STARTCHAR 0486
ENCODING 1158
SWIDTH 0 0
DWIDTH 0 0
BBX 1 2 -5 11
BITMAP
80
80
ENDCHAR
STARTCHAR 0488
ENCODING 1160
SWIDTH 0 0
DWIDTH 0 0
BBX 16 15 -12 -3
BITMAP
0380
0280
3008
4814
0000
0000
4000
A00F
0000
0000
0000
701C
0000
0380
0280
ENDCHAR
STARTCHAR 0489
ENCODING 1161
SWIDTH 0 0
DWIDTH 0 0
BBX 14 15 -12 -3
BITMAP
0100
0100
2100
1018
1000
0000
0000
E00C
2000
0000
0000
1030
2110
0100
0100
ENDCHAR
STARTCHAR 048A
ENCODING 1162
SWIDTH 660 0
DWIDTH 11 0
BBX 9 15 2 -1
BITMAP
2400
1800
0100
8300
8300
8500
8900
8900
9100
A100
C100
C100
8100
8080
0080
ENDCHAR
STARTCHAR 048B
ENCODING 1163
SWIDTH 480 0
DWIDTH 8 0
BBX 7 14 1 -2
BITMAP
44
28
10
82
86
8A
8A
92
A2
A2
C2
82
02
02
ENDCHAR
STARTCHAR 048C
ENCODING 1164
SWIDTH 540 0
DWIDTH 9 0
BBX 9 11 0 1
BITMAP
4000
F800
4000
4000
4000
5F00
4080
4080
4080
4100
5E00
ENDCHAR
STARTCHAR 048D
ENCODING 1165
SWIDTH 480 0
DWIDTH 8 0
BBX 8 13 0 0
BITMAP
40
F8
40
40
40
40
40
40
5E
41
41
41
7E
ENDCHAR
STARTCHAR 048E
ENCODING 1166
SWIDTH 600 0
DWIDTH 10 0
BBX 7 11 2 0
BITMAP
F8
84
82
82
82
8A
8C
F2
80
80
80
ENDCHAR
STARTCHAR 048F
ENCODING 1167
SWIDTH 540 0
DWIDTH 9 0
BBX 7 12 1 -3
BITMAP
B8
C4
82
82
82
82
82
8A
E4
9A
80
80
ENDCHAR
STARTCHAR 0490
ENCODING 1168
SWIDTH 540 0
DWIDTH 9 0
BBX 7 14 2 0
BITMAP
02
02
02
FE
80
80
80
80
80
80
80
80
80
80
ENDCHAR
STARTCHAR 0491
ENCODING 1169
SWIDTH 420 0
DWIDTH 7 0
BBX 6 12 1 0
BITMAP
04
04
04
FC
80
80
80
80
80
80
80
80
ENDCHAR
STARTCHAR 0492
ENCODING 1170
SWIDTH 540 0
DWIDTH 9 0
BBX 8 11 1 0
BITMAP
7F
80
80
80
80
80
E0
80
80
80
80
ENDCHAR
STARTCHAR 0493
ENCODING 1171
SWIDTH 420 0
DWIDTH 7 0
BBX 7 9 0 0
BITMAP
7E
40
40
40
F8
40
40
40
40
ENDCHAR
STARTCHAR 0494
ENCODING 1172
SWIDTH 540 0
DWIDTH 9 0
BBX 7 14 2 -2
BITMAP
FE
80
80
80
80
F0
88
84
84
84
84
04
04
08
ENDCHAR
STARTCHAR 0495
ENCODING 1173
SWIDTH 480 0
DWIDTH 8 0
BBX 6 11 1 -2
BITMAP
FC
80
80
80
F8
84
84
84
84
04
08
ENDCHAR
STARTCHAR 0496
ENCODING 1174
SWIDTH 840 0
DWIDTH 14 0
BBX 14 13 0 -2
BITMAP
4208
2210
1220
1240
0A40
0EC0
1240
1220
2210
4208
8004
0004
0004
ENDCHAR
STARTCHAR 0497
ENCODING 1175
SWIDTH 720 0
DWIDTH 12 0
BBX 12 11 0 -3
BITMAP
4210
4220
2240
1280
0F00
1280
2240
4220
8210
0010
0010
ENDCHAR
STARTCHAR 0498
ENCODING 1176
SWIDTH 540 0
DWIDTH 9 0
BBX 8 15 1 -4
BITMAP
3C
C2
81
01
01
02
1E
01
01
01
81
42
3C
10
10
ENDCHAR
STARTCHAR 0499
ENCODING 1177
SWIDTH 480 0
DWIDTH 8 0
BBX 6 12 1 -4
BITMAP
78
84
04
04
38
04
04
84
44
38
20
20
ENDCHAR
STARTCHAR 049A
ENCODING 1178
SWIDTH 600 0
DWIDTH 10 0
BBX 8 13 2 -2
BITMAP
86
84
88
90
A0
E0
90
88
84
82
01
00
01
ENDCHAR
STARTCHAR 049B
ENCODING 1179
SWIDTH 480 0
DWIDTH 8 0
BBX 7 11 1 -3
BITMAP
80
84
88
90
E0
90
88
84
82
02
02
ENDCHAR
STARTCHAR 049C
ENCODING 1180
SWIDTH 540 0
DWIDTH 9 0
BBX 7 12 2 0
BITMAP
02
84
84
88
D0
D0
F0
D0
88
84
82
02
ENDCHAR
STARTCHAR 049D
ENCODING 1181
SWIDTH 480 0
DWIDTH 8 0
BBX 7 9 1 0
BITMAP
82
84
A8
A8
F0
A8
A8
84
82
ENDCHAR
STARTCHAR 049E
ENCODING 1182
SWIDTH 600 0
DWIDTH 10 0
BBX 9 11 1 1
BITMAP
8100
8200
E400
8800
9000
B000
8800
8400
8200
8100
0080
ENDCHAR
STARTCHAR 049F
ENCODING 1183
SWIDTH 480 0
DWIDTH 8 0
BBX 6 12 1 1
BITMAP
80
F0
80
80
8C
90
A0
60
90
88
84
04
ENDCHAR
STARTCHAR 04A0
ENCODING 1184
SWIDTH 780 0
DWIDTH 13 0
BBX 12 12 1 0
BITMAP
F010
1020
1040
1080
1100
1200
1600
1100
1080
1040
1020
0010
ENDCHAR
STARTCHAR 04A1
ENCODING 1185
SWIDTH 600 0
DWIDTH 10 0
BBX 10 9 0 0
BITMAP
F000
1080
1100
1200
1C00
1200
1100
1080
1040
ENDCHAR
STARTCHAR 04A2
ENCODING 1186
SWIDTH 660 0
DWIDTH 11 0
BBX 9 14 2 -2
BITMAP
8100
8100
8100
8100
8100
FF00
8100
8100
8100
8100
0080
0080
0080
0080
ENDCHAR
STARTCHAR 04A3
ENCODING 1187
SWIDTH 480 0
DWIDTH 8 0
BBX 7 11 1 -3
BITMAP
82
82
82
82
FE
82
82
82
82
02
02
ENDCHAR
STARTCHAR 04A4
ENCODING 1188
SWIDTH 1020 0
DWIDTH 17 0
BBX 15 11 2 0
BITMAP
00FE
8100
8100
8100
8100
8100
FF00
8100
8100
8100
8100
ENDCHAR
STARTCHAR 04A5
ENCODING 1189
SWIDTH 720 0
DWIDTH 12 0
BBX 11 9 1 0
BITMAP
83E0
8200
8200
8200
FE00
8200
8200
8200
8200
ENDCHAR
STARTCHAR 04A6
ENCODING 1190
SWIDTH 960 0
DWIDTH 16 0
BBX 15 14 1 -2
BITMAP
FF80
8080
8080
8080
8080
80F8
8084
8082
8082
8082
8082
8082
0004
0004
ENDCHAR
STARTCHAR 04A7
ENCODING 1191
SWIDTH 780 0
DWIDTH 13 0
BBX 12 11 1 -2
BITMAP
FE00
8200
8200
8200
83C0
8230
8210
8210
8210
0010
0020
ENDCHAR
STARTCHAR 04A8
ENCODING 1192
SWIDTH 720 0
DWIDTH 12 0
BBX 10 12 1 0
BITMAP
2380
4C40
8840
8840
8840
8840
8840
8840
8840
8440
4480
3FC0
ENDCHAR
STARTCHAR 04A9
ENCODING 1193
SWIDTH 540 0
DWIDTH 9 0
BBX 8 9 1 0
BITMAP
4E
92
91
91
91
91
91
8A
7E
ENDCHAR
STARTCHAR 04AA
ENCODING 1194
SWIDTH 600 0
DWIDTH 10 0
BBX 9 16 1 -4
BITMAP
3E00
4100
8100
8080
8000
8000
8000
8000
8080
8100
4100
2200
1C00
0800
0800
0800
ENDCHAR
STARTCHAR 04AB
ENCODING 1195
SWIDTH 480 0
DWIDTH 8 0
BBX 7 13 1 -4
BITMAP
38
C4
82
80
80
80
82
84
44
38
10
10
10
ENDCHAR
STARTCHAR 04AC
ENCODING 1196
SWIDTH 540 0
DWIDTH 9 0
BBX 10 15 0 -3
BITMAP
FFC0
0800
0800
0800
0800
0800
0800
0800
0800
0800
0800
0400
0400
0400
0400
ENDCHAR
STARTCHAR 04AD
ENCODING 1197
SWIDTH 420 0
DWIDTH 7 0
BBX 8 12 0 -3
BITMAP
FF
10
10
10
10
10
10
10
08
08
08
08
ENDCHAR
STARTCHAR 04AE
ENCODING 1198
SWIDTH 540 0
DWIDTH 9 0
BBX 9 11 0 0
BITMAP
8000
4080
4100
2100
2200
1400
0C00
0800
0800
0800
0800
ENDCHAR
STARTCHAR 04AF
ENCODING 1199
SWIDTH 420 0
DWIDTH 7 0
BBX 7 11 0 -3
BITMAP
80
82
42
44
24
24
28
18
00
10
10
ENDCHAR
STARTCHAR 04B0
ENCODING 1200
SWIDTH 540 0
DWIDTH 9 0
BBX 9 11 0 0
BITMAP
8000
4080
4100
2100
2200
1400
0C00
0800
0800
0800
0800
ENDCHAR
STARTCHAR 04B1
ENCODING 1201
SWIDTH 420 0
DWIDTH 7 0
BBX 7 11 0 -3
BITMAP
80
82
42
44
24
24
28
18
00
18
10
ENDCHAR
STARTCHAR 04B2
ENCODING 1202
SWIDTH 600 0
DWIDTH 10 0
BBX 10 14 0 -2
BITMAP
4180
2100
2200
1400
0C00
0C00
1400
2200
2100
4100
80C0
0040
0040
0040
ENDCHAR
STARTCHAR 04B3
ENCODING 1203
SWIDTH 420 0
DWIDTH 7 0
BBX 8 11 0 -2
BITMAP
46
24
18
10
18
24
44
83
01
01
01
ENDCHAR
STARTCHAR 04B4
ENCODING 1204
SWIDTH 840 0
DWIDTH 14 0
BBX 13 14 0 -3
BITMAP
FF00
1010
1010
1010
1010
1010
1010
1010
1010
1010
1010
1010
07E0
0008
ENDCHAR
STARTCHAR 04B5
ENCODING 1205
SWIDTH 600 0
DWIDTH 10 0
BBX 10 11 0 -3
BITMAP
FC00
2080
2080
2080
2080
2080
2080
2080
2080
0F00
0040
ENDCHAR
STARTCHAR 04B6
ENCODING 1206
SWIDTH 600 0
DWIDTH 10 0
BBX 8 14 2 -2
BITMAP
82
82
82
82
82
7E
02
02
02
02
01
01
01
01
ENDCHAR
STARTCHAR 04B7
ENCODING 1207
SWIDTH 480 0
DWIDTH 8 0
BBX 7 11 1 -2
BITMAP
84
84
84
84
7C
04
04
02
02
02
02
ENDCHAR
STARTCHAR 04B8
ENCODING 1208
SWIDTH 600 0
DWIDTH 10 0
BBX 7 10 2 1
BITMAP
82
82
92
92
92
7E
12
12
02
02
ENDCHAR
STARTCHAR 04B9
ENCODING 1209
SWIDTH 540 0
DWIDTH 9 0
BBX 7 9 1 0
BITMAP
82
82
82
92
52
3E
02
02
02
ENDCHAR
STARTCHAR 04BA
ENCODING 1210
SWIDTH 600 0
DWIDTH 10 0
BBX 7 10 2 1
BITMAP
80
80
80
80
80
FC
82
82
82
82
ENDCHAR
STARTCHAR 04BB
ENCODING 1211
SWIDTH 540 0
DWIDTH 9 0
BBX 7 13 1 0
BITMAP
80
80
80
80
BC
C4
82
82
82
82
82
82
82
ENDCHAR
STARTCHAR 04BC
ENCODING 1212
SWIDTH 720 0
DWIDTH 12 0
BBX 11 12 0 0
BITMAP
0780
1840
2020
A020
A020
7FE0
2000
2000
2000
2000
1000
0FE0
ENDCHAR
STARTCHAR 04BD
ENCODING 1213
SWIDTH 540 0
DWIDTH 9 0
BBX 9 9 0 0
BITMAP
0E00
3100
A080
C080
5F00
4000
2000
2000
1F00
ENDCHAR
STARTCHAR 04BE
ENCODING 1214
SWIDTH 720 0
DWIDTH 12 0
BBX 11 15 0 -4
BITMAP
0780
1840
2020
A020
A020
7FE0
2000
2000
2000
2000
1000
0C60
0380
0200
0200
ENDCHAR
STARTCHAR 04BF
ENCODING 1215
SWIDTH 540 0
DWIDTH 9 0
BBX 9 12 0 -3
BITMAP
0E00
3100
A080
C080
5F00
4000
2000
2000
1900
0600
0400
0400
ENDCHAR
STARTCHAR 04C0
ENCODING 1216
SWIDTH 240 0
DWIDTH 4 0
BBX 1 10 2 1
BITMAP
80
80
80
80
80
80
80
80
80
80
ENDCHAR
STARTCHAR 04C1
ENCODING 1217
SWIDTH 840 0
DWIDTH 14 0
BBX 14 14 0 1
BITMAP
0480
0300
0000
4208
2210
1220
1240
0A40
0EC0
1240
1220
2210
4208
8004
ENDCHAR
STARTCHAR 04C2
ENCODING 1218
SWIDTH 720 0
DWIDTH 12 0
BBX 12 12 0 0
BITMAP
0880
0900
0600
4210
4220
2240
1280
0F00
1280
2240
4220
8210
ENDCHAR
STARTCHAR 04C3
ENCODING 1219
SWIDTH 540 0
DWIDTH 9 0
BBX 7 15 2 -3
BITMAP
02
84
88
90
A0
A0
DC
82
82
82
82
02
02
04
08
ENDCHAR
STARTCHAR 04C4
ENCODING 1220
SWIDTH 480 0
DWIDTH 8 0
BBX 7 11 1 -2
BITMAP
80
8C
88
90
F0
8C
82
82
82
04
04
ENDCHAR
STARTCHAR 04C5
ENCODING 1221
SWIDTH 660 0
DWIDTH 11 0
BBX 9 13 1 -2
BITMAP
3F80
2080
2080
2080
2080
2080
4080
4080
4080
4080
4080
8000
0080
ENDCHAR
STARTCHAR 04C6
ENCODING 1222
SWIDTH 480 0
DWIDTH 8 0
BBX 7 11 1 -2
BITMAP
3E
42
42
42
42
42
42
82
82
02
02
ENDCHAR
STARTCHAR 04C7
ENCODING 1223
SWIDTH 660 0
DWIDTH 11 0
BBX 8 15 2 -3
BITMAP
81
81
81
81
81
FF
81
81
81
81
01
01
01
01
06
ENDCHAR
STARTCHAR 04C8
ENCODING 1224
SWIDTH 540 0
DWIDTH 9 0
BBX 7 13 1 -4
BITMAP
82
82
82
82
FE
82
82
82
82
02
02
04
08
ENDCHAR
STARTCHAR 04C9
ENCODING 1225
SWIDTH 660 0
DWIDTH 11 0
BBX 9 12 2 -1
BITMAP
8100
8100
8100
8100
8100
FF00
8100
8100
8100
8100
0080
0100
ENDCHAR
STARTCHAR 04CA
ENCODING 1226
SWIDTH 480 0
DWIDTH 8 0
BBX 7 11 1 -2
BITMAP
82
82
82
82
FE
82
82
82
82
02
02
ENDCHAR
STARTCHAR 04CB
ENCODING 1227
SWIDTH 600 0
DWIDTH 10 0
BBX 7 14 2 -2
BITMAP
82
82
82
82
82
7E
02
02
02
02
02
02
02
02
ENDCHAR
STARTCHAR 04CC
ENCODING 1228
SWIDTH 480 0
DWIDTH 8 0
BBX 6 11 1 -2
BITMAP
84
84
84
84
7C
04
04
04
04
04
04
ENDCHAR
STARTCHAR 04CD
ENCODING 1229
SWIDTH 780 0
DWIDTH 13 0
BBX 11 14 2 -2
BITMAP
0020
8060
80A0
C0A0
C0A0
A120
A120
A220
9220
9420
8C20
0420
0020
0020
ENDCHAR
STARTCHAR 04CE
ENCODING 1230
SWIDTH 660 0
DWIDTH 11 0
BBX 10 11 1 -2
BITMAP
8040
C0C0
C140
A140
A240
9240
9440
8C40
8840
0040
0040
ENDCHAR
STARTCHAR 04CF
ENCODING 1231
SWIDTH 240 0
DWIDTH 4 0
BBX 1 10 2 1
BITMAP
80
80
80
80
80
80
80
80
80
80
ENDCHAR
STARTCHAR 04D0
ENCODING 1232
SWIDTH 540 0
DWIDTH 9 0
BBX 9 14 0 1
BITMAP
1200
0C00
0000
0C00
1400
1200
1200
2200
2100
4100
5F00
4080
8080
8000
ENDCHAR
STARTCHAR 04D1
ENCODING 1233
SWIDTH 480 0
DWIDTH 8 0
BBX 6 12 1 0
BITMAP
04
38
00
78
84
04
04
7C
84
84
84
F8
ENDCHAR
STARTCHAR 04D2
ENCODING 1234
SWIDTH 540 0
DWIDTH 9 0
BBX 9 15 0 0
BITMAP
0200
0000
0000
0000
0C00
1400
1200
1200
2200
2100
4100
5F00
4080
8080
8000
ENDCHAR
STARTCHAR 04D3
ENCODING 1235
SWIDTH 480 0
DWIDTH 8 0
BBX 6 12 1 0
BITMAP
44
00
00
78
84
04
04
7C
84
84
84
F8
ENDCHAR
STARTCHAR 04D4
ENCODING 1236
SWIDTH 840 0
DWIDTH 14 0
BBX 14 12 0 0
BITMAP
01FC
0300
0300
0500
0900
0900
1170
1080
1F80
6080
4080
80F8
ENDCHAR
STARTCHAR 04D5
ENCODING 1237
SWIDTH 840 0
DWIDTH 14 0
BBX 12 9 1 0
BITMAP
78E0
8710
0410
0400
7DF0
8400
8400
8600
F9F0
ENDCHAR
STARTCHAR 04D6
ENCODING 1238
SWIDTH 540 0
DWIDTH 9 0
BBX 7 14 2 1
BITMAP
48
30
FE
80
80
80
80
80
F8
80
80
80
80
7C
ENDCHAR
STARTCHAR 04D7
ENCODING 1239
SWIDTH 480 0
DWIDTH 8 0
BBX 7 12 1 0
BITMAP
44
38
00
38
C4
82
82
FC
80
80
80
7C
ENDCHAR
STARTCHAR 04D8
ENCODING 1240
SWIDTH 660 0
DWIDTH 11 0
BBX 10 12 1 0
BITMAP
3E00
4180
0080
0040
0040
0040
FFC0
8040
8040
8080
4080
3F00
ENDCHAR
STARTCHAR 04D9
ENCODING 1241
SWIDTH 480 0
DWIDTH 8 0
BBX 7 9 1 0
BITMAP
78
04
04
02
02
FA
84
84
78
ENDCHAR
STARTCHAR 04DA
ENCODING 1242
SWIDTH 660 0
DWIDTH 11 0
BBX 10 14 1 0
BITMAP
0200
0000
3E00
4180
0080
0040
0040
0040
FFC0
8040
8040
8080
4080
3F00
ENDCHAR
STARTCHAR 04DB
ENCODING 1243
SWIDTH 480 0
DWIDTH 8 0
BBX 7 12 1 0
BITMAP
44
00
00
78
04
04
02
02
FA
84
84
78
ENDCHAR
STARTCHAR 04DC
ENCODING 1244
SWIDTH 840 0
DWIDTH 14 0
BBX 14 15 0 0
BITMAP
0400
0000
0000
0000
4208
2210
1220
1240
0A40
0EC0
1240
1220
2210
4208
8004
ENDCHAR
STARTCHAR 04DD
ENCODING 1245
SWIDTH 720 0
DWIDTH 12 0
BBX 12 12 0 0
BITMAP
0880
0000
0000
4210
4220
2240
1280
0F00
1280
2240
4220
8210
ENDCHAR
STARTCHAR 04DE
ENCODING 1246
SWIDTH 540 0
DWIDTH 9 0
BBX 8 15 1 0
BITMAP
20
00
00
3C
C2
81
01
01
02
1E
01
01
01
81
7E
ENDCHAR
STARTCHAR 04DF
ENCODING 1247
SWIDTH 480 0
DWIDTH 8 0
BBX 6 12 1 0
BITMAP
48
00
00
78
84
04
04
38
04
04
84
7C
ENDCHAR
STARTCHAR 04E0
ENCODING 1248
SWIDTH 540 0
DWIDTH 9 0
BBX 7 12 1 0
BITMAP
FE
02
04
08
10
18
06
02
02
82
82
7C
ENDCHAR
STARTCHAR 04E1
ENCODING 1249
SWIDTH 540 0
DWIDTH 9 0
BBX 7 12 1 -3
BITMAP
FE
02
04
08
10
18
04
02
02
82
82
7C
ENDCHAR
STARTCHAR 04E2
ENCODING 1250
SWIDTH 660 0
DWIDTH 11 0
BBX 8 14 2 0
BITMAP
18
00
01
83
83
85
89
89
91
A1
C1
C1
81
80
ENDCHAR
STARTCHAR 04E3
ENCODING 1251
SWIDTH 540 0
DWIDTH 9 0
BBX 7 12 1 0
BITMAP
7C
00
00
82
86
8A
8A
92
A2
A2
C2
82
ENDCHAR
STARTCHAR 04E4
ENCODING 1252
SWIDTH 660 0
DWIDTH 11 0
BBX 8 12 2 3
BITMAP
01
83
83
85
89
89
91
A1
C1
C1
81
80
ENDCHAR
STARTCHAR 04E5
ENCODING 1253
SWIDTH 540 0
DWIDTH 9 0
BBX 7 12 1 0
BITMAP
44
00
00
82
86
8A
8A
92
A2
A2
C2
82
ENDCHAR
STARTCHAR 04E6
ENCODING 1254
SWIDTH 660 0
DWIDTH 11 0
BBX 9 15 1 0
BITMAP
2200
0000
0000
3E00
4100
8100
8080
8080
8080
8080
8080
8080
8080
4100
3E00
ENDCHAR
STARTCHAR 04E7
ENCODING 1255
SWIDTH 540 0
DWIDTH 9 0
BBX 7 12 1 0
BITMAP
44
00
00
38
C6
82
82
82
82
82
82
7C
ENDCHAR
STARTCHAR 04E8
ENCODING 1256
SWIDTH 660 0
DWIDTH 11 0
BBX 9 12 1 0
BITMAP
3E00
4100
8100
8080
8080
8080
FF80
8080
8080
8080
4100
3E00
ENDCHAR
STARTCHAR 04E9
ENCODING 1257
SWIDTH 540 0
DWIDTH 9 0
BBX 7 9 1 0
BITMAP
38
C6
82
82
FE
82
82
82
7C
ENDCHAR
STARTCHAR 04EA
ENCODING 1258
SWIDTH 660 0
DWIDTH 11 0
BBX 9 15 1 0
BITMAP
0200
0000
0000
3E00
4100
8100
8080
8080
8080
FF80
8080
8080
8080
4100
3E00
ENDCHAR
STARTCHAR 04EB
ENCODING 1259
SWIDTH 540 0
DWIDTH 9 0
BBX 7 12 1 0
BITMAP
44
00
00
38
C6
82
82
FE
82
82
82
7C
ENDCHAR
STARTCHAR 04EC
ENCODING 1260
SWIDTH 600 0
DWIDTH 10 0
BBX 9 15 1 0
BITMAP
2200
0000
0000
3C00
C300
8100
8100
0080
0080
0E80
0080
8100
8100
8100
7E00
ENDCHAR
STARTCHAR 04ED
ENCODING 1261
SWIDTH 480 0
DWIDTH 8 0
BBX 7 12 1 0
BITMAP
44
00
00
78
84
02
02
3E
02
02
84
78
ENDCHAR
STARTCHAR 04EE
ENCODING 1262
SWIDTH 600 0
DWIDTH 10 0
BBX 10 14 0 0
BITMAP
0E00
0000
8040
4080
4080
2100
2100
1200
1200
0C00
0400
0800
0800
1000
ENDCHAR
STARTCHAR 04EF
ENCODING 1263
SWIDTH 420 0
DWIDTH 7 0
BBX 8 16 0 -4
BITMAP
3E
00
00
81
82
42
44
24
24
28
18
08
10
10
20
40
ENDCHAR
STARTCHAR 04F0
ENCODING 1264
SWIDTH 600 0
DWIDTH 10 0
BBX 10 15 0 0
BITMAP
1000
0000
0000
8040
4080
4080
2100
2100
1200
1200
0C00
0400
0800
0800
1000
ENDCHAR
STARTCHAR 04F1
ENCODING 1265
SWIDTH 420 0
DWIDTH 7 0
BBX 8 16 0 -4
BITMAP
20
00
00
81
82
42
44
24
24
28
18
08
10
10
20
40
ENDCHAR
STARTCHAR 04F2
ENCODING 1266
SWIDTH 600 0
DWIDTH 10 0
BBX 10 15 0 0
BITMAP
0500
0A00
0000
8040
4080
4080
2100
2100
1200
1200
0C00
0400
0800
0800
1000
ENDCHAR
STARTCHAR 04F3
ENCODING 1267
SWIDTH 420 0
DWIDTH 7 0
BBX 8 17 0 -4
BITMAP
01
1A
14
00
81
82
42
44
24
24
28
18
08
10
10
20
40
ENDCHAR
STARTCHAR 04F4
ENCODING 1268
SWIDTH 600 0
DWIDTH 10 0
BBX 7 14 2 0
BITMAP
04
00
00
00
82
82
82
82
82
7E
02
02
02
02
ENDCHAR
STARTCHAR 04F5
ENCODING 1269
SWIDTH 480 0
DWIDTH 8 0
BBX 6 11 1 0
BITMAP
48
00
00
00
84
84
84
84
7C
04
04
ENDCHAR
STARTCHAR 04F6
ENCODING 1270
SWIDTH 540 0
DWIDTH 9 0
BBX 7 14 2 -3
BITMAP
FE
80
80
80
80
80
80
80
80
80
80
00
80
80
ENDCHAR
STARTCHAR 04F7
ENCODING 1271
SWIDTH 420 0
DWIDTH 7 0
BBX 6 11 1 -3
BITMAP
FC
80
80
80
80
80
80
80
80
80
80
ENDCHAR
STARTCHAR 04F8
ENCODING 1272
SWIDTH 780 0
DWIDTH 13 0
BBX 10 15 2 0
BITMAP
1000
0000
0000
0040
8040
8040
8040
8040
8040
FC40
8240
8240
8240
8440
F840
ENDCHAR
STARTCHAR 04F9
ENCODING 1273
SWIDTH 720 0
DWIDTH 12 0
BBX 10 12 1 0
BITMAP
1100
0000
0000
8040
8040
8040
8040
BC40
8240
8240
8240
FC40
ENDCHAR
STARTCHAR 04FA
ENCODING 1274
SWIDTH 540 0
DWIDTH 9 0
BBX 10 16 -1 -4
BITMAP
1FC0
2000
2000
2000
2000
7C00
2000
2000
2000
2000
2000
0000
2000
2000
2000
C000
ENDCHAR
STARTCHAR 04FB
ENCODING 1275
SWIDTH 420 0
DWIDTH 7 0
BBX 8 13 -1 -4
BITMAP
3F
20
20
20
38
20
20
20
20
20
20
20
C0
ENDCHAR
STARTCHAR 04FC
ENCODING 1276
SWIDTH 600 0
DWIDTH 10 0
BBX 10 15 0 -3
BITMAP
4180
2100
2200
1400
0C00
0C00
1400
2200
2100
4100
80C0
0040
0040
0080
0100
ENDCHAR
STARTCHAR 04FD
ENCODING 1277
SWIDTH 420 0
DWIDTH 7 0
BBX 8 12 0 -3
BITMAP
46
24
18
10
18
24
44
83
01
01
02
04
ENDCHAR
STARTCHAR 04FE
ENCODING 1278
SWIDTH 540 0
DWIDTH 9 0
BBX 9 11 0 1
BITMAP
4180
2100
2200
1400
0C00
0C00
1400
2200
2100
4100
8080
ENDCHAR
STARTCHAR 04FF
ENCODING 1279
SWIDTH 420 0
DWIDTH 7 0
BBX 7 8 0 1
BITMAP
46
24
18
3C
18
24
44
82
ENDCHAR
STARTCHAR 0500
ENCODING 1280
SWIDTH 480 0
DWIDTH 8 0
BBX 7 12 1 0
BITMAP
02
02
02
02
02
3E
C2
82
82
82
82
7E
ENDCHAR
STARTCHAR 0501
ENCODING 1281
SWIDTH 540 0
DWIDTH 9 0
BBX 7 13 1 0
BITMAP
02
02
02
02
3A
C6
82
82
82
82
82
82
7E
ENDCHAR
STARTCHAR 0502
ENCODING 1282
SWIDTH 720 0
DWIDTH 12 0
BBX 11 12 1 0
BITMAP
0200
0200
0200
0200
0200
3E00
C200
8220
8220
8220
8220
7EC0
ENDCHAR
STARTCHAR 0503
ENCODING 1283
SWIDTH 840 0
DWIDTH 14 0
BBX 12 13 1 0
BITMAP
0200
0200
0200
0200
3A00
C600
8210
8210
8210
8210
8210
8220
7DC0
ENDCHAR
STARTCHAR 0504
ENCODING 1284
SWIDTH 780 0
DWIDTH 13 0
BBX 12 12 0 0
BITMAP
FC00
0200
0200
0200
0200
0410
1C10
0410
0210
0210
0220
01C0
ENDCHAR
STARTCHAR 0505
ENCODING 1285
SWIDTH 600 0
DWIDTH 10 0
BBX 10 9 0 0
BITMAP
F000
0800
0400
0440
7840
0840
0440
0440
0780
ENDCHAR
STARTCHAR 0506
ENCODING 1286
SWIDTH 480 0
DWIDTH 8 0
BBX 7 14 1 -3
BITMAP
F0
0C
04
04
04
08
38
04
04
04
04
02
02
02
ENDCHAR
STARTCHAR 0507
ENCODING 1287
SWIDTH 480 0
DWIDTH 8 0
BBX 6 11 1 -2
BITMAP
F0
08
04
04
18
28
04
04
04
04
04
ENDCHAR
STARTCHAR 0508
ENCODING 1288
SWIDTH 960 0
DWIDTH 16 0
BBX 14 12 1 0
BITMAP
1F80
2080
2080
2080
2080
2084
2084
2084
4084
4084
4088
8078
ENDCHAR
STARTCHAR 0509
ENCODING 1289
SWIDTH 780 0
DWIDTH 13 0
BBX 11 9 1 0
BITMAP
3C00
4400
4420
4420
4420
4420
4420
8220
83C0
ENDCHAR
STARTCHAR 050A
ENCODING 1290
SWIDTH 900 0
DWIDTH 15 0
BBX 12 11 2 1
BITMAP
8200
8200
8200
8210
8210
FE10
8210
8210
8210
8210
01E0
ENDCHAR
STARTCHAR 050B
ENCODING 1291
SWIDTH 780 0
DWIDTH 13 0
BBX 11 9 1 0
BITMAP
8000
8400
8420
8420
FC20
8420
8420
8220
83C0
ENDCHAR
STARTCHAR 050C
ENCODING 1292
SWIDTH 600 0
DWIDTH 10 0
BBX 8 12 1 0
BITMAP
1E
60
80
80
80
80
80
81
81
81
41
3E
ENDCHAR
STARTCHAR 050D
ENCODING 1293
SWIDTH 480 0
DWIDTH 8 0
BBX 7 9 1 0
BITMAP
3C
C0
80
80
80
82
82
82
7C
ENDCHAR
STARTCHAR 050E
ENCODING 1294
SWIDTH 660 0
DWIDTH 11 0
BBX 10 12 0 0
BITMAP
FFC0
0800
0800
0800
0840
0840
0840
0840
0840
0840
0840
0780
ENDCHAR
STARTCHAR 050F
ENCODING 1295
SWIDTH 600 0
DWIDTH 10 0
BBX 8 9 1 0
BITMAP
FE
20
21
21
21
21
21
11
1E
ENDCHAR
STARTCHAR 0510
ENCODING 1296
SWIDTH 600 0
DWIDTH 10 0
BBX 9 12 1 0
BITMAP
3E00
C100
8080
8000
8000
6000
5800
8000
8000
8080
8100
7E00
ENDCHAR
STARTCHAR 0511
ENCODING 1297
SWIDTH 540 0
DWIDTH 9 0
BBX 7 9 1 0
BITMAP
7C
82
80
80
78
C0
80
82
7C
ENDCHAR
STARTCHAR 0512
ENCODING 1298
SWIDTH 660 0
DWIDTH 11 0
BBX 9 16 1 -4
BITMAP
3F80
2080
2080
2080
2080
2080
4080
4080
4080
4080
4080
8000
0080
0080
0080
0100
ENDCHAR
STARTCHAR 0513
ENCODING 1299
SWIDTH 480 0
DWIDTH 8 0
BBX 7 13 1 -4
BITMAP
3E
42
42
42
42
42
42
82
82
02
02
02
0C
ENDCHAR
STARTCHAR 1E00
ENCODING 7680
SWIDTH 540 0
DWIDTH 9 0
BBX 9 14 0 -2
BITMAP
0C00
1400
1200
1200
2200
2100
4100
5F00
4080
8080
8000
0000
0C00
0400
ENDCHAR
STARTCHAR 1E01
ENCODING 7681
SWIDTH 480 0
DWIDTH 8 0
BBX 6 12 1 -3
BITMAP
78
84
04
04
7C
84
84
84
88
70
30
30
ENDCHAR
STARTCHAR 1E3E
ENCODING 7742
SWIDTH 840 0
DWIDTH 14 0
BBX 11 15 2 0
BITMAP
0200
0400
0000
0020
8060
80A0
C0A0
C0A0
A120
A120
A220
9220
9420
8C20
0420
ENDCHAR
STARTCHAR 1E3F
ENCODING 7743
SWIDTH 840 0
DWIDTH 14 0
BBX 13 12 1 0
BITMAP
0300
0200
0000
BCF0
C710
8208
8208
8208
8208
8208
8208
8208
ENDCHAR
STARTCHAR 1E80
ENCODING 7808
SWIDTH 900 0
DWIDTH 15 0
BBX 14 15 0 0
BITMAP
0200
0000
0000
0100
8304
4284
4284
4488
4488
2448
2448
2850
2830
1830
0010
ENDCHAR
STARTCHAR 1E81
ENCODING 7809
SWIDTH 720 0
DWIDTH 12 0
BBX 11 12 1 1
BITMAP
0800
0000
0000
0420
8440
8C40
9240
9240
5280
6280
6180
2000
ENDCHAR
STARTCHAR 1E82
ENCODING 7810
SWIDTH 900 0
DWIDTH 15 0
BBX 14 15 0 0
BITMAP
0080
0000
0000
0100
8304
4284
4284
4488
4488
2448
2448
2850
2830
1830
0010
ENDCHAR
STARTCHAR 1E83
ENCODING 7811
SWIDTH 720 0
DWIDTH 12 0
BBX 11 13 1 0
BITMAP
0200
0400
0400
0000
0420
8440
8C40
9240
9240
5280
6280
6180
2000
ENDCHAR
STARTCHAR 1E84
ENCODING 7812
SWIDTH 900 0
DWIDTH 15 0
BBX 14 15 0 0
BITMAP
0440
0000
0000
0100
8304
4284
4284
4488
4488
2448
2448
2850
2830
1830
0010
ENDCHAR
STARTCHAR 1E85
ENCODING 7813
SWIDTH 720 0
DWIDTH 12 0
BBX 11 12 1 0
BITMAP
1100
0000
0000
0420
8440
8C40
9240
9240
5280
6280
6180
2000
ENDCHAR
STARTCHAR 1EA0
ENCODING 7840
SWIDTH 540 0
DWIDTH 9 0
BBX 9 13 0 -1
BITMAP
0C00
1400
1200
1200
2200
2100
4100
5F00
4080
8080
8000
0000
0400
ENDCHAR
STARTCHAR 1EA1
ENCODING 7841
SWIDTH 480 0
DWIDTH 8 0
BBX 6 10 1 -2
BITMAP
78
84
04
04
7C
84
84
84
88
70
ENDCHAR
STARTCHAR 1EA2
ENCODING 7842
SWIDTH 540 0
DWIDTH 9 0
BBX 9 16 0 0
BITMAP
0400
0200
0400
0000
0000
0C00
1400
1200
1200
2200
2100
4100
5F00
4080
8080
8000
ENDCHAR
STARTCHAR 1EA3
ENCODING 7843
SWIDTH 480 0
DWIDTH 8 0
BBX 6 13 1 0
BITMAP
08
08
10
00
78
84
04
04
7C
84
84
84
F8
ENDCHAR
STARTCHAR 1EA4
ENCODING 7844
SWIDTH 540 0
DWIDTH 9 0
BBX 9 16 0 0
BITMAP
0080
0100
1C00
0200
0000
0C00
1400
1200
1200
2200
2100
4100
5F00
4080
8080
8000
ENDCHAR
STARTCHAR 1EA5
ENCODING 7845
SWIDTH 480 0
DWIDTH 8 0
BBX 7 12 1 1
BITMAP
12
28
00
78
84
04
04
7C
84
84
84
F8
ENDCHAR
STARTCHAR 1EA6
ENCODING 7846
SWIDTH 540 0
DWIDTH 9 0
BBX 9 16 0 0
BITMAP
4000
2000
1C00
0200
0000
0C00
1400
1200
1200
2200
2100
4100
5F00
4080
8080
8000
ENDCHAR
STARTCHAR 1EA7
ENCODING 7847
SWIDTH 480 0
DWIDTH 8 0
BBX 6 13 1 0
BITMAP
80
50
28
00
78
84
04
04
7C
84
84
84
F8
ENDCHAR
STARTCHAR 1EA8
ENCODING 7848
SWIDTH 540 0
DWIDTH 9 0
BBX 9 16 0 0
BITMAP
0080
0D80
1200
0000
0000
0C00
1400
1200
1200
2200
2100
4100
5F00
4080
8080
8000
ENDCHAR
STARTCHAR 1EA9
ENCODING 7849
SWIDTH 480 0
DWIDTH 8 0
BBX 8 14 1 0
BITMAP
02
01
38
04
00
78
84
04
04
7C
84
84
84
F8
ENDCHAR
STARTCHAR 1EAA
ENCODING 7850
SWIDTH 540 0
DWIDTH 9 0
BBX 9 16 0 0
BITMAP
1E00
0000
1C00
0200
0000
0C00
1400
1200
1200
2200
2100
4100
5F00
4080
8080
8000
ENDCHAR
STARTCHAR 1EAB
ENCODING 7851
SWIDTH 480 0
DWIDTH 8 0
BBX 6 14 1 0
BITMAP
14
28
10
2C
00
78
84
04
04
7C
84
84
84
F8
ENDCHAR
STARTCHAR 1EAC
ENCODING 7852
SWIDTH 540 0
DWIDTH 9 0
BBX 9 17 0 -2
BITMAP
0C00
1200
0000
0000
0C00
1400
1200
1200
2200
2100
4100
5F00
4080
8080
8000
0000
0400
ENDCHAR
STARTCHAR 1EAD
ENCODING 7853
SWIDTH 480 0
DWIDTH 8 0
BBX 6 13 1 -2
BITMAP
38
04
00
78
84
04
04
7C
84
84
84
88
70
ENDCHAR
STARTCHAR 1EAE
ENCODING 7854
SWIDTH 540 0
DWIDTH 9 0
BBX 9 16 0 0
BITMAP
0400
0000
1200
0C00
0000
0C00
1400
1200
1200
2200
2100
4100
5F00
4080
8080
8000
ENDCHAR
STARTCHAR 1EAF
ENCODING 7855
SWIDTH 480 0
DWIDTH 8 0
BBX 6 12 1 1
BITMAP
44
38
00
78
84
04
04
7C
84
84
84
F8
ENDCHAR
STARTCHAR 1EB0
ENCODING 7856
SWIDTH 540 0
DWIDTH 9 0
BBX 9 15 0 1
BITMAP
0800
1200
0C00
0000
0C00
1400
1200
1200
2200
2100
4100
5F00
4080
8080
8000
ENDCHAR
STARTCHAR 1EB1
ENCODING 7857
SWIDTH 480 0
DWIDTH 8 0
BBX 6 12 1 1
BITMAP
54
38
00
78
84
04
04
7C
84
84
84
F8
ENDCHAR
STARTCHAR 1EB2
ENCODING 7858
SWIDTH 540 0
DWIDTH 9 0
BBX 9 17 0 0
BITMAP
0400
0200
0000
1200
0C00
0000
0C00
1400
1200
1200
2200
2100
4100
5F00
4080
8080
8000
ENDCHAR
STARTCHAR 1EB3
ENCODING 7859
SWIDTH 480 0
DWIDTH 8 0
BBX 6 14 1 0
BITMAP
08
18
44
38
00
78
84
04
04
7C
84
84
84
F8
ENDCHAR
STARTCHAR 1EB4
ENCODING 7860
SWIDTH 540 0
DWIDTH 9 0
BBX 9 16 0 0
BITMAP
0E00
0000
1200
0C00
0000
0C00
1400
1200
1200
2200
2100
4100
5F00
4080
8080
8000
ENDCHAR
STARTCHAR 1EB5
ENCODING 7861
SWIDTH 480 0
DWIDTH 8 0
BBX 6 14 1 0
BITMAP
24
18
04
38
00
78
84
04
04
7C
84
84
84
F8
ENDCHAR
STARTCHAR 1EB6
ENCODING 7862
SWIDTH 540 0
DWIDTH 9 0
BBX 9 16 0 -1
BITMAP
1200
0C00
0000
0C00
1400
1200
1200
2200
2100
4100
5F00
4080
8080
8000
0000
0400
ENDCHAR
STARTCHAR 1EB7
ENCODING 7863
SWIDTH 480 0
DWIDTH 8 0
BBX 6 13 1 -2
BITMAP
04
38
00
78
84
04
04
7C
84
84
84
88
70
ENDCHAR
STARTCHAR 1EB8
ENCODING 7864
SWIDTH 540 0
DWIDTH 9 0
BBX 7 13 2 -2
BITMAP
FE
80
80
80
80
80
F8
80
80
80
80
00
7C
ENDCHAR
STARTCHAR 1EB9
ENCODING 7865
SWIDTH 480 0
DWIDTH 8 0
BBX 7 11 1 -2
BITMAP
38
C4
82
82
FC
80
80
80
44
38
10
ENDCHAR
STARTCHAR 1EBA
ENCODING 7866
SWIDTH 540 0
DWIDTH 9 0
BBX 7 16 2 0
BITMAP
10
08
10
00
FE
80
80
80
80
80
F8
80
80
80
80
7C
ENDCHAR
STARTCHAR 1EBB
ENCODING 7867
SWIDTH 480 0
DWIDTH 8 0
BBX 7 13 1 0
BITMAP
08
08
10
00
38
C4
82
82
FC
80
80
80
7C
ENDCHAR
STARTCHAR 1EBC
ENCODING 7868
SWIDTH 540 0
DWIDTH 9 0
BBX 7 15 2 0
BITMAP
64
18
00
FE
80
80
80
80
80
F8
80
80
80
80
7C
ENDCHAR
STARTCHAR 1EBD
ENCODING 7869
SWIDTH 480 0
DWIDTH 8 0
BBX 7 12 1 0
BITMAP
70
08
00
38
C4
82
82
FC
80
80
80
7C
ENDCHAR
STARTCHAR 1EBE
ENCODING 7870
SWIDTH 540 0
DWIDTH 9 0
BBX 7 16 2 0
BITMAP
02
04
70
08
FE
80
80
80
80
80
F8
80
80
80
80
7C
ENDCHAR
STARTCHAR 1EBF
ENCODING 7871
SWIDTH 480 0
DWIDTH 8 0
BBX 7 13 1 0
BITMAP
02
10
28
00
38
C4
82
82
FC
80
80
80
7C
ENDCHAR
STARTCHAR 1EC0
ENCODING 7872
SWIDTH 540 0
DWIDTH 9 0
BBX 8 16 1 0
BITMAP
80
40
38
04
7F
80
80
80
80
80
BC
80
80
80
80
3E
ENDCHAR
STARTCHAR 1EC1
ENCODING 7873
SWIDTH 480 0
DWIDTH 8 0
BBX 7 13 1 0
BITMAP
80
10
28
00
38
C4
82
82
FC
80
80
80
7C
ENDCHAR
STARTCHAR 1EC2
ENCODING 7874
SWIDTH 540 0
DWIDTH 9 0
BBX 7 16 2 0
BITMAP
02
36
48
00
FE
80
80
80
80
80
F8
80
80
80
80
7C
ENDCHAR
STARTCHAR 1EC3
ENCODING 7875
SWIDTH 480 0
DWIDTH 8 0
BBX 8 14 1 0
BITMAP
02
01
38
44
00
38
C4
82
82
FC
80
80
80
7C
ENDCHAR
STARTCHAR 1EC4
ENCODING 7876
SWIDTH 540 0
DWIDTH 9 0
BBX 7 16 2 0
BITMAP
78
00
70
08
FE
80
80
80
80
80
F8
80
80
80
80
7C
ENDCHAR
STARTCHAR 1EC5
ENCODING 7877
SWIDTH 480 0
DWIDTH 8 0
BBX 7 13 1 1
BITMAP
18
30
08
00
38
C4
82
82
FC
80
80
80
7C
ENDCHAR
STARTCHAR 1EC6
ENCODING 7878
SWIDTH 540 0
DWIDTH 9 0
BBX 7 16 2 -2
BITMAP
30
48
00
FE
80
80
80
80
80
F8
80
80
80
80
00
7C
ENDCHAR
STARTCHAR 1EC7
ENCODING 7879
SWIDTH 480 0
DWIDTH 8 0
BBX 7 14 1 -2
BITMAP
38
04
00
38
C4
82
82
FC
80
80
80
44
38
10
ENDCHAR
STARTCHAR 1EC8
ENCODING 7880
SWIDTH 240 0
DWIDTH 4 0
BBX 2 15 2 0
BITMAP
C0
40
80
00
00
80
80
80
80
80
80
80
80
80
80
ENDCHAR
STARTCHAR 1EC9
ENCODING 7881
SWIDTH 180 0
DWIDTH 3 0
BBX 2 13 1 0
BITMAP
40
40
80
00
80
80
80
80
80
80
80
80
80
ENDCHAR
STARTCHAR 1ECA
ENCODING 7882
SWIDTH 240 0
DWIDTH 4 0
BBX 1 13 2 -1
BITMAP
80
80
80
80
80
80
80
80
80
80
00
00
80
ENDCHAR
STARTCHAR 1ECB
ENCODING 7883
SWIDTH 180 0
DWIDTH 3 0
BBX 1 14 1 -2
BITMAP
80
00
00
80
80
80
80
80
80
80
80
80
00
80
ENDCHAR
STARTCHAR 1ECC
ENCODING 7884
SWIDTH 660 0
DWIDTH 11 0
BBX 9 14 1 -2
BITMAP
3E00
4100
8100
8080
8080
8080
8080
8080
8080
8080
4100
2200
1C00
0800
ENDCHAR
STARTCHAR 1ECD
ENCODING 7885
SWIDTH 540 0
DWIDTH 9 0
BBX 7 11 1 -2
BITMAP
38
C6
82
82
82
82
82
82
44
38
10
ENDCHAR
STARTCHAR 1ECE
ENCODING 7886
SWIDTH 660 0
DWIDTH 11 0
BBX 9 16 1 0
BITMAP
0400
0400
0800
0000
3E00
4100
8100
8080
8080
8080
8080
8080
8080
8080
4100
3E00
ENDCHAR
STARTCHAR 1ECF
ENCODING 7887
SWIDTH 540 0
DWIDTH 9 0
BBX 7 13 1 0
BITMAP
08
08
10
00
38
C6
82
82
82
82
82
82
7C
ENDCHAR
STARTCHAR 1ED0
ENCODING 7888
SWIDTH 660 0
DWIDTH 11 0
BBX 9 15 1 1
BITMAP
0900
1400
0000
3E00
4100
8100
8080
8080
8080
8080
8080
8080
8080
4100
3E00
ENDCHAR
STARTCHAR 1ED1
ENCODING 7889
SWIDTH 540 0
DWIDTH 9 0
BBX 7 13 1 0
BITMAP
02
10
28
00
38
C6
82
82
82
82
82
82
7C
ENDCHAR
STARTCHAR 1ED2
ENCODING 7890
SWIDTH 660 0
DWIDTH 11 0
BBX 9 15 1 1
BITMAP
4800
1400
0000
3E00
4100
8100
8080
8080
8080
8080
8080
8080
8080
4100
3E00
ENDCHAR
STARTCHAR 1ED3
ENCODING 7891
SWIDTH 540 0
DWIDTH 9 0
BBX 7 13 1 0
BITMAP
80
10
28
00
38
C6
82
82
82
82
82
82
7C
ENDCHAR
STARTCHAR 1ED4
ENCODING 7892
SWIDTH 660 0
DWIDTH 11 0
BBX 9 17 1 0
BITMAP
0100
0080
1900
0400
0000
3E00
4100
8100
8080
8080
8080
8080
8080
8080
8080
4100
3E00
ENDCHAR
STARTCHAR 1ED5
ENCODING 7893
SWIDTH 540 0
DWIDTH 9 0
BBX 8 14 1 0
BITMAP
02
01
38
44
00
38
C6
82
82
82
82
82
82
7C
ENDCHAR
STARTCHAR 1ED6
ENCODING 7894
SWIDTH 660 0
DWIDTH 11 0
BBX 9 16 1 0
BITMAP
0C00
0800
3400
0000
3E00
4100
8100
8080
8080
8080
8080
8080
8080
8080
4100
3E00
ENDCHAR
STARTCHAR 1ED7
ENCODING 7895
SWIDTH 540 0
DWIDTH 9 0
BBX 7 13 1 1
BITMAP
18
30
08
00
38
C6
82
82
82
82
82
82
7C
ENDCHAR
STARTCHAR 1ED8
ENCODING 7896
SWIDTH 660 0
DWIDTH 11 0
BBX 9 17 1 -2
BITMAP
1800
0400
0000
3E00
4100
8100
8080
8080
8080
8080
8080
8080
8080
4100
2200
1C00
0800
ENDCHAR
STARTCHAR 1ED9
ENCODING 7897
SWIDTH 540 0
DWIDTH 9 0
BBX 7 14 1 -2
BITMAP
38
04
00
38
C6
82
82
82
82
82
82
44
38
10
ENDCHAR
STARTCHAR 1EDA
ENCODING 7898
SWIDTH 660 0
DWIDTH 11 0
BBX 11 15 1 0
BITMAP
0400
0000
0020
1E20
6140
8080
8080
8080
8080
8080
8080
8080
8080
4100
3E00
ENDCHAR
STARTCHAR 1EDB
ENCODING 7899
SWIDTH 540 0
DWIDTH 9 0
BBX 8 12 1 0
BITMAP
08
00
00
39
C6
82
82
82
82
82
82
7C
ENDCHAR
STARTCHAR 1EDC
ENCODING 7900
SWIDTH 660 0
DWIDTH 11 0
BBX 11 15 1 0
BITMAP
1000
0800
0020
1E20
6140
8080
8080
8080
8080
8080
8080
8080
8080
4100
3E00
ENDCHAR
STARTCHAR 1EDD
ENCODING 7901
SWIDTH 540 0
DWIDTH 9 0
BBX 8 12 1 0
BITMAP
20
10
00
39
C6
82
82
82
82
82
82
7C
ENDCHAR
STARTCHAR 1EDE
ENCODING 7902
SWIDTH 660 0
DWIDTH 11 0
BBX 11 16 1 0
BITMAP
0400
0200
0800
0020
1E20
6140
8080
8080
8080
8080
8080
8080
8080
8080
4100
3E00
ENDCHAR
STARTCHAR 1EDF
ENCODING 7903
SWIDTH 540 0
DWIDTH 9 0
BBX 8 13 1 0
BITMAP
08
08
00
00
39
C6
82
82
82
82
82
82
7C
ENDCHAR
STARTCHAR 1EE0
ENCODING 7904
SWIDTH 660 0
DWIDTH 11 0
BBX 11 15 1 0
BITMAP
1900
2600
0020
1E20
6140
8080
8080
8080
8080
8080
8080
8080
8080
4100
3E00
ENDCHAR
STARTCHAR 1EE1
ENCODING 7905
SWIDTH 540 0
DWIDTH 9 0
BBX 8 12 1 0
BITMAP
70
08
00
39
C6
82
82
82
82
82
82
7C
ENDCHAR
STARTCHAR 1EE2
ENCODING 7906
SWIDTH 660 0
DWIDTH 11 0
BBX 11 15 1 -2
BITMAP
0020
1E20
6140
8080
8080
8080
8080
8080
8080
8080
8080
4100
2200
1C00
0800
ENDCHAR
STARTCHAR 1EE3
ENCODING 7907
SWIDTH 540 0
DWIDTH 9 0
BBX 8 11 1 -1
BITMAP
39
C6
82
82
82
82
82
82
44
38
10
ENDCHAR
STARTCHAR 1EE4
ENCODING 7908
SWIDTH 660 0
DWIDTH 11 0
BBX 9 14 1 -2
BITMAP
8080
8080
8080
8080
8080
8080
8080
8080
8080
8100
4100
2200
1C00
0800
ENDCHAR
STARTCHAR 1EE5
ENCODING 7909
SWIDTH 540 0
DWIDTH 9 0
BBX 7 11 1 -2
BITMAP
82
82
82
82
82
82
82
82
46
38
10
ENDCHAR
STARTCHAR 1EE6
ENCODING 7910
SWIDTH 660 0
DWIDTH 11 0
BBX 9 16 1 0
BITMAP
0400
0400
0C00
0000
8080
8080
8080
8080
8080
8080
8080
8080
8080
8100
4100
3E00
ENDCHAR
STARTCHAR 1EE7
ENCODING 7911
SWIDTH 540 0
DWIDTH 9 0
BBX 7 13 1 0
BITMAP
08
08
00
00
82
82
82
82
82
82
82
82
7E
ENDCHAR
STARTCHAR 1EE8
ENCODING 7912
SWIDTH 660 0
DWIDTH 11 0
BBX 11 15 1 0
BITMAP
0400
0800
0000
80A0
80C0
8080
8080
8080
8080
8080
8080
8080
8100
4100
3E00
ENDCHAR
STARTCHAR 1EE9
ENCODING 7913
SWIDTH 540 0
DWIDTH 9 0
BBX 9 12 1 0
BITMAP
0800
0000
0080
8300
8300
8200
8200
8200
8200
8200
8200
7E00
ENDCHAR
STARTCHAR 1EEA
ENCODING 7914
SWIDTH 660 0
DWIDTH 11 0
BBX 11 15 1 0
BITMAP
1000
0000
0000
80A0
80C0
8080
8080
8080
8080
8080
8080
8080
8100
4100
3E00
ENDCHAR
STARTCHAR 1EEB
ENCODING 7915
SWIDTH 540 0
DWIDTH 9 0
BBX 9 12 1 0
BITMAP
2000
1000
0080
8300
8300
8200
8200
8200
8200
8200
8200
7E00
ENDCHAR
STARTCHAR 1EEC
ENCODING 7916
SWIDTH 660 0
DWIDTH 11 0
BBX 11 16 1 0
BITMAP
0400
0400
0800
0000
80A0
80C0
8080
8080
8080
8080
8080
8080
8080
8100
4100
3E00
ENDCHAR
STARTCHAR 1EED
ENCODING 7917
SWIDTH 540 0
DWIDTH 9 0
BBX 9 13 1 0
BITMAP
0800
0800
0000
0080
8300
8300
8200
8200
8200
8200
8200
8200
7E00
ENDCHAR
STARTCHAR 1EEE
ENCODING 7918
SWIDTH 660 0
DWIDTH 11 0
BBX 11 15 1 0
BITMAP
1000
2E00
0000
80A0
80C0
8080
8080
8080
8080
8080
8080
8080
8100
4100
3E00
ENDCHAR
STARTCHAR 1EEF
ENCODING 7919
SWIDTH 540 0
DWIDTH 9 0
BBX 9 12 1 0
BITMAP
3000
4C00
0080
8300
8300
8200
8200
8200
8200
8200
8200
7E00
ENDCHAR
STARTCHAR 1EF0
ENCODING 7920
SWIDTH 660 0
DWIDTH 11 0
BBX 11 14 1 -1
BITMAP
80A0
80C0
8080
8080
8080
8080
8080
8080
8080
8100
4100
2200
1C00
0800
ENDCHAR
STARTCHAR 1EF1
ENCODING 7921
SWIDTH 540 0
DWIDTH 9 0
BBX 9 12 1 -2
BITMAP
0080
8300
8300
8200
8200
8200
8200
8200
8200
4600
3800
1000
ENDCHAR
STARTCHAR 1EF2
ENCODING 7922
SWIDTH 540 0
DWIDTH 9 0
BBX 9 14 0 0
BITMAP
1000
0800
0000
8000
4080
4100
2100
2200
1400
0C00
0800
0800
0800
0800
ENDCHAR
STARTCHAR 1EF3
ENCODING 7923
SWIDTH 420 0
DWIDTH 7 0
BBX 8 16 0 -3
BITMAP
10
00
00
81
82
42
44
24
24
28
18
08
10
10
20
40
ENDCHAR
STARTCHAR 1EF4
ENCODING 7924
SWIDTH 540 0
DWIDTH 9 0
BBX 9 11 0 -2
BITMAP
8000
4080
4100
2100
2200
1400
0C00
0800
0800
0800
0800
ENDCHAR
STARTCHAR 1EF5
ENCODING 7925
SWIDTH 420 0
DWIDTH 7 0
BBX 8 13 0 -4
BITMAP
81
82
42
44
24
24
28
18
08
10
10
20
40
ENDCHAR
STARTCHAR 1EF6
ENCODING 7926
SWIDTH 540 0
DWIDTH 9 0
BBX 9 15 0 0
BITMAP
0C00
0200
0400
0000
8000
4080
4100
2100
2200
1400
0C00
0800
0800
0800
0800
ENDCHAR
STARTCHAR 1EF7
ENCODING 7927
SWIDTH 420 0
DWIDTH 7 0
BBX 8 17 0 -4
BITMAP
04
04
00
00
81
82
42
44
24
24
28
18
08
10
10
20
40
ENDCHAR
STARTCHAR 1EF8
ENCODING 7928
SWIDTH 540 0
DWIDTH 9 0
BBX 9 14 0 0
BITMAP
1100
2E00
0000
8000
4080
4100
2100
2200
1400
0C00
0800
0800
0800
0800
ENDCHAR
STARTCHAR 1EF9
ENCODING 7929
SWIDTH 420 0
DWIDTH 7 0
BBX 8 16 0 -4
BITMAP
32
0C
00
81
82
42
44
24
24
28
18
08
10
10
20
40
ENDCHAR
STARTCHAR 1F4D
ENCODING 8013
SWIDTH 660 0
DWIDTH 11 0
BBX 13 12 -2 0
BITMAP
A3C0
AC20
0810
1010
1008
1008
1008
1008
1010
0810
0810
07E0
ENDCHAR
STARTCHAR 2000
ENCODING 8192
SWIDTH 480 0
DWIDTH 8 0
BBX 0 0 0 0
BITMAP
ENDCHAR
STARTCHAR 2001
ENCODING 8193
SWIDTH 1020 0
DWIDTH 17 0
BBX 0 0 0 0
BITMAP
ENDCHAR
STARTCHAR 2002
ENCODING 8194
SWIDTH 480 0
DWIDTH 8 0
BBX 0 0 0 0
BITMAP
ENDCHAR
STARTCHAR 2003
ENCODING 8195
SWIDTH 1020 0
DWIDTH 17 0
BBX 0 0 0 0
BITMAP
ENDCHAR
STARTCHAR 2004
ENCODING 8196
SWIDTH 300 0
DWIDTH 5 0
BBX 0 0 0 0
BITMAP
ENDCHAR
STARTCHAR 2005
ENCODING 8197
SWIDTH 240 0
DWIDTH 4 0
BBX 0 0 0 0
BITMAP
ENDCHAR
STARTCHAR 2006
ENCODING 8198
SWIDTH 120 0
DWIDTH 2 0
BBX 0 0 0 0
BITMAP
ENDCHAR
STARTCHAR 2007
ENCODING 8199
SWIDTH 540 0
DWIDTH 9 0
BBX 0 0 0 0
BITMAP
ENDCHAR
STARTCHAR 2008
ENCODING 8200
SWIDTH 240 0
DWIDTH 4 0
BBX 0 0 0 0
BITMAP
ENDCHAR
STARTCHAR 2009
ENCODING 8201
SWIDTH 180 0
DWIDTH 3 0
BBX 0 0 0 0
BITMAP
ENDCHAR
STARTCHAR 200A
ENCODING 8202
SWIDTH 60 0
DWIDTH 1 0
BBX 0 0 0 0
BITMAP
ENDCHAR
STARTCHAR 200B
ENCODING 8203
SWIDTH 0 0
DWIDTH 0 0
BBX 0 0 0 0
BITMAP
ENDCHAR
STARTCHAR 2010
ENCODING 8208
SWIDTH 240 0
DWIDTH 4 0
BBX 4 1 0 5
BITMAP
F0
ENDCHAR
STARTCHAR 2011
ENCODING 8209
SWIDTH 240 0
DWIDTH 4 0
BBX 4 1 0 5
BITMAP
F0
ENDCHAR
STARTCHAR 2013
ENCODING 8211
SWIDTH 600 0
DWIDTH 10 0
BBX 6 1 2 6
BITMAP
FC
ENDCHAR
STARTCHAR 2014
ENCODING 8212
SWIDTH 720 0
DWIDTH 12 0
BBX 9 1 2 6
BITMAP
FF80
ENDCHAR
STARTCHAR 2015
ENCODING 8213
SWIDTH 720 0
DWIDTH 12 0
BBX 9 1 2 6
BITMAP
FF80
ENDCHAR
STARTCHAR 2017
ENCODING 8215
SWIDTH 420 0
DWIDTH 7 0
BBX 5 2 2 -2
BITMAP
F8
F8
ENDCHAR
STARTCHAR 2018
ENCODING 8216
SWIDTH 120 0
DWIDTH 2 0
BBX 1 1 1 11
BITMAP
80
ENDCHAR
STARTCHAR 2019
ENCODING 8217
SWIDTH 120 0
DWIDTH 2 0
BBX 1 3 1 9
BITMAP
80
80
80
ENDCHAR
STARTCHAR 201A
ENCODING 8218
SWIDTH 120 0
DWIDTH 2 0
BBX 1 2 1 -1
BITMAP
80
80
ENDCHAR
STARTCHAR 201B
ENCODING 8219
SWIDTH 120 0
DWIDTH 2 0
BBX 1 2 1 10
BITMAP
80
80
ENDCHAR
STARTCHAR 201C
ENCODING 8220
SWIDTH 240 0
DWIDTH 4 0
BBX 2 2 1 11
BITMAP
C0
40
ENDCHAR
STARTCHAR 201D
ENCODING 8221
SWIDTH 240 0
DWIDTH 4 0
BBX 2 4 1 9
BITMAP
80
C0
C0
40
ENDCHAR
STARTCHAR 201E
ENCODING 8222
SWIDTH 180 0
DWIDTH 3 0
BBX 2 3 1 -1
BITMAP
C0
C0
40
ENDCHAR
STARTCHAR 2020
ENCODING 8224
SWIDTH 540 0
DWIDTH 9 0
BBX 8 12 1 0
BITMAP
10
10
10
FF
10
10
10
10
10
10
10
10
ENDCHAR
STARTCHAR 2021
ENCODING 8225
SWIDTH 540 0
DWIDTH 9 0
BBX 8 15 1 -3
BITMAP
10
10
10
FF
10
10
10
10
10
10
10
10
7E
10
10
ENDCHAR
STARTCHAR 2022
ENCODING 8226
SWIDTH 300 0
DWIDTH 5 0
BBX 3 3 1 4
BITMAP
E0
E0
40
ENDCHAR
STARTCHAR 2025
ENCODING 8229
SWIDTH 420 0
DWIDTH 7 0
BBX 1 1 5 0
BITMAP
80
ENDCHAR
STARTCHAR 2026
ENCODING 8230
SWIDTH 600 0
DWIDTH 10 0
BBX 4 1 5 0
BITMAP
90
ENDCHAR
STARTCHAR 2027
ENCODING 8231
SWIDTH 120 0
DWIDTH 2 0
BBX 1 1 1 5
BITMAP
80
ENDCHAR
STARTCHAR 2030
ENCODING 8240
SWIDTH 960 0
DWIDTH 16 0
BBX 15 12 1 0
BITMAP
7000
9000
9100
9200
9400
6400
0800
0BFC
1224
2222
2224
03FC
ENDCHAR
STARTCHAR 2032
ENCODING 8242
SWIDTH 120 0
DWIDTH 2 0
BBX 1 4 1 9
BITMAP
80
80
80
80
ENDCHAR
STARTCHAR 2033
ENCODING 8243
SWIDTH 240 0
DWIDTH 4 0
BBX 2 4 1 9
BITMAP
80
C0
C0
80
ENDCHAR
STARTCHAR 2039
ENCODING 8249
SWIDTH 240 0
DWIDTH 4 0
BBX 3 7 1 1
BITMAP
20
40
80
80
80
40
20
ENDCHAR
STARTCHAR 203A
ENCODING 8250
SWIDTH 240 0
DWIDTH 4 0
BBX 3 7 1 1
BITMAP
80
80
40
20
40
80
80
ENDCHAR
STARTCHAR 203C
ENCODING 8252
SWIDTH 360 0
DWIDTH 6 0
BBX 4 12 1 0
BITMAP
80
90
90
90
90
90
90
90
80
00
00
90
ENDCHAR
STARTCHAR 2044
ENCODING 8260
SWIDTH 420 0
DWIDTH 7 0
BBX 5 8 1 2
BITMAP
08
08
10
20
20
40
80
80
ENDCHAR
STARTCHAR 2070
ENCODING 8304
SWIDTH 300 0
DWIDTH 5 0
BBX 4 7 1 5
BITMAP
60
90
90
90
90
90
60
ENDCHAR
STARTCHAR 2074
ENCODING 8308
SWIDTH 300 0
DWIDTH 5 0
BBX 4 5 1 6
BITMAP
60
60
A0
20
F0
ENDCHAR
STARTCHAR 2075
ENCODING 8309
SWIDTH 300 0
DWIDTH 5 0
BBX 4 7 1 5
BITMAP
70
80
80
70
10
90
60
ENDCHAR
STARTCHAR 2076
ENCODING 8310
SWIDTH 300 0
DWIDTH 5 0
BBX 4 7 1 5
BITMAP
60
80
E0
90
90
90
60
ENDCHAR
STARTCHAR 2077
ENCODING 8311
SWIDTH 300 0
DWIDTH 5 0
BBX 4 6 1 5
BITMAP
F0
10
20
20
40
40
ENDCHAR
STARTCHAR 2078
ENCODING 8312
SWIDTH 300 0
DWIDTH 5 0
BBX 4 7 1 5
BITMAP
E0
90
90
60
90
90
60
ENDCHAR
STARTCHAR 2079
ENCODING 8313
SWIDTH 300 0
DWIDTH 5 0
BBX 4 7 1 5
BITMAP
60
90
90
90
70
20
40
ENDCHAR
STARTCHAR 207A
ENCODING 8314
SWIDTH 360 0
DWIDTH 6 0
BBX 3 4 2 6
BITMAP
80
80
E0
80
ENDCHAR
STARTCHAR 207B
ENCODING 8315
SWIDTH 300 0
DWIDTH 5 0
BBX 4 1 1 8
BITMAP
F0
ENDCHAR
STARTCHAR 207C
ENCODING 8316
SWIDTH 300 0
DWIDTH 5 0
BBX 2 2 2 7
BITMAP
C0
C0
ENDCHAR
STARTCHAR 207D
ENCODING 8317
SWIDTH 240 0
DWIDTH 4 0
BBX 2 10 1 4
BITMAP
40
80
80
80
80
80
80
80
80
40
ENDCHAR
STARTCHAR 207E
ENCODING 8318
SWIDTH 240 0
DWIDTH 4 0
BBX 2 10 1 4
BITMAP
80
80
40
40
40
40
40
40
80
80
ENDCHAR
STARTCHAR 207F
ENCODING 8319
SWIDTH 420 0
DWIDTH 7 0
BBX 5 6 1 5
BITMAP
70
88
88
88
88
88
ENDCHAR
STARTCHAR 2080
ENCODING 8320
SWIDTH 300 0
DWIDTH 5 0
BBX 4 6 1 -3
BITMAP
F0
90
90
90
90
F0
ENDCHAR
STARTCHAR 2081
ENCODING 8321
SWIDTH 300 0
DWIDTH 5 0
BBX 3 6 1 -3
BITMAP
E0
20
20
20
20
20
ENDCHAR
STARTCHAR 2082
ENCODING 8322
SWIDTH 300 0
DWIDTH 5 0
BBX 4 7 1 -3
BITMAP
60
90
10
20
60
80
E0
ENDCHAR
STARTCHAR 2083
ENCODING 8323
SWIDTH 300 0
DWIDTH 5 0
BBX 4 7 1 -3
BITMAP
60
90
10
60
10
10
F0
ENDCHAR
STARTCHAR 2084
ENCODING 8324
SWIDTH 300 0
DWIDTH 5 0
BBX 4 5 1 -3
BITMAP
20
60
A0
20
F0
ENDCHAR
STARTCHAR 2085
ENCODING 8325
SWIDTH 300 0
DWIDTH 5 0
BBX 4 6 1 -3
BITMAP
E0
80
F0
10
10
F0
ENDCHAR
STARTCHAR 2086
ENCODING 8326
SWIDTH 300 0
DWIDTH 5 0
BBX 4 6 1 -2
BITMAP
C0
80
F0
90
90
F0
ENDCHAR
STARTCHAR 2087
ENCODING 8327
SWIDTH 300 0
DWIDTH 5 0
BBX 3 5 2 -3
BITMAP
E0
40
40
80
80
ENDCHAR
STARTCHAR 2088
ENCODING 8328
SWIDTH 300 0
DWIDTH 5 0
BBX 4 7 1 -3
BITMAP
60
90
90
60
90
90
F0
ENDCHAR
STARTCHAR 2089
ENCODING 8329
SWIDTH 300 0
DWIDTH 5 0
BBX 4 7 1 -3
BITMAP
40
B0
90
90
70
10
60
ENDCHAR
STARTCHAR 208A
ENCODING 8330
SWIDTH 360 0
DWIDTH 6 0
BBX 3 4 2 -2
BITMAP
80
80
E0
80
ENDCHAR
STARTCHAR 208B
ENCODING 8331
SWIDTH 300 0
DWIDTH 5 0
BBX 4 1 1 0
BITMAP
F0
ENDCHAR
STARTCHAR 208C
ENCODING 8332
SWIDTH 300 0
DWIDTH 5 0
BBX 2 2 2 -1
BITMAP
C0
C0
ENDCHAR
STARTCHAR 208D
ENCODING 8333
SWIDTH 240 0
DWIDTH 4 0
BBX 2 9 1 -4
BITMAP
40
80
80
80
80
80
80
80
40
ENDCHAR
STARTCHAR 208E
ENCODING 8334
SWIDTH 240 0
DWIDTH 4 0
BBX 2 9 1 -3
BITMAP
80
40
40
40
40
40
40
80
80
ENDCHAR
STARTCHAR 20A3
ENCODING 8355
SWIDTH 540 0
DWIDTH 9 0
BBX 8 11 1 0
BITMAP
7F
80
80
80
80
80
BC
80
80
E0
80
ENDCHAR
STARTCHAR 20A4
ENCODING 8356
SWIDTH 540 0
DWIDTH 9 0
BBX 6 12 2 0
BITMAP
38
C4
80
80
80
80
E0
80
E0
80
80
FC
ENDCHAR
STARTCHAR 20A6
ENCODING 8358
SWIDTH 720 0
DWIDTH 12 0
BBX 12 12 0 0
BITMAP
2020
6020
5020
4820
4820
77E0
4220
FFF0
4120
40A0
4060
0020
ENDCHAR
STARTCHAR 20A7
ENCODING 8359
SWIDTH 780 0
DWIDTH 13 0
BBX 10 12 2 0
BITMAP
F000
8800
8500
83C0
8500
8500
9900
E100
8100
8100
8100
0080
ENDCHAR
STARTCHAR 20A8
ENCODING 8360
SWIDTH 1020 0
DWIDTH 17 0
BBX 14 12 2 0
BITMAP
F800
8600
8200
8278
8284
8280
FC80
8870
840C
8404
8204
01F8
ENDCHAR
STARTCHAR 20A9
ENCODING 8361
SWIDTH 780 0
DWIDTH 13 0
BBX 13 12 0 0
BITMAP
0200
4610
4610
4520
FFF8
2920
2920
7FF0
28C0
28C0
1040
1040
ENDCHAR
STARTCHAR 20AA
ENCODING 8362
SWIDTH 720 0
DWIDTH 12 0
BBX 10 9 1 0
BITMAP
F800
8440
8240
8240
9240
9240
9040
9040
9780
ENDCHAR
STARTCHAR 20AB
ENCODING 8363
SWIDTH 540 0
DWIDTH 9 0
BBX 8 15 1 -2
BITMAP
02
02
1F
02
3A
C6
82
82
82
82
82
82
4E
30
FE
ENDCHAR
STARTCHAR 20AC
ENCODING 8364
SWIDTH 540 0
DWIDTH 9 0
BBX 5 12 2 0
BITMAP
38
40
80
80
80
E0
80
E0
80
80
40
38
ENDCHAR
STARTCHAR 20B1
ENCODING 8369
SWIDTH 600 0
DWIDTH 10 0
BBX 10 11 0 0
BITMAP
3F00
4080
FFC0
4080
4080
7F80
4300
5C00
4000
4000
4000
ENDCHAR
STARTCHAR 20B9
ENCODING 8377
SWIDTH 420 0
DWIDTH 7 0
BBX 6 12 1 0
BITMAP
FC
10
08
FC
08
10
20
40
40
20
10
08
ENDCHAR
STARTCHAR 20BA
ENCODING 8378
SWIDTH 420 0
DWIDTH 7 0
BBX 7 11 0 1
BITMAP
40
40
20
C0
20
42
42
42
44
44
18
ENDCHAR
STARTCHAR 20BC
ENCODING 8380
SWIDTH 600 0
DWIDTH 10 0
BBX 9 9 1 0
BITMAP
0800
0800
3E00
4900
8900
8880
8880
8880
0880
ENDCHAR
STARTCHAR 20BD
ENCODING 8381
SWIDTH 600 0
DWIDTH 10 0
BBX 9 11 0 0
BITMAP
3F00
4080
4080
4080
4080
4080
4300
7C00
FC00
4000
4000
ENDCHAR
STARTCHAR 2105
ENCODING 8453
SWIDTH 720 0
DWIDTH 12 0
BBX 11 12 1 0
BITMAP
7000
8000
8100
8200
9400
6400
0800
0BC0
1240
2220
2240
03C0
ENDCHAR
STARTCHAR 2113
ENCODING 8467
SWIDTH 420 0
DWIDTH 7 0
BBX 4 12 2 1
BITMAP
50
90
90
90
90
A0
A0
40
80
80
40
20
ENDCHAR
STARTCHAR 2116
ENCODING 8470
SWIDTH 960 0
DWIDTH 16 0
BBX 14 12 2 0
BITMAP
0238
82C8
8284
C284
A284
A248
9230
9200
8A38
8A00
8600
0200
ENDCHAR
STARTCHAR 2122
ENCODING 8482
SWIDTH 600 0
DWIDTH 10 0
BBX 8 5 1 7
BITMAP
E9
59
5B
55
41
ENDCHAR
STARTCHAR 2126
ENCODING 8486
SWIDTH 600 0
DWIDTH 10 0
BBX 9 12 1 0
BITMAP
3C00
4200
8100
8100
8080
8080
8080
8100
8100
8100
4200
7700
ENDCHAR
STARTCHAR 212E
ENCODING 8494
SWIDTH 600 0
DWIDTH 10 0
BBX 8 9 1 0
BITMAP
1C
63
41
C1
FF
C0
40
40
3E
ENDCHAR
STARTCHAR 215B
ENCODING 8539
SWIDTH 720 0
DWIDTH 12 0
BBX 10 11 2 1
BITMAP
8000
8400
8400
8800
9000
1680
2480
4280
4580
0840
0780
ENDCHAR
STARTCHAR 215C
ENCODING 8540
SWIDTH 840 0
DWIDTH 14 0
BBX 12 12 1 0
BITMAP
7000
8800
1080
3100
0A00
8A40
75B0
0910
08E0
1110
1110
00E0
ENDCHAR
STARTCHAR 215D
ENCODING 8541
SWIDTH 840 0
DWIDTH 14 0
BBX 12 12 1 0
BITMAP
7000
8080
8100
5100
1200
9440
65A0
0920
08A0
1160
0110
01E0
ENDCHAR
STARTCHAR 215E
ENCODING 8542
SWIDTH 780 0
DWIDTH 13 0
BBX 11 12 1 0
BITMAP
F800
1000
1100
2200
2400
4400
4B60
1220
11C0
2220
2220
01E0
ENDCHAR
STARTCHAR 2202
ENCODING 8706
SWIDTH 540 0
DWIDTH 9 0
BBX 8 12 1 0
BITMAP
7C
02
02
01
7D
83
81
81
81
82
82
7C
ENDCHAR
STARTCHAR 2206
ENCODING 8710
SWIDTH 660 0
DWIDTH 11 0
BBX 10 12 1 0
BITMAP
0800
1400
1400
1400
2200
2200
4100
4100
8080
8080
8080
7FC0
ENDCHAR
STARTCHAR 220F
ENCODING 8719
SWIDTH 600 0
DWIDTH 10 0
BBX 8 14 1 -2
BITMAP
FF
81
81
81
81
81
81
81
81
81
81
81
81
81
ENDCHAR
STARTCHAR 2211
ENCODING 8721
SWIDTH 540 0
DWIDTH 9 0
BBX 9 14 0 -2
BITMAP
FF80
4000
4000
2000
1000
0800
0800
0400
0800
1000
2000
2000
4000
BF00
ENDCHAR
STARTCHAR 2212
ENCODING 8722
SWIDTH 540 0
DWIDTH 9 0
BBX 5 1 2 6
BITMAP
F8
ENDCHAR
STARTCHAR 221A
ENCODING 8730
SWIDTH 480 0
DWIDTH 8 0
BBX 7 12 1 0
BITMAP
02
04
04
04
08
08
88
90
50
50
60
20
ENDCHAR
STARTCHAR 221E
ENCODING 8734
SWIDTH 1080 0
DWIDTH 18 0
BBX 16 9 1 0
BITMAP
3C3C
4242
8281
8181
8101
8181
8281
8242
7C3C
ENDCHAR
STARTCHAR 222B
ENCODING 8747
SWIDTH 240 0
DWIDTH 4 0
BBX 6 17 -1 -4
BITMAP
0C
30
20
20
20
20
20
20
20
20
20
20
20
20
20
20
C0
ENDCHAR
STARTCHAR 2248
ENCODING 8776
SWIDTH 540 0
DWIDTH 9 0
BBX 7 5 1 3
BITMAP
72
8C
00
60
9E
ENDCHAR
STARTCHAR 2260
ENCODING 8800
SWIDTH 540 0
DWIDTH 9 0
BBX 5 8 2 2
BITMAP
08
10
E8
20
40
F8
80
80
ENDCHAR
STARTCHAR 2264
ENCODING 8804
SWIDTH 480 0
DWIDTH 8 0
BBX 6 9 1 0
BITMAP
08
30
C0
40
30
0C
00
00
78
ENDCHAR
STARTCHAR 2265
ENCODING 8805
SWIDTH 480 0
DWIDTH 8 0
BBX 7 9 1 1
BITMAP
40
30
0E
04
38
C0
00
00
7C
ENDCHAR
STARTCHAR 25CA
ENCODING 9674
SWIDTH 480 0
DWIDTH 8 0
BBX 7 12 1 0
BITMAP
10
30
48
48
84
84
82
84
88
48
30
10
ENDCHAR
STARTCHAR EE01
ENCODING 60929
SWIDTH 180 0
DWIDTH 3 0
BBX 1 9 1 1
BITMAP
80
00
00
00
00
00
00
00
80
ENDCHAR
STARTCHAR EE02
ENCODING 60930
SWIDTH 240 0
DWIDTH 4 0
BBX 2 1 1 7
BITMAP
C0
ENDCHAR
STARTCHAR F6C3
ENCODING 63171
SWIDTH 180 0
DWIDTH 3 0
BBX 1 2 1 -1
BITMAP
80
80
ENDCHAR
STARTCHAR FB01
ENCODING 64257
SWIDTH 480 0
DWIDTH 8 0
BBX 6 13 1 0
BITMAP
18
60
40
40
F0
44
44
44
44
44
44
44
40
ENDCHAR
STARTCHAR FB02
ENCODING 64258
SWIDTH 480 0
DWIDTH 8 0
BBX 6 13 1 0
BITMAP
38
40
44
44
F4
44
44
44
44
44
44
44
40
ENDCHAR
STARTCHAR FB03
ENCODING 64259
SWIDTH 780 0
DWIDTH 13 0
BBX 11 13 1 0
BITMAP
31C0
4200
4400
4400
FFA0
4420
4420
4420
4420
4420
4420
4420
4020
ENDCHAR
STARTCHAR FB04
ENCODING 64260
SWIDTH 780 0
DWIDTH 13 0
BBX 11 13 1 0
BITMAP
31C0
4220
4420
4420
FFA0
4420
4420
4420
4420
4420
4420
4420
4020
ENDCHAR
STARTCHAR FEFF
ENCODING 65279
SWIDTH 0 0
DWIDTH 0 0
BBX 0 0 0 0
BITMAP
ENDCHAR
STARTCHAR FFFC
ENCODING 65532
SWIDTH 1020 0
DWIDTH 17 0
BBX 15 15 1 -3
BITMAP
DBB6
8002
0000
8000
8002
8300
3E88
A78A
A648
3B98
8002
8000
0000
8002
DBB6
ENDCHAR
STARTCHAR FFFD
ENCODING 65533
SWIDTH 1020 0
DWIDTH 17 0
BBX 15 16 1 0
BITMAP
0100
0380
07C0
0FE0
1C70
3838
7F3C
FF3E
FE7E
7EFC
3FF8
1EF0
0FE0
07C0
0380
0100
ENDCHAR
ENDFONT
